<mxfile host="app.diagrams.net" agent="Mozilla/5.0 (Windows NT 10.0; Win64; x64) AppleWebKit/537.36 (KHTML, like Gecko) Chrome/137.0.0.0 Safari/537.36 Edg/137.0.0.0" version="27.1.6">
  <diagram name="Page-1" id="C1LJ0rVFb7HiMDtOJRub">
    <mxGraphModel dx="1344" dy="880" grid="1" gridSize="10" guides="1" tooltips="1" connect="1" arrows="1" fold="1" page="1" pageScale="1" pageWidth="850" pageHeight="1100" math="0" shadow="0">
      <root>
        <mxCell id="0" />
        <mxCell id="1" parent="0" />
        <mxCell id="KilW35cTOYBIGDiVR_Ry-11" value="&lt;p&gt;&amp;nbsp; &amp;nbsp; Agent Deployment by Persona&lt;/p&gt;" style="rounded=1;whiteSpace=wrap;html=1;align=left;verticalLabelPosition=center;verticalAlign=top;arcSize=4;" vertex="1" parent="1">
          <mxGeometry x="550" y="1170" width="2620" height="370" as="geometry" />
        </mxCell>
        <mxCell id="lBSA8WIBel6qRi3vPHOn-253" value="&amp;nbsp; &amp;nbsp; &amp;nbsp;Real-Time Operations - Policymakers" style="rounded=1;whiteSpace=wrap;html=1;align=left;verticalAlign=top;arcSize=5;" parent="1" vertex="1">
          <mxGeometry x="2010" y="1590" width="580" height="850" as="geometry" />
        </mxCell>
        <mxCell id="lBSA8WIBel6qRi3vPHOn-95" value="Continuous Learning Loop" style="whiteSpace=wrap;strokeWidth=2;" parent="1" vertex="1">
          <mxGeometry x="1545" y="3450" width="679" height="685" as="geometry" />
        </mxCell>
        <mxCell id="lBSA8WIBel6qRi3vPHOn-96" value="Cross-Agent Coordination" style="whiteSpace=wrap;strokeWidth=2;" parent="1" vertex="1">
          <mxGeometry x="1420" y="2560" width="910" height="815" as="geometry" />
        </mxCell>
        <mxCell id="lBSA8WIBel6qRi3vPHOn-97" value="Boundary Monitoring &amp; Updates" style="whiteSpace=wrap;strokeWidth=2;align=left;verticalAlign=top;" parent="1" vertex="1">
          <mxGeometry x="2632" y="1601" width="585" height="839" as="geometry" />
        </mxCell>
        <mxCell id="lBSA8WIBel6qRi3vPHOn-99" value="Real-Time Operations - Planners" style="whiteSpace=wrap;strokeWidth=2;align=left;verticalAlign=top;" parent="1" vertex="1">
          <mxGeometry x="1090" y="1601" width="649" height="839" as="geometry" />
        </mxCell>
        <mxCell id="lBSA8WIBel6qRi3vPHOn-100" value="Real-Time Operations - Emergency Responders" style="whiteSpace=wrap;strokeWidth=2;align=left;verticalAlign=top;" parent="1" vertex="1">
          <mxGeometry x="240" y="1601" width="640" height="839" as="geometry" />
        </mxCell>
        <mxCell id="lBSA8WIBel6qRi3vPHOn-103" value="" style="whiteSpace=wrap;strokeWidth=2;" parent="1" vertex="1">
          <mxGeometry x="1690" y="20" width="480" height="530" as="geometry" />
        </mxCell>
        <mxCell id="lBSA8WIBel6qRi3vPHOn-106" value="HIL: Human Confirms Incident Details" style="whiteSpace=wrap;strokeWidth=2;" parent="1" vertex="1">
          <mxGeometry x="1747" y="360" width="249" height="50" as="geometry" />
        </mxCell>
        <mxCell id="lBSA8WIBel6qRi3vPHOn-107" value="Auto-Validate Report" style="whiteSpace=wrap;strokeWidth=2;" parent="1" vertex="1">
          <mxGeometry x="1940" y="280" width="209" height="54" as="geometry" />
        </mxCell>
        <mxCell id="lBSA8WIBel6qRi3vPHOn-108" value="Incident Validated" style="whiteSpace=wrap;strokeWidth=2;" parent="1" vertex="1">
          <mxGeometry x="1779" y="470" width="190" height="54" as="geometry" />
        </mxCell>
        <mxCell id="lBSA8WIBel6qRi3vPHOn-109" value="Master Orchestrator Agent Activated" style="whiteSpace=wrap;strokeWidth=2;" parent="1" vertex="1">
          <mxGeometry x="1747" y="620" width="260" height="78" as="geometry" />
        </mxCell>
        <mxCell id="lBSA8WIBel6qRi3vPHOn-110" value="Geopolitical Boundary Analysis" style="whiteSpace=wrap;strokeWidth=2;" parent="1" vertex="1">
          <mxGeometry x="1747" y="748" width="260" height="78" as="geometry" />
        </mxCell>
        <mxCell id="lBSA8WIBel6qRi3vPHOn-111" value="Load Jurisdiction-Specific Prompts" style="whiteSpace=wrap;strokeWidth=2;" parent="1" vertex="1">
          <mxGeometry x="1747" y="876" width="260" height="78" as="geometry" />
        </mxCell>
        <mxCell id="lBSA8WIBel6qRi3vPHOn-112" value="Initialize Specialized Agents" style="whiteSpace=wrap;strokeWidth=2;" parent="1" vertex="1">
          <mxGeometry x="1747" y="1004" width="260" height="54" as="geometry" />
        </mxCell>
        <mxCell id="lBSA8WIBel6qRi3vPHOn-113" value="Emergency Responder Agent Pool" style="whiteSpace=wrap;strokeWidth=2;" parent="1" vertex="1">
          <mxGeometry x="888" y="1344" width="260" height="78" as="geometry" />
        </mxCell>
        <mxCell id="lBSA8WIBel6qRi3vPHOn-114" value="Planner Agent Pool" style="whiteSpace=wrap;strokeWidth=2;" parent="1" vertex="1">
          <mxGeometry x="1774" y="1356" width="195" height="54" as="geometry" />
        </mxCell>
        <mxCell id="lBSA8WIBel6qRi3vPHOn-115" value="Policymaker Agent Pool" style="whiteSpace=wrap;strokeWidth=2;" parent="1" vertex="1">
          <mxGeometry x="2619" y="1356" width="227" height="54" as="geometry" />
        </mxCell>
        <mxCell id="lBSA8WIBel6qRi3vPHOn-116" value="Ground Response Agent" style="whiteSpace=wrap;strokeWidth=2;" parent="1" vertex="1">
          <mxGeometry x="585" y="1472" width="227" height="54" as="geometry" />
        </mxCell>
        <mxCell id="lBSA8WIBel6qRi3vPHOn-117" value="Safety Coordination Agent" style="whiteSpace=wrap;strokeWidth=2;" parent="1" vertex="1">
          <mxGeometry x="862" y="1472" width="247" height="54" as="geometry" />
        </mxCell>
        <mxCell id="lBSA8WIBel6qRi3vPHOn-118" value="Resource Request Agent" style="whiteSpace=wrap;strokeWidth=2;" parent="1" vertex="1">
          <mxGeometry x="1159" y="1472" width="231" height="54" as="geometry" />
        </mxCell>
        <mxCell id="lBSA8WIBel6qRi3vPHOn-119" value="Tactical Planning Agent" style="whiteSpace=wrap;strokeWidth=2;" parent="1" vertex="1">
          <mxGeometry x="1439" y="1472" width="226" height="54" as="geometry" />
        </mxCell>
        <mxCell id="lBSA8WIBel6qRi3vPHOn-120" value="Resource Allocation Agent" style="whiteSpace=wrap;strokeWidth=2;" parent="1" vertex="1">
          <mxGeometry x="1716" y="1472" width="245" height="54" as="geometry" />
        </mxCell>
        <mxCell id="lBSA8WIBel6qRi3vPHOn-121" value="Evacuation Planning Agent" style="whiteSpace=wrap;strokeWidth=2;" parent="1" vertex="1">
          <mxGeometry x="2011" y="1472" width="249" height="54" as="geometry" />
        </mxCell>
        <mxCell id="lBSA8WIBel6qRi3vPHOn-122" value="Strategic Analysis Agent" style="whiteSpace=wrap;strokeWidth=2;" parent="1" vertex="1">
          <mxGeometry x="2310" y="1472" width="230" height="54" as="geometry" />
        </mxCell>
        <mxCell id="lBSA8WIBel6qRi3vPHOn-123" value="Risk Assessment Agent" style="whiteSpace=wrap;strokeWidth=2;" parent="1" vertex="1">
          <mxGeometry x="2590" y="1472" width="219" height="54" as="geometry" />
        </mxCell>
        <mxCell id="lBSA8WIBel6qRi3vPHOn-124" value="Policy Compliance Agent" style="whiteSpace=wrap;strokeWidth=2;" parent="1" vertex="1">
          <mxGeometry x="2892" y="1472" width="235" height="54" as="geometry" />
        </mxCell>
        <mxCell id="lBSA8WIBel6qRi3vPHOn-125" value="Receive Radio/Drone Data" style="whiteSpace=wrap;strokeWidth=2;" parent="1" vertex="1">
          <mxGeometry x="574" y="1638" width="248" height="54" as="geometry" />
        </mxCell>
        <mxCell id="lBSA8WIBel6qRi3vPHOn-127" value="HIL: Emergency Commander Override" style="whiteSpace=wrap;strokeWidth=2;" parent="1" vertex="1">
          <mxGeometry x="568" y="1952" width="260" height="78" as="geometry" />
        </mxCell>
        <mxCell id="lBSA8WIBel6qRi3vPHOn-128" value="Auto-Generate Ground Tactics" style="whiteSpace=wrap;strokeWidth=2;" parent="1" vertex="1">
          <mxGeometry x="317" y="1852" width="215" height="48" as="geometry" />
        </mxCell>
        <mxCell id="lBSA8WIBel6qRi3vPHOn-129" value="Execute Safety Protocols" style="whiteSpace=wrap;strokeWidth=2;" parent="1" vertex="1">
          <mxGeometry x="590" y="2096" width="237" height="54" as="geometry" />
        </mxCell>
        <mxCell id="lBSA8WIBel6qRi3vPHOn-130" value="Update via Radio/Loudspeaker" style="whiteSpace=wrap;strokeWidth=2;" parent="1" vertex="1">
          <mxGeometry x="568" y="2337" width="260" height="78" as="geometry" />
        </mxCell>
        <mxCell id="lBSA8WIBel6qRi3vPHOn-131" value="Receive Mobile Command Data" style="whiteSpace=wrap;strokeWidth=2;" parent="1" vertex="1">
          <mxGeometry x="1423" y="1626" width="260" height="78" as="geometry" />
        </mxCell>
        <mxCell id="lBSA8WIBel6qRi3vPHOn-132" value="Resource Reallocation Needed?" style="rhombus;strokeWidth=2;whiteSpace=wrap;" parent="1" vertex="1">
          <mxGeometry x="1414" y="1754" width="278" height="278" as="geometry" />
        </mxCell>
        <mxCell id="lBSA8WIBel6qRi3vPHOn-133" value="HIL: Operations Chief Approval" style="whiteSpace=wrap;strokeWidth=2;" parent="1" vertex="1">
          <mxGeometry x="1129" y="2105" width="260" height="78" as="geometry" />
        </mxCell>
        <mxCell id="lBSA8WIBel6qRi3vPHOn-134" value="Auto-Optimize Resource Plan" style="whiteSpace=wrap;strokeWidth=2;" parent="1" vertex="1">
          <mxGeometry x="1439" y="2105" width="260" height="78" as="geometry" />
        </mxCell>
        <mxCell id="lBSA8WIBel6qRi3vPHOn-135" value="Deploy Resources" style="whiteSpace=wrap;strokeWidth=2;" parent="1" vertex="1">
          <mxGeometry x="1461" y="2233" width="184" height="54" as="geometry" />
        </mxCell>
        <mxCell id="lBSA8WIBel6qRi3vPHOn-136" value="Update Tablets/Laptops" style="whiteSpace=wrap;strokeWidth=2;" parent="1" vertex="1">
          <mxGeometry x="1437" y="2349" width="231" height="54" as="geometry" />
        </mxCell>
        <mxCell id="lBSA8WIBel6qRi3vPHOn-137" value="Receive HQ Server Data" style="whiteSpace=wrap;strokeWidth=2;" parent="1" vertex="1">
          <mxGeometry x="2311" y="1638" width="229" height="54" as="geometry" />
        </mxCell>
        <mxCell id="lBSA8WIBel6qRi3vPHOn-139" value="HIL: Executive Decision Required" style="whiteSpace=wrap;strokeWidth=2;" parent="1" vertex="1">
          <mxGeometry x="2295" y="1870" width="260" height="60" as="geometry" />
        </mxCell>
        <mxCell id="lBSA8WIBel6qRi3vPHOn-140" value="Auto-Generate Recommendations" style="whiteSpace=wrap;strokeWidth=2;" parent="1" vertex="1">
          <mxGeometry x="2100" y="1970" width="224" height="60" as="geometry" />
        </mxCell>
        <mxCell id="lBSA8WIBel6qRi3vPHOn-141" value="Issue Policy Directives" style="whiteSpace=wrap;strokeWidth=2;" parent="1" vertex="1">
          <mxGeometry x="2316" y="2233" width="218" height="54" as="geometry" />
        </mxCell>
        <mxCell id="lBSA8WIBel6qRi3vPHOn-142" value="Update Command Systems" style="whiteSpace=wrap;strokeWidth=2;" parent="1" vertex="1">
          <mxGeometry x="2301" y="2349" width="249" height="54" as="geometry" />
        </mxCell>
        <mxCell id="lBSA8WIBel6qRi3vPHOn-143" value="Boundary Monitor Agent" style="whiteSpace=wrap;strokeWidth=2;" parent="1" vertex="1">
          <mxGeometry x="2833" y="1638" width="231" height="54" as="geometry" />
        </mxCell>
        <mxCell id="lBSA8WIBel6qRi3vPHOn-144" value="Boundary Change Detected?" style="rhombus;strokeWidth=2;whiteSpace=wrap;" parent="1" vertex="1">
          <mxGeometry x="2821" y="1766" width="254" height="254" as="geometry" />
        </mxCell>
        <mxCell id="lBSA8WIBel6qRi3vPHOn-145" value="HIL: Boundary Authority Confirms" style="whiteSpace=wrap;strokeWidth=2;" parent="1" vertex="1">
          <mxGeometry x="2667" y="2105" width="260" height="78" as="geometry" />
        </mxCell>
        <mxCell id="lBSA8WIBel6qRi3vPHOn-146" value="Continue Monitoring" style="whiteSpace=wrap;strokeWidth=2;" parent="1" vertex="1">
          <mxGeometry x="2977" y="2117" width="205" height="54" as="geometry" />
        </mxCell>
        <mxCell id="lBSA8WIBel6qRi3vPHOn-147" value="Update All Agent Scopes" style="whiteSpace=wrap;strokeWidth=2;" parent="1" vertex="1">
          <mxGeometry x="2680" y="2233" width="233" height="54" as="geometry" />
        </mxCell>
        <mxCell id="lBSA8WIBel6qRi3vPHOn-148" value="Redistribute Geopolitical Prompts" style="whiteSpace=wrap;strokeWidth=2;" parent="1" vertex="1">
          <mxGeometry x="2667" y="2337" width="260" height="78" as="geometry" />
        </mxCell>
        <mxCell id="lBSA8WIBel6qRi3vPHOn-149" value="Information Fusion Hub" style="whiteSpace=wrap;strokeWidth=2;" parent="1" vertex="1">
          <mxGeometry x="1958.5" y="2605" width="227" height="54" as="geometry" />
        </mxCell>
        <mxCell id="lBSA8WIBel6qRi3vPHOn-150" value="Conflicting Recommendations?" style="rhombus;strokeWidth=2;whiteSpace=wrap;" parent="1" vertex="1">
          <mxGeometry x="1745.5" y="2709" width="278" height="278" as="geometry" />
        </mxCell>
        <mxCell id="lBSA8WIBel6qRi3vPHOn-151" value="HIL: Unified Command Decision" style="whiteSpace=wrap;strokeWidth=2;" parent="1" vertex="1">
          <mxGeometry x="1872.5" y="3060" width="260" height="78" as="geometry" />
        </mxCell>
        <mxCell id="lBSA8WIBel6qRi3vPHOn-152" value="Execute Coordinated Response" style="whiteSpace=wrap;strokeWidth=2;" parent="1" vertex="1">
          <mxGeometry x="1754.5" y="3188" width="260" height="78" as="geometry" />
        </mxCell>
        <mxCell id="lBSA8WIBel6qRi3vPHOn-153" value="Real-Time Status Updates" style="whiteSpace=wrap;strokeWidth=2;" parent="1" vertex="1">
          <mxGeometry x="1762.5" y="3316" width="243" height="54" as="geometry" />
        </mxCell>
        <mxCell id="lBSA8WIBel6qRi3vPHOn-154" value="Performance Metrics Collection" style="whiteSpace=wrap;strokeWidth=2;" parent="1" vertex="1">
          <mxGeometry x="1754.5" y="3470" width="260" height="78" as="geometry" />
        </mxCell>
        <mxCell id="lBSA8WIBel6qRi3vPHOn-155" value="Learning Threshold Met?" style="rhombus;strokeWidth=2;whiteSpace=wrap;" parent="1" vertex="1">
          <mxGeometry x="1770.5" y="3598" width="228" height="228" as="geometry" />
        </mxCell>
        <mxCell id="lBSA8WIBel6qRi3vPHOn-156" value="HIL: Approve Model Updates" style="whiteSpace=wrap;strokeWidth=2;" parent="1" vertex="1">
          <mxGeometry x="1731.5" y="3899" width="260" height="78" as="geometry" />
        </mxCell>
        <mxCell id="lBSA8WIBel6qRi3vPHOn-157" value="Continue Operations" style="whiteSpace=wrap;strokeWidth=2;" parent="1" vertex="1">
          <mxGeometry x="2041.5" y="3911" width="207" height="54" as="geometry" />
        </mxCell>
        <mxCell id="lBSA8WIBel6qRi3vPHOn-158" value="Update Agent Knowledge Base" style="whiteSpace=wrap;strokeWidth=2;" parent="1" vertex="1">
          <mxGeometry x="1941.5" y="4027" width="260" height="78" as="geometry" />
        </mxCell>
        <mxCell id="lBSA8WIBel6qRi3vPHOn-159" value="" style="curved=1;startArrow=none;endArrow=block;exitX=0.5;exitY=1;entryX=0.5;entryY=0;rounded=0;entryDx=0;entryDy=0;entryPerimeter=0;exitDx=0;exitDy=0;" parent="1" source="lBSA8WIBel6qRi3vPHOn-232" target="lBSA8WIBel6qRi3vPHOn-223" edge="1">
          <mxGeometry relative="1" as="geometry">
            <Array as="points" />
            <mxPoint x="1871" y="123" as="sourcePoint" />
            <mxPoint x="1871" y="173" as="targetPoint" />
          </mxGeometry>
        </mxCell>
        <mxCell id="lBSA8WIBel6qRi3vPHOn-163" value="" style="curved=1;startArrow=none;endArrow=block;exitX=0.5;exitY=1;entryX=1;entryY=0.5;rounded=0;entryDx=0;entryDy=0;" parent="1" source="lBSA8WIBel6qRi3vPHOn-107" target="lBSA8WIBel6qRi3vPHOn-108" edge="1">
          <mxGeometry relative="1" as="geometry">
            <Array as="points">
              <mxPoint x="2070" y="480" />
              <mxPoint x="2030" y="510" />
            </Array>
          </mxGeometry>
        </mxCell>
        <mxCell id="lBSA8WIBel6qRi3vPHOn-164" value="" style="curved=1;startArrow=none;endArrow=block;exitX=0.389;exitY=0.999;entryX=0.5;entryY=0;rounded=0;exitDx=0;exitDy=0;exitPerimeter=0;" parent="1" source="lBSA8WIBel6qRi3vPHOn-103" target="lBSA8WIBel6qRi3vPHOn-109" edge="1">
          <mxGeometry relative="1" as="geometry">
            <Array as="points" />
          </mxGeometry>
        </mxCell>
        <mxCell id="lBSA8WIBel6qRi3vPHOn-165" value="" style="curved=1;startArrow=none;endArrow=block;exitX=0.5;exitY=1;entryX=0.5;entryY=0;rounded=0;" parent="1" source="lBSA8WIBel6qRi3vPHOn-109" target="lBSA8WIBel6qRi3vPHOn-110" edge="1">
          <mxGeometry relative="1" as="geometry">
            <Array as="points" />
          </mxGeometry>
        </mxCell>
        <mxCell id="lBSA8WIBel6qRi3vPHOn-166" value="" style="curved=1;startArrow=none;endArrow=block;exitX=0.5;exitY=1;entryX=0.5;entryY=0;rounded=0;" parent="1" source="lBSA8WIBel6qRi3vPHOn-110" target="lBSA8WIBel6qRi3vPHOn-111" edge="1">
          <mxGeometry relative="1" as="geometry">
            <Array as="points" />
          </mxGeometry>
        </mxCell>
        <mxCell id="lBSA8WIBel6qRi3vPHOn-167" value="" style="curved=1;startArrow=none;endArrow=block;exitX=0.5;exitY=1;entryX=0.5;entryY=0;rounded=0;" parent="1" source="lBSA8WIBel6qRi3vPHOn-111" target="lBSA8WIBel6qRi3vPHOn-112" edge="1">
          <mxGeometry relative="1" as="geometry">
            <Array as="points" />
          </mxGeometry>
        </mxCell>
        <mxCell id="lBSA8WIBel6qRi3vPHOn-168" value="" style="curved=1;startArrow=none;endArrow=block;exitX=0;exitY=0.65;entryX=0.5;entryY=0;rounded=0;" parent="1" source="lBSA8WIBel6qRi3vPHOn-112" target="lBSA8WIBel6qRi3vPHOn-113" edge="1">
          <mxGeometry relative="1" as="geometry">
            <Array as="points">
              <mxPoint x="1018" y="1269" />
            </Array>
          </mxGeometry>
        </mxCell>
        <mxCell id="lBSA8WIBel6qRi3vPHOn-169" value="" style="curved=1;startArrow=none;endArrow=block;exitX=0.5;exitY=1;entryX=0.5;entryY=0;rounded=0;" parent="1" source="lBSA8WIBel6qRi3vPHOn-112" target="lBSA8WIBel6qRi3vPHOn-114" edge="1">
          <mxGeometry relative="1" as="geometry">
            <Array as="points" />
          </mxGeometry>
        </mxCell>
        <mxCell id="lBSA8WIBel6qRi3vPHOn-170" value="" style="curved=1;startArrow=none;endArrow=block;exitX=1;exitY=0.65;entryX=0.5;entryY=0;rounded=0;" parent="1" source="lBSA8WIBel6qRi3vPHOn-112" target="lBSA8WIBel6qRi3vPHOn-115" edge="1">
          <mxGeometry relative="1" as="geometry">
            <Array as="points">
              <mxPoint x="2732" y="1269" />
            </Array>
          </mxGeometry>
        </mxCell>
        <mxCell id="lBSA8WIBel6qRi3vPHOn-171" value="" style="curved=1;startArrow=none;endArrow=block;exitX=0;exitY=0.83;entryX=0.5;entryY=0;rounded=0;" parent="1" source="lBSA8WIBel6qRi3vPHOn-113" target="lBSA8WIBel6qRi3vPHOn-116" edge="1">
          <mxGeometry relative="1" as="geometry">
            <Array as="points">
              <mxPoint x="698" y="1447" />
            </Array>
          </mxGeometry>
        </mxCell>
        <mxCell id="lBSA8WIBel6qRi3vPHOn-172" value="" style="curved=1;startArrow=none;endArrow=block;exitX=0.42;exitY=1;entryX=0.5;entryY=0;rounded=0;" parent="1" source="lBSA8WIBel6qRi3vPHOn-113" target="lBSA8WIBel6qRi3vPHOn-117" edge="1">
          <mxGeometry relative="1" as="geometry">
            <Array as="points">
              <mxPoint x="985" y="1447" />
            </Array>
          </mxGeometry>
        </mxCell>
        <mxCell id="lBSA8WIBel6qRi3vPHOn-173" value="" style="curved=1;startArrow=none;endArrow=block;exitX=1;exitY=0.92;entryX=0.5;entryY=0;rounded=0;" parent="1" source="lBSA8WIBel6qRi3vPHOn-113" target="lBSA8WIBel6qRi3vPHOn-118" edge="1">
          <mxGeometry relative="1" as="geometry">
            <Array as="points">
              <mxPoint x="1274" y="1447" />
            </Array>
          </mxGeometry>
        </mxCell>
        <mxCell id="lBSA8WIBel6qRi3vPHOn-174" value="" style="curved=1;startArrow=none;endArrow=block;exitX=0;exitY=0.86;entryX=0.5;entryY=0;rounded=0;" parent="1" source="lBSA8WIBel6qRi3vPHOn-114" target="lBSA8WIBel6qRi3vPHOn-119" edge="1">
          <mxGeometry relative="1" as="geometry">
            <Array as="points">
              <mxPoint x="1553" y="1447" />
            </Array>
          </mxGeometry>
        </mxCell>
        <mxCell id="lBSA8WIBel6qRi3vPHOn-175" value="" style="curved=1;startArrow=none;endArrow=block;exitX=0.43;exitY=1;entryX=0.5;entryY=0;rounded=0;" parent="1" source="lBSA8WIBel6qRi3vPHOn-114" target="lBSA8WIBel6qRi3vPHOn-120" edge="1">
          <mxGeometry relative="1" as="geometry">
            <Array as="points">
              <mxPoint x="1839" y="1447" />
            </Array>
          </mxGeometry>
        </mxCell>
        <mxCell id="lBSA8WIBel6qRi3vPHOn-176" value="" style="curved=1;startArrow=none;endArrow=block;exitX=1;exitY=0.94;entryX=0.5;entryY=0;rounded=0;" parent="1" source="lBSA8WIBel6qRi3vPHOn-114" target="lBSA8WIBel6qRi3vPHOn-121" edge="1">
          <mxGeometry relative="1" as="geometry">
            <Array as="points">
              <mxPoint x="2136" y="1447" />
            </Array>
          </mxGeometry>
        </mxCell>
        <mxCell id="lBSA8WIBel6qRi3vPHOn-177" value="" style="curved=1;startArrow=none;endArrow=block;exitX=0;exitY=0.94;entryX=0.5;entryY=0;rounded=0;" parent="1" source="lBSA8WIBel6qRi3vPHOn-115" target="lBSA8WIBel6qRi3vPHOn-122" edge="1">
          <mxGeometry relative="1" as="geometry">
            <Array as="points">
              <mxPoint x="2425" y="1447" />
            </Array>
          </mxGeometry>
        </mxCell>
        <mxCell id="lBSA8WIBel6qRi3vPHOn-178" value="" style="curved=1;startArrow=none;endArrow=block;exitX=0.44;exitY=1;entryX=0.5;entryY=0;rounded=0;" parent="1" source="lBSA8WIBel6qRi3vPHOn-115" target="lBSA8WIBel6qRi3vPHOn-123" edge="1">
          <mxGeometry relative="1" as="geometry">
            <Array as="points">
              <mxPoint x="2700" y="1447" />
            </Array>
          </mxGeometry>
        </mxCell>
        <mxCell id="lBSA8WIBel6qRi3vPHOn-179" value="" style="curved=1;startArrow=none;endArrow=block;exitX=1;exitY=0.98;entryX=0.5;entryY=0;rounded=0;" parent="1" source="lBSA8WIBel6qRi3vPHOn-115" target="lBSA8WIBel6qRi3vPHOn-124" edge="1">
          <mxGeometry relative="1" as="geometry">
            <Array as="points">
              <mxPoint x="3009" y="1447" />
            </Array>
          </mxGeometry>
        </mxCell>
        <mxCell id="lBSA8WIBel6qRi3vPHOn-180" value="" style="curved=1;startArrow=none;endArrow=block;exitX=0.5;exitY=1;entryX=0.5;entryY=0;rounded=0;" parent="1" source="lBSA8WIBel6qRi3vPHOn-116" target="lBSA8WIBel6qRi3vPHOn-125" edge="1">
          <mxGeometry relative="1" as="geometry">
            <Array as="points" />
          </mxGeometry>
        </mxCell>
        <mxCell id="lBSA8WIBel6qRi3vPHOn-181" value="" style="curved=1;startArrow=none;endArrow=block;exitX=0.5;exitY=1;entryX=0.5;entryY=0;rounded=0;entryDx=0;entryDy=0;entryPerimeter=0;" parent="1" source="lBSA8WIBel6qRi3vPHOn-125" target="KilW35cTOYBIGDiVR_Ry-12" edge="1">
          <mxGeometry relative="1" as="geometry">
            <Array as="points" />
          </mxGeometry>
        </mxCell>
        <mxCell id="lBSA8WIBel6qRi3vPHOn-184" value="" style="curved=1;startArrow=none;endArrow=block;exitX=0.5;exitY=1;entryX=0.5;entryY=0;rounded=0;entryDx=0;entryDy=0;" parent="1" source="lBSA8WIBel6qRi3vPHOn-127" target="lBSA8WIBel6qRi3vPHOn-129" edge="1">
          <mxGeometry relative="1" as="geometry">
            <Array as="points">
              <mxPoint x="698" y="2070" />
            </Array>
          </mxGeometry>
        </mxCell>
        <mxCell id="lBSA8WIBel6qRi3vPHOn-185" value="" style="curved=1;startArrow=none;endArrow=block;exitX=0.5;exitY=1;entryX=0;entryY=0.5;rounded=0;entryDx=0;entryDy=0;" parent="1" source="lBSA8WIBel6qRi3vPHOn-128" target="lBSA8WIBel6qRi3vPHOn-129" edge="1">
          <mxGeometry relative="1" as="geometry">
            <Array as="points">
              <mxPoint x="310" y="2140" />
              <mxPoint x="380" y="2270" />
            </Array>
          </mxGeometry>
        </mxCell>
        <mxCell id="lBSA8WIBel6qRi3vPHOn-186" value="" style="curved=1;startArrow=none;endArrow=block;exitX=0.5;exitY=1;entryX=0.5;entryY=0;rounded=0;" parent="1" source="lBSA8WIBel6qRi3vPHOn-129" target="lBSA8WIBel6qRi3vPHOn-130" edge="1">
          <mxGeometry relative="1" as="geometry">
            <Array as="points" />
          </mxGeometry>
        </mxCell>
        <mxCell id="lBSA8WIBel6qRi3vPHOn-187" value="" style="curved=1;startArrow=none;endArrow=block;exitX=0.5;exitY=1;entryX=0.5;entryY=0;rounded=0;" parent="1" source="lBSA8WIBel6qRi3vPHOn-119" target="lBSA8WIBel6qRi3vPHOn-131" edge="1">
          <mxGeometry relative="1" as="geometry">
            <Array as="points" />
          </mxGeometry>
        </mxCell>
        <mxCell id="lBSA8WIBel6qRi3vPHOn-188" value="" style="curved=1;startArrow=none;endArrow=block;exitX=0.5;exitY=1;entryX=0.5;entryY=0;rounded=0;" parent="1" source="lBSA8WIBel6qRi3vPHOn-131" target="lBSA8WIBel6qRi3vPHOn-132" edge="1">
          <mxGeometry relative="1" as="geometry">
            <Array as="points" />
          </mxGeometry>
        </mxCell>
        <mxCell id="lBSA8WIBel6qRi3vPHOn-189" value="Yes" style="curved=1;startArrow=none;endArrow=block;exitX=0;exitY=0.8;entryX=0.5;entryY=0;rounded=0;" parent="1" source="lBSA8WIBel6qRi3vPHOn-132" target="lBSA8WIBel6qRi3vPHOn-133" edge="1">
          <mxGeometry relative="1" as="geometry">
            <Array as="points">
              <mxPoint x="1259" y="2069" />
            </Array>
          </mxGeometry>
        </mxCell>
        <mxCell id="lBSA8WIBel6qRi3vPHOn-190" value="No" style="curved=1;startArrow=none;endArrow=block;exitX=0.55;exitY=1;entryX=0.5;entryY=0;rounded=0;" parent="1" source="lBSA8WIBel6qRi3vPHOn-132" target="lBSA8WIBel6qRi3vPHOn-134" edge="1">
          <mxGeometry relative="1" as="geometry">
            <Array as="points">
              <mxPoint x="1569" y="2069" />
            </Array>
          </mxGeometry>
        </mxCell>
        <mxCell id="lBSA8WIBel6qRi3vPHOn-191" value="" style="curved=1;startArrow=none;endArrow=block;exitX=0.5;exitY=1;entryX=0;entryY=0.2;rounded=0;" parent="1" source="lBSA8WIBel6qRi3vPHOn-133" target="lBSA8WIBel6qRi3vPHOn-135" edge="1">
          <mxGeometry relative="1" as="geometry">
            <Array as="points">
              <mxPoint x="1259" y="2208" />
            </Array>
          </mxGeometry>
        </mxCell>
        <mxCell id="lBSA8WIBel6qRi3vPHOn-192" value="" style="curved=1;startArrow=none;endArrow=block;exitX=0.5;exitY=1;entryX=0.55;entryY=0;rounded=0;" parent="1" source="lBSA8WIBel6qRi3vPHOn-134" target="lBSA8WIBel6qRi3vPHOn-135" edge="1">
          <mxGeometry relative="1" as="geometry">
            <Array as="points">
              <mxPoint x="1569" y="2208" />
            </Array>
          </mxGeometry>
        </mxCell>
        <mxCell id="lBSA8WIBel6qRi3vPHOn-193" value="" style="curved=1;startArrow=none;endArrow=block;exitX=0.5;exitY=1;entryX=0.5;entryY=0;rounded=0;" parent="1" source="lBSA8WIBel6qRi3vPHOn-135" target="lBSA8WIBel6qRi3vPHOn-136" edge="1">
          <mxGeometry relative="1" as="geometry">
            <Array as="points" />
          </mxGeometry>
        </mxCell>
        <mxCell id="lBSA8WIBel6qRi3vPHOn-194" value="" style="curved=1;startArrow=none;endArrow=block;exitX=0.5;exitY=1;entryX=0.5;entryY=0;rounded=0;" parent="1" source="lBSA8WIBel6qRi3vPHOn-122" target="lBSA8WIBel6qRi3vPHOn-137" edge="1">
          <mxGeometry relative="1" as="geometry">
            <Array as="points" />
          </mxGeometry>
        </mxCell>
        <mxCell id="lBSA8WIBel6qRi3vPHOn-195" value="" style="curved=1;startArrow=none;endArrow=block;exitX=0.5;exitY=1;entryX=0.5;entryY=0;rounded=0;entryDx=0;entryDy=0;entryPerimeter=0;" parent="1" source="lBSA8WIBel6qRi3vPHOn-137" target="lBSA8WIBel6qRi3vPHOn-248" edge="1">
          <mxGeometry relative="1" as="geometry">
            <Array as="points" />
          </mxGeometry>
        </mxCell>
        <mxCell id="lBSA8WIBel6qRi3vPHOn-199" value="" style="curved=1;startArrow=none;endArrow=block;exitX=0.5;exitY=1;entryX=0.54;entryY=0;rounded=0;" parent="1" source="lBSA8WIBel6qRi3vPHOn-140" target="lBSA8WIBel6qRi3vPHOn-141" edge="1">
          <mxGeometry relative="1" as="geometry">
            <Array as="points">
              <mxPoint x="2442" y="2208" />
            </Array>
          </mxGeometry>
        </mxCell>
        <mxCell id="lBSA8WIBel6qRi3vPHOn-200" value="" style="curved=1;startArrow=none;endArrow=block;exitX=0.5;exitY=1;entryX=0.5;entryY=0;rounded=0;" parent="1" source="lBSA8WIBel6qRi3vPHOn-141" target="lBSA8WIBel6qRi3vPHOn-142" edge="1">
          <mxGeometry relative="1" as="geometry">
            <Array as="points" />
          </mxGeometry>
        </mxCell>
        <mxCell id="lBSA8WIBel6qRi3vPHOn-201" value="" style="curved=1;startArrow=none;endArrow=block;exitX=0.5;exitY=1;entryX=0.5;entryY=0;rounded=0;" parent="1" source="lBSA8WIBel6qRi3vPHOn-143" target="lBSA8WIBel6qRi3vPHOn-144" edge="1">
          <mxGeometry relative="1" as="geometry">
            <Array as="points" />
          </mxGeometry>
        </mxCell>
        <mxCell id="lBSA8WIBel6qRi3vPHOn-202" value="Yes" style="curved=1;startArrow=none;endArrow=block;exitX=0.07;exitY=1;entryX=0.5;entryY=0;rounded=0;" parent="1" source="lBSA8WIBel6qRi3vPHOn-144" target="lBSA8WIBel6qRi3vPHOn-145" edge="1">
          <mxGeometry relative="1" as="geometry">
            <Array as="points">
              <mxPoint x="2797" y="2069" />
            </Array>
          </mxGeometry>
        </mxCell>
        <mxCell id="lBSA8WIBel6qRi3vPHOn-203" value="No" style="curved=1;startArrow=none;endArrow=block;exitX=0.54;exitY=1;entryX=0.29;entryY=0;rounded=0;" parent="1" source="lBSA8WIBel6qRi3vPHOn-144" target="lBSA8WIBel6qRi3vPHOn-146" edge="1">
          <mxGeometry relative="1" as="geometry">
            <Array as="points">
              <mxPoint x="2961" y="2069" />
            </Array>
          </mxGeometry>
        </mxCell>
        <mxCell id="lBSA8WIBel6qRi3vPHOn-204" value="" style="curved=1;startArrow=none;endArrow=block;exitX=0.5;exitY=1;entryX=0.5;entryY=0;rounded=0;" parent="1" source="lBSA8WIBel6qRi3vPHOn-145" target="lBSA8WIBel6qRi3vPHOn-147" edge="1">
          <mxGeometry relative="1" as="geometry">
            <Array as="points" />
          </mxGeometry>
        </mxCell>
        <mxCell id="lBSA8WIBel6qRi3vPHOn-205" value="" style="curved=1;startArrow=none;endArrow=block;exitX=0.6;exitY=0;entryX=1;entryY=0.96;rounded=0;" parent="1" source="lBSA8WIBel6qRi3vPHOn-146" target="lBSA8WIBel6qRi3vPHOn-144" edge="1">
          <mxGeometry relative="1" as="geometry">
            <Array as="points">
              <mxPoint x="3137" y="2069" />
            </Array>
          </mxGeometry>
        </mxCell>
        <mxCell id="lBSA8WIBel6qRi3vPHOn-206" value="" style="curved=1;startArrow=none;endArrow=block;exitX=0.5;exitY=1;entryX=0.5;entryY=0;rounded=0;" parent="1" source="lBSA8WIBel6qRi3vPHOn-147" target="lBSA8WIBel6qRi3vPHOn-148" edge="1">
          <mxGeometry relative="1" as="geometry">
            <Array as="points" />
          </mxGeometry>
        </mxCell>
        <mxCell id="lBSA8WIBel6qRi3vPHOn-207" value="" style="curved=1;startArrow=none;endArrow=block;exitX=0.5;exitY=1;entryX=0;entryY=0.4;rounded=0;" parent="1" source="lBSA8WIBel6qRi3vPHOn-130" target="lBSA8WIBel6qRi3vPHOn-149" edge="1">
          <mxGeometry relative="1" as="geometry">
            <Array as="points">
              <mxPoint x="698" y="2490" />
            </Array>
          </mxGeometry>
        </mxCell>
        <mxCell id="lBSA8WIBel6qRi3vPHOn-208" value="" style="curved=1;startArrow=none;endArrow=block;exitX=0.5;exitY=1;entryX=0;entryY=0.12;rounded=0;" parent="1" source="lBSA8WIBel6qRi3vPHOn-136" target="lBSA8WIBel6qRi3vPHOn-149" edge="1">
          <mxGeometry relative="1" as="geometry">
            <Array as="points">
              <mxPoint x="1553" y="2490" />
            </Array>
          </mxGeometry>
        </mxCell>
        <mxCell id="lBSA8WIBel6qRi3vPHOn-209" value="" style="curved=1;startArrow=none;endArrow=block;exitX=0.5;exitY=1;entryX=1;entryY=0.31;rounded=0;" parent="1" source="lBSA8WIBel6qRi3vPHOn-142" target="lBSA8WIBel6qRi3vPHOn-149" edge="1">
          <mxGeometry relative="1" as="geometry">
            <Array as="points">
              <mxPoint x="2425" y="2490" />
            </Array>
          </mxGeometry>
        </mxCell>
        <mxCell id="lBSA8WIBel6qRi3vPHOn-210" value="" style="curved=1;startArrow=none;endArrow=block;exitX=0.5;exitY=1;entryX=1;entryY=0.39;rounded=0;" parent="1" source="lBSA8WIBel6qRi3vPHOn-148" target="lBSA8WIBel6qRi3vPHOn-149" edge="1">
          <mxGeometry relative="1" as="geometry">
            <Array as="points">
              <mxPoint x="2797" y="2490" />
            </Array>
          </mxGeometry>
        </mxCell>
        <mxCell id="lBSA8WIBel6qRi3vPHOn-211" value="" style="curved=1;startArrow=none;endArrow=block;exitX=0.07;exitY=1;entryX=0.5;entryY=0;rounded=0;" parent="1" source="lBSA8WIBel6qRi3vPHOn-149" target="lBSA8WIBel6qRi3vPHOn-150" edge="1">
          <mxGeometry relative="1" as="geometry">
            <Array as="points">
              <mxPoint x="1884.5" y="2684" />
            </Array>
          </mxGeometry>
        </mxCell>
        <mxCell id="lBSA8WIBel6qRi3vPHOn-212" value="Yes" style="curved=1;startArrow=none;endArrow=block;exitX=0.84;exitY=1;entryX=0.5;entryY=0;rounded=0;" parent="1" source="lBSA8WIBel6qRi3vPHOn-150" target="lBSA8WIBel6qRi3vPHOn-151" edge="1">
          <mxGeometry relative="1" as="geometry">
            <Array as="points">
              <mxPoint x="2002.5" y="3024" />
            </Array>
          </mxGeometry>
        </mxCell>
        <mxCell id="lBSA8WIBel6qRi3vPHOn-213" value="No" style="curved=1;startArrow=none;endArrow=block;exitX=0;exitY=0.59;entryX=0;entryY=0.39;rounded=0;" parent="1" source="lBSA8WIBel6qRi3vPHOn-150" target="lBSA8WIBel6qRi3vPHOn-152" edge="1">
          <mxGeometry relative="1" as="geometry">
            <Array as="points">
              <mxPoint x="1563.5" y="2848" />
              <mxPoint x="1433.5" y="3190" />
            </Array>
          </mxGeometry>
        </mxCell>
        <mxCell id="lBSA8WIBel6qRi3vPHOn-214" value="" style="curved=1;startArrow=none;endArrow=block;exitX=0.5;exitY=1;entryX=0.78;entryY=0;rounded=0;" parent="1" source="lBSA8WIBel6qRi3vPHOn-151" target="lBSA8WIBel6qRi3vPHOn-152" edge="1">
          <mxGeometry relative="1" as="geometry">
            <Array as="points">
              <mxPoint x="2002.5" y="3163" />
            </Array>
          </mxGeometry>
        </mxCell>
        <mxCell id="lBSA8WIBel6qRi3vPHOn-215" value="" style="curved=1;startArrow=none;endArrow=block;exitX=0.5;exitY=1;entryX=0.5;entryY=0;rounded=0;" parent="1" source="lBSA8WIBel6qRi3vPHOn-152" target="lBSA8WIBel6qRi3vPHOn-153" edge="1">
          <mxGeometry relative="1" as="geometry">
            <Array as="points" />
          </mxGeometry>
        </mxCell>
        <mxCell id="lBSA8WIBel6qRi3vPHOn-216" value="" style="curved=1;startArrow=none;endArrow=block;exitX=0.5;exitY=1;entryX=0.5;entryY=0;rounded=0;" parent="1" source="lBSA8WIBel6qRi3vPHOn-153" target="lBSA8WIBel6qRi3vPHOn-154" edge="1">
          <mxGeometry relative="1" as="geometry">
            <Array as="points" />
          </mxGeometry>
        </mxCell>
        <mxCell id="lBSA8WIBel6qRi3vPHOn-217" value="" style="curved=1;startArrow=none;endArrow=block;exitX=0.5;exitY=1;entryX=0.5;entryY=0;rounded=0;" parent="1" source="lBSA8WIBel6qRi3vPHOn-154" target="lBSA8WIBel6qRi3vPHOn-155" edge="1">
          <mxGeometry relative="1" as="geometry">
            <Array as="points" />
          </mxGeometry>
        </mxCell>
        <mxCell id="lBSA8WIBel6qRi3vPHOn-218" value="Yes" style="curved=1;startArrow=none;endArrow=block;exitX=0.42;exitY=1;entryX=0.5;entryY=-0.01;rounded=0;" parent="1" source="lBSA8WIBel6qRi3vPHOn-155" target="lBSA8WIBel6qRi3vPHOn-156" edge="1">
          <mxGeometry relative="1" as="geometry">
            <Array as="points">
              <mxPoint x="1861.5" y="3862" />
            </Array>
          </mxGeometry>
        </mxCell>
        <mxCell id="lBSA8WIBel6qRi3vPHOn-219" value="No" style="curved=1;startArrow=none;endArrow=block;exitX=0.97;exitY=1;entryX=0.29;entryY=-0.01;rounded=0;" parent="1" source="lBSA8WIBel6qRi3vPHOn-155" target="lBSA8WIBel6qRi3vPHOn-157" edge="1">
          <mxGeometry relative="1" as="geometry">
            <Array as="points">
              <mxPoint x="2025.5" y="3862" />
            </Array>
          </mxGeometry>
        </mxCell>
        <mxCell id="lBSA8WIBel6qRi3vPHOn-220" value="" style="curved=1;startArrow=none;endArrow=block;exitX=0.5;exitY=0.99;entryX=0.01;entryY=-0.01;rounded=0;" parent="1" source="lBSA8WIBel6qRi3vPHOn-156" target="lBSA8WIBel6qRi3vPHOn-158" edge="1">
          <mxGeometry relative="1" as="geometry">
            <Array as="points">
              <mxPoint x="1861.5" y="4002" />
            </Array>
          </mxGeometry>
        </mxCell>
        <mxCell id="lBSA8WIBel6qRi3vPHOn-221" value="" style="curved=1;startArrow=none;endArrow=block;exitX=0.6;exitY=-0.01;entryX=0.8;entryY=1;rounded=0;" parent="1" source="lBSA8WIBel6qRi3vPHOn-157" target="lBSA8WIBel6qRi3vPHOn-149" edge="1">
          <mxGeometry relative="1" as="geometry">
            <Array as="points">
              <mxPoint x="2203.5" y="3862" />
              <mxPoint x="2203.5" y="2684" />
            </Array>
          </mxGeometry>
        </mxCell>
        <mxCell id="lBSA8WIBel6qRi3vPHOn-222" value="" style="curved=1;startArrow=none;endArrow=block;exitX=1;exitY=-0.01;entryX=0.98;entryY=1;rounded=0;" parent="1" source="lBSA8WIBel6qRi3vPHOn-158" target="lBSA8WIBel6qRi3vPHOn-149" edge="1">
          <mxGeometry relative="1" as="geometry">
            <Array as="points">
              <mxPoint x="2282.5" y="4002" />
              <mxPoint x="2282.5" y="2684" />
            </Array>
          </mxGeometry>
        </mxCell>
        <mxCell id="lBSA8WIBel6qRi3vPHOn-223" value="Field Incident Detection&lt;br&gt;Policy" style="strokeWidth=2;html=1;shape=mxgraph.flowchart.decision;whiteSpace=wrap;" parent="1" vertex="1">
          <mxGeometry x="1821.5" y="170" width="100" height="110" as="geometry" />
        </mxCell>
        <mxCell id="lBSA8WIBel6qRi3vPHOn-225" value="" style="endArrow=classic;html=1;rounded=0;exitX=1;exitY=0.5;exitDx=0;exitDy=0;exitPerimeter=0;entryX=0.5;entryY=0;entryDx=0;entryDy=0;" parent="1" source="lBSA8WIBel6qRi3vPHOn-223" target="lBSA8WIBel6qRi3vPHOn-107" edge="1">
          <mxGeometry relative="1" as="geometry">
            <mxPoint x="1950" y="290" as="sourcePoint" />
            <mxPoint x="2110" y="290" as="targetPoint" />
            <Array as="points">
              <mxPoint x="2045" y="225" />
            </Array>
          </mxGeometry>
        </mxCell>
        <mxCell id="lBSA8WIBel6qRi3vPHOn-227" value="No" style="edgeLabel;resizable=0;html=1;;align=left;verticalAlign=bottom;" parent="lBSA8WIBel6qRi3vPHOn-225" connectable="0" vertex="1">
          <mxGeometry x="-1" relative="1" as="geometry" />
        </mxCell>
        <mxCell id="lBSA8WIBel6qRi3vPHOn-228" value="" style="endArrow=classic;html=1;rounded=0;exitX=0.5;exitY=1;exitDx=0;exitDy=0;exitPerimeter=0;" parent="1" source="lBSA8WIBel6qRi3vPHOn-223" target="lBSA8WIBel6qRi3vPHOn-106" edge="1">
          <mxGeometry relative="1" as="geometry">
            <mxPoint x="1872" y="282" as="sourcePoint" />
            <mxPoint x="1872" y="412" as="targetPoint" />
          </mxGeometry>
        </mxCell>
        <mxCell id="lBSA8WIBel6qRi3vPHOn-230" value="Yes" style="edgeLabel;resizable=0;html=1;;align=left;verticalAlign=bottom;" parent="lBSA8WIBel6qRi3vPHOn-228" connectable="0" vertex="1">
          <mxGeometry x="-1" relative="1" as="geometry">
            <mxPoint x="-32" y="10" as="offset" />
          </mxGeometry>
        </mxCell>
        <mxCell id="lBSA8WIBel6qRi3vPHOn-232" value="&lt;br&gt;&lt;span style=&quot;color: rgb(0, 0, 0); font-family: Helvetica; font-size: 12px; font-style: normal; font-variant-ligatures: normal; font-variant-caps: normal; font-weight: 400; letter-spacing: normal; orphans: 2; text-align: center; text-indent: 0px; text-transform: none; widows: 2; word-spacing: 0px; -webkit-text-stroke-width: 0px; white-space: normal; background-color: rgb(236, 236, 236); text-decoration-thickness: initial; text-decoration-style: initial; text-decoration-color: initial; float: none; display: inline !important;&quot;&gt;Field Reports Wildfire&lt;/span&gt;" style="verticalLabelPosition=middle;verticalAlign=top;html=1;shape=process;whiteSpace=wrap;rounded=1;size=0.13;arcSize=8;" parent="1" vertex="1">
          <mxGeometry x="1812.5" y="50" width="117" height="60" as="geometry" />
        </mxCell>
        <mxCell id="lBSA8WIBel6qRi3vPHOn-234" value="" style="endArrow=classic;html=1;rounded=0;exitX=0.5;exitY=1;exitDx=0;exitDy=0;" parent="1" source="lBSA8WIBel6qRi3vPHOn-106" target="lBSA8WIBel6qRi3vPHOn-108" edge="1">
          <mxGeometry width="50" height="50" relative="1" as="geometry">
            <mxPoint x="1650" y="520" as="sourcePoint" />
            <mxPoint x="1700" y="470" as="targetPoint" />
          </mxGeometry>
        </mxCell>
        <mxCell id="lBSA8WIBel6qRi3vPHOn-235" value="" style="shape=image;imageAspect=0;aspect=fixed;verticalLabelPosition=bottom;verticalAlign=top;image=data:image/svg+xml,PHN2ZyB4bWxucz0iaHR0cDovL3d3dy53My5vcmcvMjAwMC9zdmciIHdpZHRoPSIwLjk5OTk3MjE4NDQ5OTEwNDkiIHZpZXdCb3g9IjAuMDAwODMzODY4OTgwNDA3NzE0OCAwLjk5OTkxNzE0OTU0Mzc2MjIgMjMuOTk5MzMyNDI3OTc4NTE2IDIyLjAwMDE2NDAzMTk4MjQyMiIgc3R5bGU9ImZsZXg6bm9uZTtsaW5lLWhlaWdodDoxIiBoZWlnaHQ9IjAuOTE2NjczNTAxMzMyNjAxIj48dGl0bGU+Q29waWxvdDwvdGl0bGU+PGRlZnM+PHJhZGlhbEdyYWRpZW50IHI9IjEwNS4xMTYlIiBpZD0ibG9iZS1pY29ucy1jb3BpbG90LWZpbGwtMCIgZ3JhZGllbnRUcmFuc2Zvcm09InNjYWxlKC0uODU1MyAtMSkgcm90YXRlKDUwLjkyNyAyLjA0MSAtMS45NDYpIiBmeT0iMTAwLjY1MyUiIGZ4PSI4NS40NCUiIGN5PSIxMDAuNjUzJSIgY3g9Ijg1LjQ0JSI+PHN0b3Agc3RvcC1jb2xvcj0iIzAwQUVGRiIgb2Zmc2V0PSI5LjYlIi8+PHN0b3Agc3RvcC1jb2xvcj0iIzIyNTNDRSIgb2Zmc2V0PSI3Ny4zJSIvPjxzdG9wIHN0b3AtY29sb3I9IiMwNzM2QzQiIG9mZnNldD0iMTAwJSIvPjwvcmFkaWFsR3JhZGllbnQ+PHJhZGlhbEdyYWRpZW50IHI9Ijk1LjYxMiUiIGlkPSJsb2JlLWljb25zLWNvcGlsb3QtZmlsbC0xIiBncmFkaWVudFRyYW5zZm9ybT0ic2NhbGUoLjg4OTcgMSkgcm90YXRlKDUyLjA2OSAuMTkzIC4zNTIpIiBmeT0iMzIuOTI4JSIgZng9IjE4LjE0MyUiIGN5PSIzMi45MjglIiBjeD0iMTguMTQzJSI+PHN0b3Agc3RvcC1jb2xvcj0iI0ZGQjY1NyIgb2Zmc2V0PSIwJSIvPjxzdG9wIHN0b3AtY29sb3I9IiNGRjVGM0QiIG9mZnNldD0iNjMuNCUiLz48c3RvcCBzdG9wLWNvbG9yPSIjQzAyQjNDIiBvZmZzZXQ9IjkyLjMlIi8+PC9yYWRpYWxHcmFkaWVudD48cmFkaWFsR3JhZGllbnQgcj0iMTQwLjYyMiUiIGlkPSJsb2JlLWljb25zLWNvcGlsb3QtZmlsbC00IiBncmFkaWVudFRyYW5zZm9ybT0ic2NhbGUoLTEgLS45NDQxKSByb3RhdGUoLTcwLjg3MiAuMTQyIDEuMTcpIiBmeT0iLTkuNzkyJSIgZng9IjgyLjk4NyUiIGN5PSItOS43OTIlIiBjeD0iODIuOTg3JSI+PHN0b3Agc3RvcC1jb2xvcj0iIzhDNDhGRiIgb2Zmc2V0PSI2LjYlIi8+PHN0b3Agc3RvcC1jb2xvcj0iI0YyNTk4QSIgb2Zmc2V0PSI1MCUiLz48c3RvcCBzdG9wLWNvbG9yPSIjRkZCMTUyIiBvZmZzZXQ9Ijg5LjYlIi8+PC9yYWRpYWxHcmFkaWVudD48bGluZWFyR3JhZGllbnQgeTI9IjEwMy43NzQlIiB5MT0iMTIuMTE3JSIgeDI9IjQ2Ljg4NCUiIHgxPSIzOS40NjUlIiBpZD0ibG9iZS1pY29ucy1jb3BpbG90LWZpbGwtMiI+PHN0b3Agc3RvcC1jb2xvcj0iIzBEOTFFMSIgb2Zmc2V0PSIxNS42JSIvPjxzdG9wIHN0b3AtY29sb3I9IiM1MkI0NzEiIG9mZnNldD0iNDguNyUiLz48c3RvcCBzdG9wLWNvbG9yPSIjOThCRDQyIiBvZmZzZXQ9IjY1LjIlIi8+PHN0b3Agc3RvcC1jb2xvcj0iI0ZGQzgwMCIgb2Zmc2V0PSI5My43JSIvPjwvbGluZWFyR3JhZGllbnQ+PGxpbmVhckdyYWRpZW50IHkyPSIxMDAlIiB5MT0iMCUiIHgyPSI1MCUiIHgxPSI0NS45NDklIiBpZD0ibG9iZS1pY29ucy1jb3BpbG90LWZpbGwtMyI+PHN0b3Agc3RvcC1jb2xvcj0iIzNEQ0JGRiIgb2Zmc2V0PSIwJSIvPjxzdG9wIHN0b3Atb3BhY2l0eT0iMCIgc3RvcC1jb2xvcj0iIzA1ODhGNyIgb2Zmc2V0PSIyNC43JSIvPjwvbGluZWFyR3JhZGllbnQ+PGxpbmVhckdyYWRpZW50IHkyPSIyMS4xMzElIiB5MT0iLTYuMTA2JSIgeDI9IjgzLjQ1MyUiIHgxPSI4My41MDclIiBpZD0ibG9iZS1pY29ucy1jb3BpbG90LWZpbGwtNSI+PHN0b3Agc3RvcC1jb2xvcj0iI0Y4QURGQSIgb2Zmc2V0PSI1LjglIi8+PHN0b3Agc3RvcC1vcGFjaXR5PSIwIiBzdG9wLWNvbG9yPSIjQTg2RUREIiBvZmZzZXQ9IjcwLjglIi8+PC9saW5lYXJHcmFkaWVudD48L2RlZnM+PGcgZmlsbC1ydWxlPSJub256ZXJvIiBmaWxsPSJub25lIj48cGF0aCB0cmFuc2Zvcm09InRyYW5zbGF0ZSgwIDEpIiBmaWxsPSJ1cmwoI2xvYmUtaWNvbnMtY29waWxvdC1maWxsLTApIiBkPSJNMTcuNTMzIDEuODI5QTIuNTI4IDIuNTI4IDAgMDAxNS4xMSAwaC0uNzM3YTIuNTMxIDIuNTMxIDAgMDAtMi40ODQgMi4wODdsLTEuMjYzIDYuOTM3LjMxNC0xLjA4YTIuNTI4IDIuNTI4IDAgMDEyLjQyNC0xLjgzM2g0LjI4NGwxLjc5Ny43MDYgMS43MzEtLjcwNmgtLjUwNWEyLjUyOCAyLjUyOCAwIDAxLTIuNDIzLTEuODI5bC0uNzE1LTIuNDUzeiIvPjxwYXRoIHRyYW5zZm9ybT0idHJhbnNsYXRlKDAgMSkiIGZpbGw9InVybCgjbG9iZS1pY29ucy1jb3BpbG90LWZpbGwtMSkiIGQ9Ik02LjcyNiAyMC4xNkEyLjUyOCAyLjUyOCAwIDAwOS4xNTIgMjJoMS41NjZjMS4zNyAwIDIuNDktMS4xIDIuNTI1LTIuNDhsLjE3LTYuNjktLjM1NyAxLjIyOGEyLjUyOCAyLjUyOCAwIDAxLTIuNDIzIDEuODNoLTQuMzJsLTEuNTQtLjg0Mi0xLjY2Ny44NDNoLjQ5N2MxLjEyNCAwIDIuMTEzLjc1IDIuNDI2IDEuODRsLjY5NyAyLjQzMnoiLz48cGF0aCB0cmFuc2Zvcm09InRyYW5zbGF0ZSgwIDEpIiBmaWxsPSJ1cmwoI2xvYmUtaWNvbnMtY29waWxvdC1maWxsLTIpIiBkPSJNMTUgMEg2LjI1MmMtMi41IDAtNCAzLjMzMS01IDYuNjYyLTEuMTg0IDMuOTQ3LTIuNzM0IDkuMjI1IDEuNzUgOS4yMjVINi43OGMxLjEzIDAgMi4xMi0uNzUzIDIuNDMtMS44NDcuNjU3LTIuMzE3IDEuODA5LTYuMzU5IDIuNzEzLTkuNDM2LjQ2LTEuNTYzLjg0Mi0yLjkwNiAxLjQzLTMuNzQyQTEuOTcgMS45NyAwIDAxMTUgMCIvPjxwYXRoIHRyYW5zZm9ybT0idHJhbnNsYXRlKDAgMSkiIGZpbGw9InVybCgjbG9iZS1pY29ucy1jb3BpbG90LWZpbGwtMykiIGQ9Ik0xNSAwSDYuMjUyYy0yLjUgMC00IDMuMzMxLTUgNi42NjItMS4xODQgMy45NDctMi43MzQgOS4yMjUgMS43NSA5LjIyNUg2Ljc4YzEuMTMgMCAyLjEyLS43NTMgMi40My0xLjg0Ny42NTctMi4zMTcgMS44MDktNi4zNTkgMi43MTMtOS40MzYuNDYtMS41NjMuODQyLTIuOTA2IDEuNDMtMy43NDJBMS45NyAxLjk3IDAgMDExNSAwIi8+PHBhdGggdHJhbnNmb3JtPSJ0cmFuc2xhdGUoMCAxKSIgZmlsbD0idXJsKCNsb2JlLWljb25zLWNvcGlsb3QtZmlsbC00KSIgZD0iTTkgMjJoOC43NDljMi41IDAgNC0zLjMzMiA1LTYuNjYzIDEuMTg0LTMuOTQ4IDIuNzM0LTkuMjI3LTEuNzUtOS4yMjdIMTcuMjJjLTEuMTI5IDAtMi4xMi43NTQtMi40MyAxLjg0OGExMTQ5LjIgMTE0OS4yIDAgMDEtMi43MTMgOS40MzdjLS40NiAxLjU2NC0uODQyIDIuOTA3LTEuNDMgMy43NDNBMS45NyAxLjk3IDAgMDE5IDIyIi8+PHBhdGggdHJhbnNmb3JtPSJ0cmFuc2xhdGUoMCAxKSIgZmlsbD0idXJsKCNsb2JlLWljb25zLWNvcGlsb3QtZmlsbC01KSIgZD0iTTkgMjJoOC43NDljMi41IDAgNC0zLjMzMiA1LTYuNjYzIDEuMTg0LTMuOTQ4IDIuNzM0LTkuMjI3LTEuNzUtOS4yMjdIMTcuMjJjLTEuMTI5IDAtMi4xMi43NTQtMi40MyAxLjg0OGExMTQ5LjIgMTE0OS4yIDAgMDEtMi43MTMgOS40MzdjLS40NiAxLjU2NC0uODQyIDIuOTA3LTEuNDMgMy43NDNBMS45NyAxLjk3IDAgMDE5IDIyIi8+PC9nPjwvc3ZnPg==;" parent="1" vertex="1">
          <mxGeometry x="1755" y="630" width="20" height="20" as="geometry" />
        </mxCell>
        <mxCell id="lBSA8WIBel6qRi3vPHOn-236" value="" style="shape=image;imageAspect=0;aspect=fixed;verticalLabelPosition=bottom;verticalAlign=top;image=data:image/svg+xml,PHN2ZyB4bWxucz0iaHR0cDovL3d3dy53My5vcmcvMjAwMC9zdmciIHdpZHRoPSIwLjk5OTk3MjE4NDQ5OTEwNDkiIHZpZXdCb3g9IjAuMDAwODMzODY4OTgwNDA3NzE0OCAwLjk5OTkxNzE0OTU0Mzc2MjIgMjMuOTk5MzMyNDI3OTc4NTE2IDIyLjAwMDE2NDAzMTk4MjQyMiIgc3R5bGU9ImZsZXg6bm9uZTtsaW5lLWhlaWdodDoxIiBoZWlnaHQ9IjAuOTE2NjczNTAxMzMyNjAxIj48dGl0bGU+Q29waWxvdDwvdGl0bGU+PGRlZnM+PHJhZGlhbEdyYWRpZW50IHI9IjEwNS4xMTYlIiBpZD0ibG9iZS1pY29ucy1jb3BpbG90LWZpbGwtMCIgZ3JhZGllbnRUcmFuc2Zvcm09InNjYWxlKC0uODU1MyAtMSkgcm90YXRlKDUwLjkyNyAyLjA0MSAtMS45NDYpIiBmeT0iMTAwLjY1MyUiIGZ4PSI4NS40NCUiIGN5PSIxMDAuNjUzJSIgY3g9Ijg1LjQ0JSI+PHN0b3Agc3RvcC1jb2xvcj0iIzAwQUVGRiIgb2Zmc2V0PSI5LjYlIi8+PHN0b3Agc3RvcC1jb2xvcj0iIzIyNTNDRSIgb2Zmc2V0PSI3Ny4zJSIvPjxzdG9wIHN0b3AtY29sb3I9IiMwNzM2QzQiIG9mZnNldD0iMTAwJSIvPjwvcmFkaWFsR3JhZGllbnQ+PHJhZGlhbEdyYWRpZW50IHI9Ijk1LjYxMiUiIGlkPSJsb2JlLWljb25zLWNvcGlsb3QtZmlsbC0xIiBncmFkaWVudFRyYW5zZm9ybT0ic2NhbGUoLjg4OTcgMSkgcm90YXRlKDUyLjA2OSAuMTkzIC4zNTIpIiBmeT0iMzIuOTI4JSIgZng9IjE4LjE0MyUiIGN5PSIzMi45MjglIiBjeD0iMTguMTQzJSI+PHN0b3Agc3RvcC1jb2xvcj0iI0ZGQjY1NyIgb2Zmc2V0PSIwJSIvPjxzdG9wIHN0b3AtY29sb3I9IiNGRjVGM0QiIG9mZnNldD0iNjMuNCUiLz48c3RvcCBzdG9wLWNvbG9yPSIjQzAyQjNDIiBvZmZzZXQ9IjkyLjMlIi8+PC9yYWRpYWxHcmFkaWVudD48cmFkaWFsR3JhZGllbnQgcj0iMTQwLjYyMiUiIGlkPSJsb2JlLWljb25zLWNvcGlsb3QtZmlsbC00IiBncmFkaWVudFRyYW5zZm9ybT0ic2NhbGUoLTEgLS45NDQxKSByb3RhdGUoLTcwLjg3MiAuMTQyIDEuMTcpIiBmeT0iLTkuNzkyJSIgZng9IjgyLjk4NyUiIGN5PSItOS43OTIlIiBjeD0iODIuOTg3JSI+PHN0b3Agc3RvcC1jb2xvcj0iIzhDNDhGRiIgb2Zmc2V0PSI2LjYlIi8+PHN0b3Agc3RvcC1jb2xvcj0iI0YyNTk4QSIgb2Zmc2V0PSI1MCUiLz48c3RvcCBzdG9wLWNvbG9yPSIjRkZCMTUyIiBvZmZzZXQ9Ijg5LjYlIi8+PC9yYWRpYWxHcmFkaWVudD48bGluZWFyR3JhZGllbnQgeTI9IjEwMy43NzQlIiB5MT0iMTIuMTE3JSIgeDI9IjQ2Ljg4NCUiIHgxPSIzOS40NjUlIiBpZD0ibG9iZS1pY29ucy1jb3BpbG90LWZpbGwtMiI+PHN0b3Agc3RvcC1jb2xvcj0iIzBEOTFFMSIgb2Zmc2V0PSIxNS42JSIvPjxzdG9wIHN0b3AtY29sb3I9IiM1MkI0NzEiIG9mZnNldD0iNDguNyUiLz48c3RvcCBzdG9wLWNvbG9yPSIjOThCRDQyIiBvZmZzZXQ9IjY1LjIlIi8+PHN0b3Agc3RvcC1jb2xvcj0iI0ZGQzgwMCIgb2Zmc2V0PSI5My43JSIvPjwvbGluZWFyR3JhZGllbnQ+PGxpbmVhckdyYWRpZW50IHkyPSIxMDAlIiB5MT0iMCUiIHgyPSI1MCUiIHgxPSI0NS45NDklIiBpZD0ibG9iZS1pY29ucy1jb3BpbG90LWZpbGwtMyI+PHN0b3Agc3RvcC1jb2xvcj0iIzNEQ0JGRiIgb2Zmc2V0PSIwJSIvPjxzdG9wIHN0b3Atb3BhY2l0eT0iMCIgc3RvcC1jb2xvcj0iIzA1ODhGNyIgb2Zmc2V0PSIyNC43JSIvPjwvbGluZWFyR3JhZGllbnQ+PGxpbmVhckdyYWRpZW50IHkyPSIyMS4xMzElIiB5MT0iLTYuMTA2JSIgeDI9IjgzLjQ1MyUiIHgxPSI4My41MDclIiBpZD0ibG9iZS1pY29ucy1jb3BpbG90LWZpbGwtNSI+PHN0b3Agc3RvcC1jb2xvcj0iI0Y4QURGQSIgb2Zmc2V0PSI1LjglIi8+PHN0b3Agc3RvcC1vcGFjaXR5PSIwIiBzdG9wLWNvbG9yPSIjQTg2RUREIiBvZmZzZXQ9IjcwLjglIi8+PC9saW5lYXJHcmFkaWVudD48L2RlZnM+PGcgZmlsbC1ydWxlPSJub256ZXJvIiBmaWxsPSJub25lIj48cGF0aCB0cmFuc2Zvcm09InRyYW5zbGF0ZSgwIDEpIiBmaWxsPSJ1cmwoI2xvYmUtaWNvbnMtY29waWxvdC1maWxsLTApIiBkPSJNMTcuNTMzIDEuODI5QTIuNTI4IDIuNTI4IDAgMDAxNS4xMSAwaC0uNzM3YTIuNTMxIDIuNTMxIDAgMDAtMi40ODQgMi4wODdsLTEuMjYzIDYuOTM3LjMxNC0xLjA4YTIuNTI4IDIuNTI4IDAgMDEyLjQyNC0xLjgzM2g0LjI4NGwxLjc5Ny43MDYgMS43MzEtLjcwNmgtLjUwNWEyLjUyOCAyLjUyOCAwIDAxLTIuNDIzLTEuODI5bC0uNzE1LTIuNDUzeiIvPjxwYXRoIHRyYW5zZm9ybT0idHJhbnNsYXRlKDAgMSkiIGZpbGw9InVybCgjbG9iZS1pY29ucy1jb3BpbG90LWZpbGwtMSkiIGQ9Ik02LjcyNiAyMC4xNkEyLjUyOCAyLjUyOCAwIDAwOS4xNTIgMjJoMS41NjZjMS4zNyAwIDIuNDktMS4xIDIuNTI1LTIuNDhsLjE3LTYuNjktLjM1NyAxLjIyOGEyLjUyOCAyLjUyOCAwIDAxLTIuNDIzIDEuODNoLTQuMzJsLTEuNTQtLjg0Mi0xLjY2Ny44NDNoLjQ5N2MxLjEyNCAwIDIuMTEzLjc1IDIuNDI2IDEuODRsLjY5NyAyLjQzMnoiLz48cGF0aCB0cmFuc2Zvcm09InRyYW5zbGF0ZSgwIDEpIiBmaWxsPSJ1cmwoI2xvYmUtaWNvbnMtY29waWxvdC1maWxsLTIpIiBkPSJNMTUgMEg2LjI1MmMtMi41IDAtNCAzLjMzMS01IDYuNjYyLTEuMTg0IDMuOTQ3LTIuNzM0IDkuMjI1IDEuNzUgOS4yMjVINi43OGMxLjEzIDAgMi4xMi0uNzUzIDIuNDMtMS44NDcuNjU3LTIuMzE3IDEuODA5LTYuMzU5IDIuNzEzLTkuNDM2LjQ2LTEuNTYzLjg0Mi0yLjkwNiAxLjQzLTMuNzQyQTEuOTcgMS45NyAwIDAxMTUgMCIvPjxwYXRoIHRyYW5zZm9ybT0idHJhbnNsYXRlKDAgMSkiIGZpbGw9InVybCgjbG9iZS1pY29ucy1jb3BpbG90LWZpbGwtMykiIGQ9Ik0xNSAwSDYuMjUyYy0yLjUgMC00IDMuMzMxLTUgNi42NjItMS4xODQgMy45NDctMi43MzQgOS4yMjUgMS43NSA5LjIyNUg2Ljc4YzEuMTMgMCAyLjEyLS43NTMgMi40My0xLjg0Ny42NTctMi4zMTcgMS44MDktNi4zNTkgMi43MTMtOS40MzYuNDYtMS41NjMuODQyLTIuOTA2IDEuNDMtMy43NDJBMS45NyAxLjk3IDAgMDExNSAwIi8+PHBhdGggdHJhbnNmb3JtPSJ0cmFuc2xhdGUoMCAxKSIgZmlsbD0idXJsKCNsb2JlLWljb25zLWNvcGlsb3QtZmlsbC00KSIgZD0iTTkgMjJoOC43NDljMi41IDAgNC0zLjMzMiA1LTYuNjYzIDEuMTg0LTMuOTQ4IDIuNzM0LTkuMjI3LTEuNzUtOS4yMjdIMTcuMjJjLTEuMTI5IDAtMi4xMi43NTQtMi40MyAxLjg0OGExMTQ5LjIgMTE0OS4yIDAgMDEtMi43MTMgOS40MzdjLS40NiAxLjU2NC0uODQyIDIuOTA3LTEuNDMgMy43NDNBMS45NyAxLjk3IDAgMDE5IDIyIi8+PHBhdGggdHJhbnNmb3JtPSJ0cmFuc2xhdGUoMCAxKSIgZmlsbD0idXJsKCNsb2JlLWljb25zLWNvcGlsb3QtZmlsbC01KSIgZD0iTTkgMjJoOC43NDljMi41IDAgNC0zLjMzMiA1LTYuNjYzIDEuMTg0LTMuOTQ4IDIuNzM0LTkuMjI3LTEuNzUtOS4yMjdIMTcuMjJjLTEuMTI5IDAtMi4xMi43NTQtMi40MyAxLjg0OGExMTQ5LjIgMTE0OS4yIDAgMDEtMi43MTMgOS40MzdjLS40NiAxLjU2NC0uODQyIDIuOTA3LTEuNDMgMy43NDNBMS45NyAxLjk3IDAgMDE5IDIyIi8+PC9nPjwvc3ZnPg==;" parent="1" vertex="1">
          <mxGeometry x="1755" y="760" width="20" height="20" as="geometry" />
        </mxCell>
        <mxCell id="lBSA8WIBel6qRi3vPHOn-237" value="" style="shape=image;imageAspect=0;aspect=fixed;verticalLabelPosition=bottom;verticalAlign=top;image=data:image/svg+xml,PHN2ZyB4bWxucz0iaHR0cDovL3d3dy53My5vcmcvMjAwMC9zdmciIHdpZHRoPSIwLjk5OTk3MjE4NDQ5OTEwNDkiIHZpZXdCb3g9IjAuMDAwODMzODY4OTgwNDA3NzE0OCAwLjk5OTkxNzE0OTU0Mzc2MjIgMjMuOTk5MzMyNDI3OTc4NTE2IDIyLjAwMDE2NDAzMTk4MjQyMiIgc3R5bGU9ImZsZXg6bm9uZTtsaW5lLWhlaWdodDoxIiBoZWlnaHQ9IjAuOTE2NjczNTAxMzMyNjAxIj48dGl0bGU+Q29waWxvdDwvdGl0bGU+PGRlZnM+PHJhZGlhbEdyYWRpZW50IHI9IjEwNS4xMTYlIiBpZD0ibG9iZS1pY29ucy1jb3BpbG90LWZpbGwtMCIgZ3JhZGllbnRUcmFuc2Zvcm09InNjYWxlKC0uODU1MyAtMSkgcm90YXRlKDUwLjkyNyAyLjA0MSAtMS45NDYpIiBmeT0iMTAwLjY1MyUiIGZ4PSI4NS40NCUiIGN5PSIxMDAuNjUzJSIgY3g9Ijg1LjQ0JSI+PHN0b3Agc3RvcC1jb2xvcj0iIzAwQUVGRiIgb2Zmc2V0PSI5LjYlIi8+PHN0b3Agc3RvcC1jb2xvcj0iIzIyNTNDRSIgb2Zmc2V0PSI3Ny4zJSIvPjxzdG9wIHN0b3AtY29sb3I9IiMwNzM2QzQiIG9mZnNldD0iMTAwJSIvPjwvcmFkaWFsR3JhZGllbnQ+PHJhZGlhbEdyYWRpZW50IHI9Ijk1LjYxMiUiIGlkPSJsb2JlLWljb25zLWNvcGlsb3QtZmlsbC0xIiBncmFkaWVudFRyYW5zZm9ybT0ic2NhbGUoLjg4OTcgMSkgcm90YXRlKDUyLjA2OSAuMTkzIC4zNTIpIiBmeT0iMzIuOTI4JSIgZng9IjE4LjE0MyUiIGN5PSIzMi45MjglIiBjeD0iMTguMTQzJSI+PHN0b3Agc3RvcC1jb2xvcj0iI0ZGQjY1NyIgb2Zmc2V0PSIwJSIvPjxzdG9wIHN0b3AtY29sb3I9IiNGRjVGM0QiIG9mZnNldD0iNjMuNCUiLz48c3RvcCBzdG9wLWNvbG9yPSIjQzAyQjNDIiBvZmZzZXQ9IjkyLjMlIi8+PC9yYWRpYWxHcmFkaWVudD48cmFkaWFsR3JhZGllbnQgcj0iMTQwLjYyMiUiIGlkPSJsb2JlLWljb25zLWNvcGlsb3QtZmlsbC00IiBncmFkaWVudFRyYW5zZm9ybT0ic2NhbGUoLTEgLS45NDQxKSByb3RhdGUoLTcwLjg3MiAuMTQyIDEuMTcpIiBmeT0iLTkuNzkyJSIgZng9IjgyLjk4NyUiIGN5PSItOS43OTIlIiBjeD0iODIuOTg3JSI+PHN0b3Agc3RvcC1jb2xvcj0iIzhDNDhGRiIgb2Zmc2V0PSI2LjYlIi8+PHN0b3Agc3RvcC1jb2xvcj0iI0YyNTk4QSIgb2Zmc2V0PSI1MCUiLz48c3RvcCBzdG9wLWNvbG9yPSIjRkZCMTUyIiBvZmZzZXQ9Ijg5LjYlIi8+PC9yYWRpYWxHcmFkaWVudD48bGluZWFyR3JhZGllbnQgeTI9IjEwMy43NzQlIiB5MT0iMTIuMTE3JSIgeDI9IjQ2Ljg4NCUiIHgxPSIzOS40NjUlIiBpZD0ibG9iZS1pY29ucy1jb3BpbG90LWZpbGwtMiI+PHN0b3Agc3RvcC1jb2xvcj0iIzBEOTFFMSIgb2Zmc2V0PSIxNS42JSIvPjxzdG9wIHN0b3AtY29sb3I9IiM1MkI0NzEiIG9mZnNldD0iNDguNyUiLz48c3RvcCBzdG9wLWNvbG9yPSIjOThCRDQyIiBvZmZzZXQ9IjY1LjIlIi8+PHN0b3Agc3RvcC1jb2xvcj0iI0ZGQzgwMCIgb2Zmc2V0PSI5My43JSIvPjwvbGluZWFyR3JhZGllbnQ+PGxpbmVhckdyYWRpZW50IHkyPSIxMDAlIiB5MT0iMCUiIHgyPSI1MCUiIHgxPSI0NS45NDklIiBpZD0ibG9iZS1pY29ucy1jb3BpbG90LWZpbGwtMyI+PHN0b3Agc3RvcC1jb2xvcj0iIzNEQ0JGRiIgb2Zmc2V0PSIwJSIvPjxzdG9wIHN0b3Atb3BhY2l0eT0iMCIgc3RvcC1jb2xvcj0iIzA1ODhGNyIgb2Zmc2V0PSIyNC43JSIvPjwvbGluZWFyR3JhZGllbnQ+PGxpbmVhckdyYWRpZW50IHkyPSIyMS4xMzElIiB5MT0iLTYuMTA2JSIgeDI9IjgzLjQ1MyUiIHgxPSI4My41MDclIiBpZD0ibG9iZS1pY29ucy1jb3BpbG90LWZpbGwtNSI+PHN0b3Agc3RvcC1jb2xvcj0iI0Y4QURGQSIgb2Zmc2V0PSI1LjglIi8+PHN0b3Agc3RvcC1vcGFjaXR5PSIwIiBzdG9wLWNvbG9yPSIjQTg2RUREIiBvZmZzZXQ9IjcwLjglIi8+PC9saW5lYXJHcmFkaWVudD48L2RlZnM+PGcgZmlsbC1ydWxlPSJub256ZXJvIiBmaWxsPSJub25lIj48cGF0aCB0cmFuc2Zvcm09InRyYW5zbGF0ZSgwIDEpIiBmaWxsPSJ1cmwoI2xvYmUtaWNvbnMtY29waWxvdC1maWxsLTApIiBkPSJNMTcuNTMzIDEuODI5QTIuNTI4IDIuNTI4IDAgMDAxNS4xMSAwaC0uNzM3YTIuNTMxIDIuNTMxIDAgMDAtMi40ODQgMi4wODdsLTEuMjYzIDYuOTM3LjMxNC0xLjA4YTIuNTI4IDIuNTI4IDAgMDEyLjQyNC0xLjgzM2g0LjI4NGwxLjc5Ny43MDYgMS43MzEtLjcwNmgtLjUwNWEyLjUyOCAyLjUyOCAwIDAxLTIuNDIzLTEuODI5bC0uNzE1LTIuNDUzeiIvPjxwYXRoIHRyYW5zZm9ybT0idHJhbnNsYXRlKDAgMSkiIGZpbGw9InVybCgjbG9iZS1pY29ucy1jb3BpbG90LWZpbGwtMSkiIGQ9Ik02LjcyNiAyMC4xNkEyLjUyOCAyLjUyOCAwIDAwOS4xNTIgMjJoMS41NjZjMS4zNyAwIDIuNDktMS4xIDIuNTI1LTIuNDhsLjE3LTYuNjktLjM1NyAxLjIyOGEyLjUyOCAyLjUyOCAwIDAxLTIuNDIzIDEuODNoLTQuMzJsLTEuNTQtLjg0Mi0xLjY2Ny44NDNoLjQ5N2MxLjEyNCAwIDIuMTEzLjc1IDIuNDI2IDEuODRsLjY5NyAyLjQzMnoiLz48cGF0aCB0cmFuc2Zvcm09InRyYW5zbGF0ZSgwIDEpIiBmaWxsPSJ1cmwoI2xvYmUtaWNvbnMtY29waWxvdC1maWxsLTIpIiBkPSJNMTUgMEg2LjI1MmMtMi41IDAtNCAzLjMzMS01IDYuNjYyLTEuMTg0IDMuOTQ3LTIuNzM0IDkuMjI1IDEuNzUgOS4yMjVINi43OGMxLjEzIDAgMi4xMi0uNzUzIDIuNDMtMS44NDcuNjU3LTIuMzE3IDEuODA5LTYuMzU5IDIuNzEzLTkuNDM2LjQ2LTEuNTYzLjg0Mi0yLjkwNiAxLjQzLTMuNzQyQTEuOTcgMS45NyAwIDAxMTUgMCIvPjxwYXRoIHRyYW5zZm9ybT0idHJhbnNsYXRlKDAgMSkiIGZpbGw9InVybCgjbG9iZS1pY29ucy1jb3BpbG90LWZpbGwtMykiIGQ9Ik0xNSAwSDYuMjUyYy0yLjUgMC00IDMuMzMxLTUgNi42NjItMS4xODQgMy45NDctMi43MzQgOS4yMjUgMS43NSA5LjIyNUg2Ljc4YzEuMTMgMCAyLjEyLS43NTMgMi40My0xLjg0Ny42NTctMi4zMTcgMS44MDktNi4zNTkgMi43MTMtOS40MzYuNDYtMS41NjMuODQyLTIuOTA2IDEuNDMtMy43NDJBMS45NyAxLjk3IDAgMDExNSAwIi8+PHBhdGggdHJhbnNmb3JtPSJ0cmFuc2xhdGUoMCAxKSIgZmlsbD0idXJsKCNsb2JlLWljb25zLWNvcGlsb3QtZmlsbC00KSIgZD0iTTkgMjJoOC43NDljMi41IDAgNC0zLjMzMiA1LTYuNjYzIDEuMTg0LTMuOTQ4IDIuNzM0LTkuMjI3LTEuNzUtOS4yMjdIMTcuMjJjLTEuMTI5IDAtMi4xMi43NTQtMi40MyAxLjg0OGExMTQ5LjIgMTE0OS4yIDAgMDEtMi43MTMgOS40MzdjLS40NiAxLjU2NC0uODQyIDIuOTA3LTEuNDMgMy43NDNBMS45NyAxLjk3IDAgMDE5IDIyIi8+PHBhdGggdHJhbnNmb3JtPSJ0cmFuc2xhdGUoMCAxKSIgZmlsbD0idXJsKCNsb2JlLWljb25zLWNvcGlsb3QtZmlsbC01KSIgZD0iTTkgMjJoOC43NDljMi41IDAgNC0zLjMzMiA1LTYuNjYzIDEuMTg0LTMuOTQ4IDIuNzM0LTkuMjI3LTEuNzUtOS4yMjdIMTcuMjJjLTEuMTI5IDAtMi4xMi43NTQtMi40MyAxLjg0OGExMTQ5LjIgMTE0OS4yIDAgMDEtMi43MTMgOS40MzdjLS40NiAxLjU2NC0uODQyIDIuOTA3LTEuNDMgMy43NDNBMS45NyAxLjk3IDAgMDE5IDIyIi8+PC9nPjwvc3ZnPg==;" parent="1" vertex="1">
          <mxGeometry x="1755" y="883" width="20" height="20" as="geometry" />
        </mxCell>
        <mxCell id="lBSA8WIBel6qRi3vPHOn-238" value="" style="shape=image;imageAspect=0;aspect=fixed;verticalLabelPosition=bottom;verticalAlign=top;image=data:image/svg+xml,PHN2ZyB4bWxucz0iaHR0cDovL3d3dy53My5vcmcvMjAwMC9zdmciIHdpZHRoPSIwLjk5OTk3MjE4NDQ5OTEwNDkiIHZpZXdCb3g9IjAuMDAwODMzODY4OTgwNDA3NzE0OCAwLjk5OTkxNzE0OTU0Mzc2MjIgMjMuOTk5MzMyNDI3OTc4NTE2IDIyLjAwMDE2NDAzMTk4MjQyMiIgc3R5bGU9ImZsZXg6bm9uZTtsaW5lLWhlaWdodDoxIiBoZWlnaHQ9IjAuOTE2NjczNTAxMzMyNjAxIj48dGl0bGU+Q29waWxvdDwvdGl0bGU+PGRlZnM+PHJhZGlhbEdyYWRpZW50IHI9IjEwNS4xMTYlIiBpZD0ibG9iZS1pY29ucy1jb3BpbG90LWZpbGwtMCIgZ3JhZGllbnRUcmFuc2Zvcm09InNjYWxlKC0uODU1MyAtMSkgcm90YXRlKDUwLjkyNyAyLjA0MSAtMS45NDYpIiBmeT0iMTAwLjY1MyUiIGZ4PSI4NS40NCUiIGN5PSIxMDAuNjUzJSIgY3g9Ijg1LjQ0JSI+PHN0b3Agc3RvcC1jb2xvcj0iIzAwQUVGRiIgb2Zmc2V0PSI5LjYlIi8+PHN0b3Agc3RvcC1jb2xvcj0iIzIyNTNDRSIgb2Zmc2V0PSI3Ny4zJSIvPjxzdG9wIHN0b3AtY29sb3I9IiMwNzM2QzQiIG9mZnNldD0iMTAwJSIvPjwvcmFkaWFsR3JhZGllbnQ+PHJhZGlhbEdyYWRpZW50IHI9Ijk1LjYxMiUiIGlkPSJsb2JlLWljb25zLWNvcGlsb3QtZmlsbC0xIiBncmFkaWVudFRyYW5zZm9ybT0ic2NhbGUoLjg4OTcgMSkgcm90YXRlKDUyLjA2OSAuMTkzIC4zNTIpIiBmeT0iMzIuOTI4JSIgZng9IjE4LjE0MyUiIGN5PSIzMi45MjglIiBjeD0iMTguMTQzJSI+PHN0b3Agc3RvcC1jb2xvcj0iI0ZGQjY1NyIgb2Zmc2V0PSIwJSIvPjxzdG9wIHN0b3AtY29sb3I9IiNGRjVGM0QiIG9mZnNldD0iNjMuNCUiLz48c3RvcCBzdG9wLWNvbG9yPSIjQzAyQjNDIiBvZmZzZXQ9IjkyLjMlIi8+PC9yYWRpYWxHcmFkaWVudD48cmFkaWFsR3JhZGllbnQgcj0iMTQwLjYyMiUiIGlkPSJsb2JlLWljb25zLWNvcGlsb3QtZmlsbC00IiBncmFkaWVudFRyYW5zZm9ybT0ic2NhbGUoLTEgLS45NDQxKSByb3RhdGUoLTcwLjg3MiAuMTQyIDEuMTcpIiBmeT0iLTkuNzkyJSIgZng9IjgyLjk4NyUiIGN5PSItOS43OTIlIiBjeD0iODIuOTg3JSI+PHN0b3Agc3RvcC1jb2xvcj0iIzhDNDhGRiIgb2Zmc2V0PSI2LjYlIi8+PHN0b3Agc3RvcC1jb2xvcj0iI0YyNTk4QSIgb2Zmc2V0PSI1MCUiLz48c3RvcCBzdG9wLWNvbG9yPSIjRkZCMTUyIiBvZmZzZXQ9Ijg5LjYlIi8+PC9yYWRpYWxHcmFkaWVudD48bGluZWFyR3JhZGllbnQgeTI9IjEwMy43NzQlIiB5MT0iMTIuMTE3JSIgeDI9IjQ2Ljg4NCUiIHgxPSIzOS40NjUlIiBpZD0ibG9iZS1pY29ucy1jb3BpbG90LWZpbGwtMiI+PHN0b3Agc3RvcC1jb2xvcj0iIzBEOTFFMSIgb2Zmc2V0PSIxNS42JSIvPjxzdG9wIHN0b3AtY29sb3I9IiM1MkI0NzEiIG9mZnNldD0iNDguNyUiLz48c3RvcCBzdG9wLWNvbG9yPSIjOThCRDQyIiBvZmZzZXQ9IjY1LjIlIi8+PHN0b3Agc3RvcC1jb2xvcj0iI0ZGQzgwMCIgb2Zmc2V0PSI5My43JSIvPjwvbGluZWFyR3JhZGllbnQ+PGxpbmVhckdyYWRpZW50IHkyPSIxMDAlIiB5MT0iMCUiIHgyPSI1MCUiIHgxPSI0NS45NDklIiBpZD0ibG9iZS1pY29ucy1jb3BpbG90LWZpbGwtMyI+PHN0b3Agc3RvcC1jb2xvcj0iIzNEQ0JGRiIgb2Zmc2V0PSIwJSIvPjxzdG9wIHN0b3Atb3BhY2l0eT0iMCIgc3RvcC1jb2xvcj0iIzA1ODhGNyIgb2Zmc2V0PSIyNC43JSIvPjwvbGluZWFyR3JhZGllbnQ+PGxpbmVhckdyYWRpZW50IHkyPSIyMS4xMzElIiB5MT0iLTYuMTA2JSIgeDI9IjgzLjQ1MyUiIHgxPSI4My41MDclIiBpZD0ibG9iZS1pY29ucy1jb3BpbG90LWZpbGwtNSI+PHN0b3Agc3RvcC1jb2xvcj0iI0Y4QURGQSIgb2Zmc2V0PSI1LjglIi8+PHN0b3Agc3RvcC1vcGFjaXR5PSIwIiBzdG9wLWNvbG9yPSIjQTg2RUREIiBvZmZzZXQ9IjcwLjglIi8+PC9saW5lYXJHcmFkaWVudD48L2RlZnM+PGcgZmlsbC1ydWxlPSJub256ZXJvIiBmaWxsPSJub25lIj48cGF0aCB0cmFuc2Zvcm09InRyYW5zbGF0ZSgwIDEpIiBmaWxsPSJ1cmwoI2xvYmUtaWNvbnMtY29waWxvdC1maWxsLTApIiBkPSJNMTcuNTMzIDEuODI5QTIuNTI4IDIuNTI4IDAgMDAxNS4xMSAwaC0uNzM3YTIuNTMxIDIuNTMxIDAgMDAtMi40ODQgMi4wODdsLTEuMjYzIDYuOTM3LjMxNC0xLjA4YTIuNTI4IDIuNTI4IDAgMDEyLjQyNC0xLjgzM2g0LjI4NGwxLjc5Ny43MDYgMS43MzEtLjcwNmgtLjUwNWEyLjUyOCAyLjUyOCAwIDAxLTIuNDIzLTEuODI5bC0uNzE1LTIuNDUzeiIvPjxwYXRoIHRyYW5zZm9ybT0idHJhbnNsYXRlKDAgMSkiIGZpbGw9InVybCgjbG9iZS1pY29ucy1jb3BpbG90LWZpbGwtMSkiIGQ9Ik02LjcyNiAyMC4xNkEyLjUyOCAyLjUyOCAwIDAwOS4xNTIgMjJoMS41NjZjMS4zNyAwIDIuNDktMS4xIDIuNTI1LTIuNDhsLjE3LTYuNjktLjM1NyAxLjIyOGEyLjUyOCAyLjUyOCAwIDAxLTIuNDIzIDEuODNoLTQuMzJsLTEuNTQtLjg0Mi0xLjY2Ny44NDNoLjQ5N2MxLjEyNCAwIDIuMTEzLjc1IDIuNDI2IDEuODRsLjY5NyAyLjQzMnoiLz48cGF0aCB0cmFuc2Zvcm09InRyYW5zbGF0ZSgwIDEpIiBmaWxsPSJ1cmwoI2xvYmUtaWNvbnMtY29waWxvdC1maWxsLTIpIiBkPSJNMTUgMEg2LjI1MmMtMi41IDAtNCAzLjMzMS01IDYuNjYyLTEuMTg0IDMuOTQ3LTIuNzM0IDkuMjI1IDEuNzUgOS4yMjVINi43OGMxLjEzIDAgMi4xMi0uNzUzIDIuNDMtMS44NDcuNjU3LTIuMzE3IDEuODA5LTYuMzU5IDIuNzEzLTkuNDM2LjQ2LTEuNTYzLjg0Mi0yLjkwNiAxLjQzLTMuNzQyQTEuOTcgMS45NyAwIDAxMTUgMCIvPjxwYXRoIHRyYW5zZm9ybT0idHJhbnNsYXRlKDAgMSkiIGZpbGw9InVybCgjbG9iZS1pY29ucy1jb3BpbG90LWZpbGwtMykiIGQ9Ik0xNSAwSDYuMjUyYy0yLjUgMC00IDMuMzMxLTUgNi42NjItMS4xODQgMy45NDctMi43MzQgOS4yMjUgMS43NSA5LjIyNUg2Ljc4YzEuMTMgMCAyLjEyLS43NTMgMi40My0xLjg0Ny42NTctMi4zMTcgMS44MDktNi4zNTkgMi43MTMtOS40MzYuNDYtMS41NjMuODQyLTIuOTA2IDEuNDMtMy43NDJBMS45NyAxLjk3IDAgMDExNSAwIi8+PHBhdGggdHJhbnNmb3JtPSJ0cmFuc2xhdGUoMCAxKSIgZmlsbD0idXJsKCNsb2JlLWljb25zLWNvcGlsb3QtZmlsbC00KSIgZD0iTTkgMjJoOC43NDljMi41IDAgNC0zLjMzMiA1LTYuNjYzIDEuMTg0LTMuOTQ4IDIuNzM0LTkuMjI3LTEuNzUtOS4yMjdIMTcuMjJjLTEuMTI5IDAtMi4xMi43NTQtMi40MyAxLjg0OGExMTQ5LjIgMTE0OS4yIDAgMDEtMi43MTMgOS40MzdjLS40NiAxLjU2NC0uODQyIDIuOTA3LTEuNDMgMy43NDNBMS45NyAxLjk3IDAgMDE5IDIyIi8+PHBhdGggdHJhbnNmb3JtPSJ0cmFuc2xhdGUoMCAxKSIgZmlsbD0idXJsKCNsb2JlLWljb25zLWNvcGlsb3QtZmlsbC01KSIgZD0iTTkgMjJoOC43NDljMi41IDAgNC0zLjMzMiA1LTYuNjYzIDEuMTg0LTMuOTQ4IDIuNzM0LTkuMjI3LTEuNzUtOS4yMjdIMTcuMjJjLTEuMTI5IDAtMi4xMi43NTQtMi40MyAxLjg0OGExMTQ5LjIgMTE0OS4yIDAgMDEtMi43MTMgOS40MzdjLS40NiAxLjU2NC0uODQyIDIuOTA3LTEuNDMgMy43NDNBMS45NyAxLjk3IDAgMDE5IDIyIi8+PC9nPjwvc3ZnPg==;" parent="1" vertex="1">
          <mxGeometry x="1443" y="1480" width="20" height="20" as="geometry" />
        </mxCell>
        <mxCell id="lBSA8WIBel6qRi3vPHOn-239" value="" style="shape=image;imageAspect=0;aspect=fixed;verticalLabelPosition=bottom;verticalAlign=top;image=data:image/svg+xml,PHN2ZyB4bWxucz0iaHR0cDovL3d3dy53My5vcmcvMjAwMC9zdmciIHdpZHRoPSIwLjk5OTk3MjE4NDQ5OTEwNDkiIHZpZXdCb3g9IjAuMDAwODMzODY4OTgwNDA3NzE0OCAwLjk5OTkxNzE0OTU0Mzc2MjIgMjMuOTk5MzMyNDI3OTc4NTE2IDIyLjAwMDE2NDAzMTk4MjQyMiIgc3R5bGU9ImZsZXg6bm9uZTtsaW5lLWhlaWdodDoxIiBoZWlnaHQ9IjAuOTE2NjczNTAxMzMyNjAxIj48dGl0bGU+Q29waWxvdDwvdGl0bGU+PGRlZnM+PHJhZGlhbEdyYWRpZW50IHI9IjEwNS4xMTYlIiBpZD0ibG9iZS1pY29ucy1jb3BpbG90LWZpbGwtMCIgZ3JhZGllbnRUcmFuc2Zvcm09InNjYWxlKC0uODU1MyAtMSkgcm90YXRlKDUwLjkyNyAyLjA0MSAtMS45NDYpIiBmeT0iMTAwLjY1MyUiIGZ4PSI4NS40NCUiIGN5PSIxMDAuNjUzJSIgY3g9Ijg1LjQ0JSI+PHN0b3Agc3RvcC1jb2xvcj0iIzAwQUVGRiIgb2Zmc2V0PSI5LjYlIi8+PHN0b3Agc3RvcC1jb2xvcj0iIzIyNTNDRSIgb2Zmc2V0PSI3Ny4zJSIvPjxzdG9wIHN0b3AtY29sb3I9IiMwNzM2QzQiIG9mZnNldD0iMTAwJSIvPjwvcmFkaWFsR3JhZGllbnQ+PHJhZGlhbEdyYWRpZW50IHI9Ijk1LjYxMiUiIGlkPSJsb2JlLWljb25zLWNvcGlsb3QtZmlsbC0xIiBncmFkaWVudFRyYW5zZm9ybT0ic2NhbGUoLjg4OTcgMSkgcm90YXRlKDUyLjA2OSAuMTkzIC4zNTIpIiBmeT0iMzIuOTI4JSIgZng9IjE4LjE0MyUiIGN5PSIzMi45MjglIiBjeD0iMTguMTQzJSI+PHN0b3Agc3RvcC1jb2xvcj0iI0ZGQjY1NyIgb2Zmc2V0PSIwJSIvPjxzdG9wIHN0b3AtY29sb3I9IiNGRjVGM0QiIG9mZnNldD0iNjMuNCUiLz48c3RvcCBzdG9wLWNvbG9yPSIjQzAyQjNDIiBvZmZzZXQ9IjkyLjMlIi8+PC9yYWRpYWxHcmFkaWVudD48cmFkaWFsR3JhZGllbnQgcj0iMTQwLjYyMiUiIGlkPSJsb2JlLWljb25zLWNvcGlsb3QtZmlsbC00IiBncmFkaWVudFRyYW5zZm9ybT0ic2NhbGUoLTEgLS45NDQxKSByb3RhdGUoLTcwLjg3MiAuMTQyIDEuMTcpIiBmeT0iLTkuNzkyJSIgZng9IjgyLjk4NyUiIGN5PSItOS43OTIlIiBjeD0iODIuOTg3JSI+PHN0b3Agc3RvcC1jb2xvcj0iIzhDNDhGRiIgb2Zmc2V0PSI2LjYlIi8+PHN0b3Agc3RvcC1jb2xvcj0iI0YyNTk4QSIgb2Zmc2V0PSI1MCUiLz48c3RvcCBzdG9wLWNvbG9yPSIjRkZCMTUyIiBvZmZzZXQ9Ijg5LjYlIi8+PC9yYWRpYWxHcmFkaWVudD48bGluZWFyR3JhZGllbnQgeTI9IjEwMy43NzQlIiB5MT0iMTIuMTE3JSIgeDI9IjQ2Ljg4NCUiIHgxPSIzOS40NjUlIiBpZD0ibG9iZS1pY29ucy1jb3BpbG90LWZpbGwtMiI+PHN0b3Agc3RvcC1jb2xvcj0iIzBEOTFFMSIgb2Zmc2V0PSIxNS42JSIvPjxzdG9wIHN0b3AtY29sb3I9IiM1MkI0NzEiIG9mZnNldD0iNDguNyUiLz48c3RvcCBzdG9wLWNvbG9yPSIjOThCRDQyIiBvZmZzZXQ9IjY1LjIlIi8+PHN0b3Agc3RvcC1jb2xvcj0iI0ZGQzgwMCIgb2Zmc2V0PSI5My43JSIvPjwvbGluZWFyR3JhZGllbnQ+PGxpbmVhckdyYWRpZW50IHkyPSIxMDAlIiB5MT0iMCUiIHgyPSI1MCUiIHgxPSI0NS45NDklIiBpZD0ibG9iZS1pY29ucy1jb3BpbG90LWZpbGwtMyI+PHN0b3Agc3RvcC1jb2xvcj0iIzNEQ0JGRiIgb2Zmc2V0PSIwJSIvPjxzdG9wIHN0b3Atb3BhY2l0eT0iMCIgc3RvcC1jb2xvcj0iIzA1ODhGNyIgb2Zmc2V0PSIyNC43JSIvPjwvbGluZWFyR3JhZGllbnQ+PGxpbmVhckdyYWRpZW50IHkyPSIyMS4xMzElIiB5MT0iLTYuMTA2JSIgeDI9IjgzLjQ1MyUiIHgxPSI4My41MDclIiBpZD0ibG9iZS1pY29ucy1jb3BpbG90LWZpbGwtNSI+PHN0b3Agc3RvcC1jb2xvcj0iI0Y4QURGQSIgb2Zmc2V0PSI1LjglIi8+PHN0b3Agc3RvcC1vcGFjaXR5PSIwIiBzdG9wLWNvbG9yPSIjQTg2RUREIiBvZmZzZXQ9IjcwLjglIi8+PC9saW5lYXJHcmFkaWVudD48L2RlZnM+PGcgZmlsbC1ydWxlPSJub256ZXJvIiBmaWxsPSJub25lIj48cGF0aCB0cmFuc2Zvcm09InRyYW5zbGF0ZSgwIDEpIiBmaWxsPSJ1cmwoI2xvYmUtaWNvbnMtY29waWxvdC1maWxsLTApIiBkPSJNMTcuNTMzIDEuODI5QTIuNTI4IDIuNTI4IDAgMDAxNS4xMSAwaC0uNzM3YTIuNTMxIDIuNTMxIDAgMDAtMi40ODQgMi4wODdsLTEuMjYzIDYuOTM3LjMxNC0xLjA4YTIuNTI4IDIuNTI4IDAgMDEyLjQyNC0xLjgzM2g0LjI4NGwxLjc5Ny43MDYgMS43MzEtLjcwNmgtLjUwNWEyLjUyOCAyLjUyOCAwIDAxLTIuNDIzLTEuODI5bC0uNzE1LTIuNDUzeiIvPjxwYXRoIHRyYW5zZm9ybT0idHJhbnNsYXRlKDAgMSkiIGZpbGw9InVybCgjbG9iZS1pY29ucy1jb3BpbG90LWZpbGwtMSkiIGQ9Ik02LjcyNiAyMC4xNkEyLjUyOCAyLjUyOCAwIDAwOS4xNTIgMjJoMS41NjZjMS4zNyAwIDIuNDktMS4xIDIuNTI1LTIuNDhsLjE3LTYuNjktLjM1NyAxLjIyOGEyLjUyOCAyLjUyOCAwIDAxLTIuNDIzIDEuODNoLTQuMzJsLTEuNTQtLjg0Mi0xLjY2Ny44NDNoLjQ5N2MxLjEyNCAwIDIuMTEzLjc1IDIuNDI2IDEuODRsLjY5NyAyLjQzMnoiLz48cGF0aCB0cmFuc2Zvcm09InRyYW5zbGF0ZSgwIDEpIiBmaWxsPSJ1cmwoI2xvYmUtaWNvbnMtY29waWxvdC1maWxsLTIpIiBkPSJNMTUgMEg2LjI1MmMtMi41IDAtNCAzLjMzMS01IDYuNjYyLTEuMTg0IDMuOTQ3LTIuNzM0IDkuMjI1IDEuNzUgOS4yMjVINi43OGMxLjEzIDAgMi4xMi0uNzUzIDIuNDMtMS44NDcuNjU3LTIuMzE3IDEuODA5LTYuMzU5IDIuNzEzLTkuNDM2LjQ2LTEuNTYzLjg0Mi0yLjkwNiAxLjQzLTMuNzQyQTEuOTcgMS45NyAwIDAxMTUgMCIvPjxwYXRoIHRyYW5zZm9ybT0idHJhbnNsYXRlKDAgMSkiIGZpbGw9InVybCgjbG9iZS1pY29ucy1jb3BpbG90LWZpbGwtMykiIGQ9Ik0xNSAwSDYuMjUyYy0yLjUgMC00IDMuMzMxLTUgNi42NjItMS4xODQgMy45NDctMi43MzQgOS4yMjUgMS43NSA5LjIyNUg2Ljc4YzEuMTMgMCAyLjEyLS43NTMgMi40My0xLjg0Ny42NTctMi4zMTcgMS44MDktNi4zNTkgMi43MTMtOS40MzYuNDYtMS41NjMuODQyLTIuOTA2IDEuNDMtMy43NDJBMS45NyAxLjk3IDAgMDExNSAwIi8+PHBhdGggdHJhbnNmb3JtPSJ0cmFuc2xhdGUoMCAxKSIgZmlsbD0idXJsKCNsb2JlLWljb25zLWNvcGlsb3QtZmlsbC00KSIgZD0iTTkgMjJoOC43NDljMi41IDAgNC0zLjMzMiA1LTYuNjYzIDEuMTg0LTMuOTQ4IDIuNzM0LTkuMjI3LTEuNzUtOS4yMjdIMTcuMjJjLTEuMTI5IDAtMi4xMi43NTQtMi40MyAxLjg0OGExMTQ5LjIgMTE0OS4yIDAgMDEtMi43MTMgOS40MzdjLS40NiAxLjU2NC0uODQyIDIuOTA3LTEuNDMgMy43NDNBMS45NyAxLjk3IDAgMDE5IDIyIi8+PHBhdGggdHJhbnNmb3JtPSJ0cmFuc2xhdGUoMCAxKSIgZmlsbD0idXJsKCNsb2JlLWljb25zLWNvcGlsb3QtZmlsbC01KSIgZD0iTTkgMjJoOC43NDljMi41IDAgNC0zLjMzMiA1LTYuNjYzIDEuMTg0LTMuOTQ4IDIuNzM0LTkuMjI3LTEuNzUtOS4yMjdIMTcuMjJjLTEuMTI5IDAtMi4xMi43NTQtMi40MyAxLjg0OGExMTQ5LjIgMTE0OS4yIDAgMDEtMi43MTMgOS40MzdjLS40NiAxLjU2NC0uODQyIDIuOTA3LTEuNDMgMy43NDNBMS45NyAxLjk3IDAgMDE5IDIyIi8+PC9nPjwvc3ZnPg==;" parent="1" vertex="1">
          <mxGeometry x="1724" y="1480" width="20" height="20" as="geometry" />
        </mxCell>
        <mxCell id="lBSA8WIBel6qRi3vPHOn-240" value="" style="shape=image;imageAspect=0;aspect=fixed;verticalLabelPosition=bottom;verticalAlign=top;image=data:image/svg+xml,PHN2ZyB4bWxucz0iaHR0cDovL3d3dy53My5vcmcvMjAwMC9zdmciIHdpZHRoPSIwLjk5OTk3MjE4NDQ5OTEwNDkiIHZpZXdCb3g9IjAuMDAwODMzODY4OTgwNDA3NzE0OCAwLjk5OTkxNzE0OTU0Mzc2MjIgMjMuOTk5MzMyNDI3OTc4NTE2IDIyLjAwMDE2NDAzMTk4MjQyMiIgc3R5bGU9ImZsZXg6bm9uZTtsaW5lLWhlaWdodDoxIiBoZWlnaHQ9IjAuOTE2NjczNTAxMzMyNjAxIj48dGl0bGU+Q29waWxvdDwvdGl0bGU+PGRlZnM+PHJhZGlhbEdyYWRpZW50IHI9IjEwNS4xMTYlIiBpZD0ibG9iZS1pY29ucy1jb3BpbG90LWZpbGwtMCIgZ3JhZGllbnRUcmFuc2Zvcm09InNjYWxlKC0uODU1MyAtMSkgcm90YXRlKDUwLjkyNyAyLjA0MSAtMS45NDYpIiBmeT0iMTAwLjY1MyUiIGZ4PSI4NS40NCUiIGN5PSIxMDAuNjUzJSIgY3g9Ijg1LjQ0JSI+PHN0b3Agc3RvcC1jb2xvcj0iIzAwQUVGRiIgb2Zmc2V0PSI5LjYlIi8+PHN0b3Agc3RvcC1jb2xvcj0iIzIyNTNDRSIgb2Zmc2V0PSI3Ny4zJSIvPjxzdG9wIHN0b3AtY29sb3I9IiMwNzM2QzQiIG9mZnNldD0iMTAwJSIvPjwvcmFkaWFsR3JhZGllbnQ+PHJhZGlhbEdyYWRpZW50IHI9Ijk1LjYxMiUiIGlkPSJsb2JlLWljb25zLWNvcGlsb3QtZmlsbC0xIiBncmFkaWVudFRyYW5zZm9ybT0ic2NhbGUoLjg4OTcgMSkgcm90YXRlKDUyLjA2OSAuMTkzIC4zNTIpIiBmeT0iMzIuOTI4JSIgZng9IjE4LjE0MyUiIGN5PSIzMi45MjglIiBjeD0iMTguMTQzJSI+PHN0b3Agc3RvcC1jb2xvcj0iI0ZGQjY1NyIgb2Zmc2V0PSIwJSIvPjxzdG9wIHN0b3AtY29sb3I9IiNGRjVGM0QiIG9mZnNldD0iNjMuNCUiLz48c3RvcCBzdG9wLWNvbG9yPSIjQzAyQjNDIiBvZmZzZXQ9IjkyLjMlIi8+PC9yYWRpYWxHcmFkaWVudD48cmFkaWFsR3JhZGllbnQgcj0iMTQwLjYyMiUiIGlkPSJsb2JlLWljb25zLWNvcGlsb3QtZmlsbC00IiBncmFkaWVudFRyYW5zZm9ybT0ic2NhbGUoLTEgLS45NDQxKSByb3RhdGUoLTcwLjg3MiAuMTQyIDEuMTcpIiBmeT0iLTkuNzkyJSIgZng9IjgyLjk4NyUiIGN5PSItOS43OTIlIiBjeD0iODIuOTg3JSI+PHN0b3Agc3RvcC1jb2xvcj0iIzhDNDhGRiIgb2Zmc2V0PSI2LjYlIi8+PHN0b3Agc3RvcC1jb2xvcj0iI0YyNTk4QSIgb2Zmc2V0PSI1MCUiLz48c3RvcCBzdG9wLWNvbG9yPSIjRkZCMTUyIiBvZmZzZXQ9Ijg5LjYlIi8+PC9yYWRpYWxHcmFkaWVudD48bGluZWFyR3JhZGllbnQgeTI9IjEwMy43NzQlIiB5MT0iMTIuMTE3JSIgeDI9IjQ2Ljg4NCUiIHgxPSIzOS40NjUlIiBpZD0ibG9iZS1pY29ucy1jb3BpbG90LWZpbGwtMiI+PHN0b3Agc3RvcC1jb2xvcj0iIzBEOTFFMSIgb2Zmc2V0PSIxNS42JSIvPjxzdG9wIHN0b3AtY29sb3I9IiM1MkI0NzEiIG9mZnNldD0iNDguNyUiLz48c3RvcCBzdG9wLWNvbG9yPSIjOThCRDQyIiBvZmZzZXQ9IjY1LjIlIi8+PHN0b3Agc3RvcC1jb2xvcj0iI0ZGQzgwMCIgb2Zmc2V0PSI5My43JSIvPjwvbGluZWFyR3JhZGllbnQ+PGxpbmVhckdyYWRpZW50IHkyPSIxMDAlIiB5MT0iMCUiIHgyPSI1MCUiIHgxPSI0NS45NDklIiBpZD0ibG9iZS1pY29ucy1jb3BpbG90LWZpbGwtMyI+PHN0b3Agc3RvcC1jb2xvcj0iIzNEQ0JGRiIgb2Zmc2V0PSIwJSIvPjxzdG9wIHN0b3Atb3BhY2l0eT0iMCIgc3RvcC1jb2xvcj0iIzA1ODhGNyIgb2Zmc2V0PSIyNC43JSIvPjwvbGluZWFyR3JhZGllbnQ+PGxpbmVhckdyYWRpZW50IHkyPSIyMS4xMzElIiB5MT0iLTYuMTA2JSIgeDI9IjgzLjQ1MyUiIHgxPSI4My41MDclIiBpZD0ibG9iZS1pY29ucy1jb3BpbG90LWZpbGwtNSI+PHN0b3Agc3RvcC1jb2xvcj0iI0Y4QURGQSIgb2Zmc2V0PSI1LjglIi8+PHN0b3Agc3RvcC1vcGFjaXR5PSIwIiBzdG9wLWNvbG9yPSIjQTg2RUREIiBvZmZzZXQ9IjcwLjglIi8+PC9saW5lYXJHcmFkaWVudD48L2RlZnM+PGcgZmlsbC1ydWxlPSJub256ZXJvIiBmaWxsPSJub25lIj48cGF0aCB0cmFuc2Zvcm09InRyYW5zbGF0ZSgwIDEpIiBmaWxsPSJ1cmwoI2xvYmUtaWNvbnMtY29waWxvdC1maWxsLTApIiBkPSJNMTcuNTMzIDEuODI5QTIuNTI4IDIuNTI4IDAgMDAxNS4xMSAwaC0uNzM3YTIuNTMxIDIuNTMxIDAgMDAtMi40ODQgMi4wODdsLTEuMjYzIDYuOTM3LjMxNC0xLjA4YTIuNTI4IDIuNTI4IDAgMDEyLjQyNC0xLjgzM2g0LjI4NGwxLjc5Ny43MDYgMS43MzEtLjcwNmgtLjUwNWEyLjUyOCAyLjUyOCAwIDAxLTIuNDIzLTEuODI5bC0uNzE1LTIuNDUzeiIvPjxwYXRoIHRyYW5zZm9ybT0idHJhbnNsYXRlKDAgMSkiIGZpbGw9InVybCgjbG9iZS1pY29ucy1jb3BpbG90LWZpbGwtMSkiIGQ9Ik02LjcyNiAyMC4xNkEyLjUyOCAyLjUyOCAwIDAwOS4xNTIgMjJoMS41NjZjMS4zNyAwIDIuNDktMS4xIDIuNTI1LTIuNDhsLjE3LTYuNjktLjM1NyAxLjIyOGEyLjUyOCAyLjUyOCAwIDAxLTIuNDIzIDEuODNoLTQuMzJsLTEuNTQtLjg0Mi0xLjY2Ny44NDNoLjQ5N2MxLjEyNCAwIDIuMTEzLjc1IDIuNDI2IDEuODRsLjY5NyAyLjQzMnoiLz48cGF0aCB0cmFuc2Zvcm09InRyYW5zbGF0ZSgwIDEpIiBmaWxsPSJ1cmwoI2xvYmUtaWNvbnMtY29waWxvdC1maWxsLTIpIiBkPSJNMTUgMEg2LjI1MmMtMi41IDAtNCAzLjMzMS01IDYuNjYyLTEuMTg0IDMuOTQ3LTIuNzM0IDkuMjI1IDEuNzUgOS4yMjVINi43OGMxLjEzIDAgMi4xMi0uNzUzIDIuNDMtMS44NDcuNjU3LTIuMzE3IDEuODA5LTYuMzU5IDIuNzEzLTkuNDM2LjQ2LTEuNTYzLjg0Mi0yLjkwNiAxLjQzLTMuNzQyQTEuOTcgMS45NyAwIDAxMTUgMCIvPjxwYXRoIHRyYW5zZm9ybT0idHJhbnNsYXRlKDAgMSkiIGZpbGw9InVybCgjbG9iZS1pY29ucy1jb3BpbG90LWZpbGwtMykiIGQ9Ik0xNSAwSDYuMjUyYy0yLjUgMC00IDMuMzMxLTUgNi42NjItMS4xODQgMy45NDctMi43MzQgOS4yMjUgMS43NSA5LjIyNUg2Ljc4YzEuMTMgMCAyLjEyLS43NTMgMi40My0xLjg0Ny42NTctMi4zMTcgMS44MDktNi4zNTkgMi43MTMtOS40MzYuNDYtMS41NjMuODQyLTIuOTA2IDEuNDMtMy43NDJBMS45NyAxLjk3IDAgMDExNSAwIi8+PHBhdGggdHJhbnNmb3JtPSJ0cmFuc2xhdGUoMCAxKSIgZmlsbD0idXJsKCNsb2JlLWljb25zLWNvcGlsb3QtZmlsbC00KSIgZD0iTTkgMjJoOC43NDljMi41IDAgNC0zLjMzMiA1LTYuNjYzIDEuMTg0LTMuOTQ4IDIuNzM0LTkuMjI3LTEuNzUtOS4yMjdIMTcuMjJjLTEuMTI5IDAtMi4xMi43NTQtMi40MyAxLjg0OGExMTQ5LjIgMTE0OS4yIDAgMDEtMi43MTMgOS40MzdjLS40NiAxLjU2NC0uODQyIDIuOTA3LTEuNDMgMy43NDNBMS45NyAxLjk3IDAgMDE5IDIyIi8+PHBhdGggdHJhbnNmb3JtPSJ0cmFuc2xhdGUoMCAxKSIgZmlsbD0idXJsKCNsb2JlLWljb25zLWNvcGlsb3QtZmlsbC01KSIgZD0iTTkgMjJoOC43NDljMi41IDAgNC0zLjMzMiA1LTYuNjYzIDEuMTg0LTMuOTQ4IDIuNzM0LTkuMjI3LTEuNzUtOS4yMjdIMTcuMjJjLTEuMTI5IDAtMi4xMi43NTQtMi40MyAxLjg0OGExMTQ5LjIgMTE0OS4yIDAgMDEtMi43MTMgOS40MzdjLS40NiAxLjU2NC0uODQyIDIuOTA3LTEuNDMgMy43NDNBMS45NyAxLjk3IDAgMDE5IDIyIi8+PC9nPjwvc3ZnPg==;" parent="1" vertex="1">
          <mxGeometry x="1163" y="1477" width="20" height="20" as="geometry" />
        </mxCell>
        <mxCell id="lBSA8WIBel6qRi3vPHOn-242" value="" style="shape=image;imageAspect=0;aspect=fixed;verticalLabelPosition=bottom;verticalAlign=top;image=data:image/svg+xml,PHN2ZyB4bWxucz0iaHR0cDovL3d3dy53My5vcmcvMjAwMC9zdmciIHdpZHRoPSIwLjk5OTk3MjE4NDQ5OTEwNDkiIHZpZXdCb3g9IjAuMDAwODMzODY4OTgwNDA3NzE0OCAwLjk5OTkxNzE0OTU0Mzc2MjIgMjMuOTk5MzMyNDI3OTc4NTE2IDIyLjAwMDE2NDAzMTk4MjQyMiIgc3R5bGU9ImZsZXg6bm9uZTtsaW5lLWhlaWdodDoxIiBoZWlnaHQ9IjAuOTE2NjczNTAxMzMyNjAxIj48dGl0bGU+Q29waWxvdDwvdGl0bGU+PGRlZnM+PHJhZGlhbEdyYWRpZW50IHI9IjEwNS4xMTYlIiBpZD0ibG9iZS1pY29ucy1jb3BpbG90LWZpbGwtMCIgZ3JhZGllbnRUcmFuc2Zvcm09InNjYWxlKC0uODU1MyAtMSkgcm90YXRlKDUwLjkyNyAyLjA0MSAtMS45NDYpIiBmeT0iMTAwLjY1MyUiIGZ4PSI4NS40NCUiIGN5PSIxMDAuNjUzJSIgY3g9Ijg1LjQ0JSI+PHN0b3Agc3RvcC1jb2xvcj0iIzAwQUVGRiIgb2Zmc2V0PSI5LjYlIi8+PHN0b3Agc3RvcC1jb2xvcj0iIzIyNTNDRSIgb2Zmc2V0PSI3Ny4zJSIvPjxzdG9wIHN0b3AtY29sb3I9IiMwNzM2QzQiIG9mZnNldD0iMTAwJSIvPjwvcmFkaWFsR3JhZGllbnQ+PHJhZGlhbEdyYWRpZW50IHI9Ijk1LjYxMiUiIGlkPSJsb2JlLWljb25zLWNvcGlsb3QtZmlsbC0xIiBncmFkaWVudFRyYW5zZm9ybT0ic2NhbGUoLjg4OTcgMSkgcm90YXRlKDUyLjA2OSAuMTkzIC4zNTIpIiBmeT0iMzIuOTI4JSIgZng9IjE4LjE0MyUiIGN5PSIzMi45MjglIiBjeD0iMTguMTQzJSI+PHN0b3Agc3RvcC1jb2xvcj0iI0ZGQjY1NyIgb2Zmc2V0PSIwJSIvPjxzdG9wIHN0b3AtY29sb3I9IiNGRjVGM0QiIG9mZnNldD0iNjMuNCUiLz48c3RvcCBzdG9wLWNvbG9yPSIjQzAyQjNDIiBvZmZzZXQ9IjkyLjMlIi8+PC9yYWRpYWxHcmFkaWVudD48cmFkaWFsR3JhZGllbnQgcj0iMTQwLjYyMiUiIGlkPSJsb2JlLWljb25zLWNvcGlsb3QtZmlsbC00IiBncmFkaWVudFRyYW5zZm9ybT0ic2NhbGUoLTEgLS45NDQxKSByb3RhdGUoLTcwLjg3MiAuMTQyIDEuMTcpIiBmeT0iLTkuNzkyJSIgZng9IjgyLjk4NyUiIGN5PSItOS43OTIlIiBjeD0iODIuOTg3JSI+PHN0b3Agc3RvcC1jb2xvcj0iIzhDNDhGRiIgb2Zmc2V0PSI2LjYlIi8+PHN0b3Agc3RvcC1jb2xvcj0iI0YyNTk4QSIgb2Zmc2V0PSI1MCUiLz48c3RvcCBzdG9wLWNvbG9yPSIjRkZCMTUyIiBvZmZzZXQ9Ijg5LjYlIi8+PC9yYWRpYWxHcmFkaWVudD48bGluZWFyR3JhZGllbnQgeTI9IjEwMy43NzQlIiB5MT0iMTIuMTE3JSIgeDI9IjQ2Ljg4NCUiIHgxPSIzOS40NjUlIiBpZD0ibG9iZS1pY29ucy1jb3BpbG90LWZpbGwtMiI+PHN0b3Agc3RvcC1jb2xvcj0iIzBEOTFFMSIgb2Zmc2V0PSIxNS42JSIvPjxzdG9wIHN0b3AtY29sb3I9IiM1MkI0NzEiIG9mZnNldD0iNDguNyUiLz48c3RvcCBzdG9wLWNvbG9yPSIjOThCRDQyIiBvZmZzZXQ9IjY1LjIlIi8+PHN0b3Agc3RvcC1jb2xvcj0iI0ZGQzgwMCIgb2Zmc2V0PSI5My43JSIvPjwvbGluZWFyR3JhZGllbnQ+PGxpbmVhckdyYWRpZW50IHkyPSIxMDAlIiB5MT0iMCUiIHgyPSI1MCUiIHgxPSI0NS45NDklIiBpZD0ibG9iZS1pY29ucy1jb3BpbG90LWZpbGwtMyI+PHN0b3Agc3RvcC1jb2xvcj0iIzNEQ0JGRiIgb2Zmc2V0PSIwJSIvPjxzdG9wIHN0b3Atb3BhY2l0eT0iMCIgc3RvcC1jb2xvcj0iIzA1ODhGNyIgb2Zmc2V0PSIyNC43JSIvPjwvbGluZWFyR3JhZGllbnQ+PGxpbmVhckdyYWRpZW50IHkyPSIyMS4xMzElIiB5MT0iLTYuMTA2JSIgeDI9IjgzLjQ1MyUiIHgxPSI4My41MDclIiBpZD0ibG9iZS1pY29ucy1jb3BpbG90LWZpbGwtNSI+PHN0b3Agc3RvcC1jb2xvcj0iI0Y4QURGQSIgb2Zmc2V0PSI1LjglIi8+PHN0b3Agc3RvcC1vcGFjaXR5PSIwIiBzdG9wLWNvbG9yPSIjQTg2RUREIiBvZmZzZXQ9IjcwLjglIi8+PC9saW5lYXJHcmFkaWVudD48L2RlZnM+PGcgZmlsbC1ydWxlPSJub256ZXJvIiBmaWxsPSJub25lIj48cGF0aCB0cmFuc2Zvcm09InRyYW5zbGF0ZSgwIDEpIiBmaWxsPSJ1cmwoI2xvYmUtaWNvbnMtY29waWxvdC1maWxsLTApIiBkPSJNMTcuNTMzIDEuODI5QTIuNTI4IDIuNTI4IDAgMDAxNS4xMSAwaC0uNzM3YTIuNTMxIDIuNTMxIDAgMDAtMi40ODQgMi4wODdsLTEuMjYzIDYuOTM3LjMxNC0xLjA4YTIuNTI4IDIuNTI4IDAgMDEyLjQyNC0xLjgzM2g0LjI4NGwxLjc5Ny43MDYgMS43MzEtLjcwNmgtLjUwNWEyLjUyOCAyLjUyOCAwIDAxLTIuNDIzLTEuODI5bC0uNzE1LTIuNDUzeiIvPjxwYXRoIHRyYW5zZm9ybT0idHJhbnNsYXRlKDAgMSkiIGZpbGw9InVybCgjbG9iZS1pY29ucy1jb3BpbG90LWZpbGwtMSkiIGQ9Ik02LjcyNiAyMC4xNkEyLjUyOCAyLjUyOCAwIDAwOS4xNTIgMjJoMS41NjZjMS4zNyAwIDIuNDktMS4xIDIuNTI1LTIuNDhsLjE3LTYuNjktLjM1NyAxLjIyOGEyLjUyOCAyLjUyOCAwIDAxLTIuNDIzIDEuODNoLTQuMzJsLTEuNTQtLjg0Mi0xLjY2Ny44NDNoLjQ5N2MxLjEyNCAwIDIuMTEzLjc1IDIuNDI2IDEuODRsLjY5NyAyLjQzMnoiLz48cGF0aCB0cmFuc2Zvcm09InRyYW5zbGF0ZSgwIDEpIiBmaWxsPSJ1cmwoI2xvYmUtaWNvbnMtY29waWxvdC1maWxsLTIpIiBkPSJNMTUgMEg2LjI1MmMtMi41IDAtNCAzLjMzMS01IDYuNjYyLTEuMTg0IDMuOTQ3LTIuNzM0IDkuMjI1IDEuNzUgOS4yMjVINi43OGMxLjEzIDAgMi4xMi0uNzUzIDIuNDMtMS44NDcuNjU3LTIuMzE3IDEuODA5LTYuMzU5IDIuNzEzLTkuNDM2LjQ2LTEuNTYzLjg0Mi0yLjkwNiAxLjQzLTMuNzQyQTEuOTcgMS45NyAwIDAxMTUgMCIvPjxwYXRoIHRyYW5zZm9ybT0idHJhbnNsYXRlKDAgMSkiIGZpbGw9InVybCgjbG9iZS1pY29ucy1jb3BpbG90LWZpbGwtMykiIGQ9Ik0xNSAwSDYuMjUyYy0yLjUgMC00IDMuMzMxLTUgNi42NjItMS4xODQgMy45NDctMi43MzQgOS4yMjUgMS43NSA5LjIyNUg2Ljc4YzEuMTMgMCAyLjEyLS43NTMgMi40My0xLjg0Ny42NTctMi4zMTcgMS44MDktNi4zNTkgMi43MTMtOS40MzYuNDYtMS41NjMuODQyLTIuOTA2IDEuNDMtMy43NDJBMS45NyAxLjk3IDAgMDExNSAwIi8+PHBhdGggdHJhbnNmb3JtPSJ0cmFuc2xhdGUoMCAxKSIgZmlsbD0idXJsKCNsb2JlLWljb25zLWNvcGlsb3QtZmlsbC00KSIgZD0iTTkgMjJoOC43NDljMi41IDAgNC0zLjMzMiA1LTYuNjYzIDEuMTg0LTMuOTQ4IDIuNzM0LTkuMjI3LTEuNzUtOS4yMjdIMTcuMjJjLTEuMTI5IDAtMi4xMi43NTQtMi40MyAxLjg0OGExMTQ5LjIgMTE0OS4yIDAgMDEtMi43MTMgOS40MzdjLS40NiAxLjU2NC0uODQyIDIuOTA3LTEuNDMgMy43NDNBMS45NyAxLjk3IDAgMDE5IDIyIi8+PHBhdGggdHJhbnNmb3JtPSJ0cmFuc2xhdGUoMCAxKSIgZmlsbD0idXJsKCNsb2JlLWljb25zLWNvcGlsb3QtZmlsbC01KSIgZD0iTTkgMjJoOC43NDljMi41IDAgNC0zLjMzMiA1LTYuNjYzIDEuMTg0LTMuOTQ4IDIuNzM0LTkuMjI3LTEuNzUtOS4yMjdIMTcuMjJjLTEuMTI5IDAtMi4xMi43NTQtMi40MyAxLjg0OGExMTQ5LjIgMTE0OS4yIDAgMDEtMi43MTMgOS40MzdjLS40NiAxLjU2NC0uODQyIDIuOTA3LTEuNDMgMy43NDNBMS45NyAxLjk3IDAgMDE5IDIyIi8+PC9nPjwvc3ZnPg==;" parent="1" vertex="1">
          <mxGeometry x="868" y="1477" width="20" height="20" as="geometry" />
        </mxCell>
        <mxCell id="lBSA8WIBel6qRi3vPHOn-243" value="" style="shape=image;imageAspect=0;aspect=fixed;verticalLabelPosition=bottom;verticalAlign=top;image=data:image/svg+xml,PHN2ZyB4bWxucz0iaHR0cDovL3d3dy53My5vcmcvMjAwMC9zdmciIHdpZHRoPSIwLjk5OTk3MjE4NDQ5OTEwNDkiIHZpZXdCb3g9IjAuMDAwODMzODY4OTgwNDA3NzE0OCAwLjk5OTkxNzE0OTU0Mzc2MjIgMjMuOTk5MzMyNDI3OTc4NTE2IDIyLjAwMDE2NDAzMTk4MjQyMiIgc3R5bGU9ImZsZXg6bm9uZTtsaW5lLWhlaWdodDoxIiBoZWlnaHQ9IjAuOTE2NjczNTAxMzMyNjAxIj48dGl0bGU+Q29waWxvdDwvdGl0bGU+PGRlZnM+PHJhZGlhbEdyYWRpZW50IHI9IjEwNS4xMTYlIiBpZD0ibG9iZS1pY29ucy1jb3BpbG90LWZpbGwtMCIgZ3JhZGllbnRUcmFuc2Zvcm09InNjYWxlKC0uODU1MyAtMSkgcm90YXRlKDUwLjkyNyAyLjA0MSAtMS45NDYpIiBmeT0iMTAwLjY1MyUiIGZ4PSI4NS40NCUiIGN5PSIxMDAuNjUzJSIgY3g9Ijg1LjQ0JSI+PHN0b3Agc3RvcC1jb2xvcj0iIzAwQUVGRiIgb2Zmc2V0PSI5LjYlIi8+PHN0b3Agc3RvcC1jb2xvcj0iIzIyNTNDRSIgb2Zmc2V0PSI3Ny4zJSIvPjxzdG9wIHN0b3AtY29sb3I9IiMwNzM2QzQiIG9mZnNldD0iMTAwJSIvPjwvcmFkaWFsR3JhZGllbnQ+PHJhZGlhbEdyYWRpZW50IHI9Ijk1LjYxMiUiIGlkPSJsb2JlLWljb25zLWNvcGlsb3QtZmlsbC0xIiBncmFkaWVudFRyYW5zZm9ybT0ic2NhbGUoLjg4OTcgMSkgcm90YXRlKDUyLjA2OSAuMTkzIC4zNTIpIiBmeT0iMzIuOTI4JSIgZng9IjE4LjE0MyUiIGN5PSIzMi45MjglIiBjeD0iMTguMTQzJSI+PHN0b3Agc3RvcC1jb2xvcj0iI0ZGQjY1NyIgb2Zmc2V0PSIwJSIvPjxzdG9wIHN0b3AtY29sb3I9IiNGRjVGM0QiIG9mZnNldD0iNjMuNCUiLz48c3RvcCBzdG9wLWNvbG9yPSIjQzAyQjNDIiBvZmZzZXQ9IjkyLjMlIi8+PC9yYWRpYWxHcmFkaWVudD48cmFkaWFsR3JhZGllbnQgcj0iMTQwLjYyMiUiIGlkPSJsb2JlLWljb25zLWNvcGlsb3QtZmlsbC00IiBncmFkaWVudFRyYW5zZm9ybT0ic2NhbGUoLTEgLS45NDQxKSByb3RhdGUoLTcwLjg3MiAuMTQyIDEuMTcpIiBmeT0iLTkuNzkyJSIgZng9IjgyLjk4NyUiIGN5PSItOS43OTIlIiBjeD0iODIuOTg3JSI+PHN0b3Agc3RvcC1jb2xvcj0iIzhDNDhGRiIgb2Zmc2V0PSI2LjYlIi8+PHN0b3Agc3RvcC1jb2xvcj0iI0YyNTk4QSIgb2Zmc2V0PSI1MCUiLz48c3RvcCBzdG9wLWNvbG9yPSIjRkZCMTUyIiBvZmZzZXQ9Ijg5LjYlIi8+PC9yYWRpYWxHcmFkaWVudD48bGluZWFyR3JhZGllbnQgeTI9IjEwMy43NzQlIiB5MT0iMTIuMTE3JSIgeDI9IjQ2Ljg4NCUiIHgxPSIzOS40NjUlIiBpZD0ibG9iZS1pY29ucy1jb3BpbG90LWZpbGwtMiI+PHN0b3Agc3RvcC1jb2xvcj0iIzBEOTFFMSIgb2Zmc2V0PSIxNS42JSIvPjxzdG9wIHN0b3AtY29sb3I9IiM1MkI0NzEiIG9mZnNldD0iNDguNyUiLz48c3RvcCBzdG9wLWNvbG9yPSIjOThCRDQyIiBvZmZzZXQ9IjY1LjIlIi8+PHN0b3Agc3RvcC1jb2xvcj0iI0ZGQzgwMCIgb2Zmc2V0PSI5My43JSIvPjwvbGluZWFyR3JhZGllbnQ+PGxpbmVhckdyYWRpZW50IHkyPSIxMDAlIiB5MT0iMCUiIHgyPSI1MCUiIHgxPSI0NS45NDklIiBpZD0ibG9iZS1pY29ucy1jb3BpbG90LWZpbGwtMyI+PHN0b3Agc3RvcC1jb2xvcj0iIzNEQ0JGRiIgb2Zmc2V0PSIwJSIvPjxzdG9wIHN0b3Atb3BhY2l0eT0iMCIgc3RvcC1jb2xvcj0iIzA1ODhGNyIgb2Zmc2V0PSIyNC43JSIvPjwvbGluZWFyR3JhZGllbnQ+PGxpbmVhckdyYWRpZW50IHkyPSIyMS4xMzElIiB5MT0iLTYuMTA2JSIgeDI9IjgzLjQ1MyUiIHgxPSI4My41MDclIiBpZD0ibG9iZS1pY29ucy1jb3BpbG90LWZpbGwtNSI+PHN0b3Agc3RvcC1jb2xvcj0iI0Y4QURGQSIgb2Zmc2V0PSI1LjglIi8+PHN0b3Agc3RvcC1vcGFjaXR5PSIwIiBzdG9wLWNvbG9yPSIjQTg2RUREIiBvZmZzZXQ9IjcwLjglIi8+PC9saW5lYXJHcmFkaWVudD48L2RlZnM+PGcgZmlsbC1ydWxlPSJub256ZXJvIiBmaWxsPSJub25lIj48cGF0aCB0cmFuc2Zvcm09InRyYW5zbGF0ZSgwIDEpIiBmaWxsPSJ1cmwoI2xvYmUtaWNvbnMtY29waWxvdC1maWxsLTApIiBkPSJNMTcuNTMzIDEuODI5QTIuNTI4IDIuNTI4IDAgMDAxNS4xMSAwaC0uNzM3YTIuNTMxIDIuNTMxIDAgMDAtMi40ODQgMi4wODdsLTEuMjYzIDYuOTM3LjMxNC0xLjA4YTIuNTI4IDIuNTI4IDAgMDEyLjQyNC0xLjgzM2g0LjI4NGwxLjc5Ny43MDYgMS43MzEtLjcwNmgtLjUwNWEyLjUyOCAyLjUyOCAwIDAxLTIuNDIzLTEuODI5bC0uNzE1LTIuNDUzeiIvPjxwYXRoIHRyYW5zZm9ybT0idHJhbnNsYXRlKDAgMSkiIGZpbGw9InVybCgjbG9iZS1pY29ucy1jb3BpbG90LWZpbGwtMSkiIGQ9Ik02LjcyNiAyMC4xNkEyLjUyOCAyLjUyOCAwIDAwOS4xNTIgMjJoMS41NjZjMS4zNyAwIDIuNDktMS4xIDIuNTI1LTIuNDhsLjE3LTYuNjktLjM1NyAxLjIyOGEyLjUyOCAyLjUyOCAwIDAxLTIuNDIzIDEuODNoLTQuMzJsLTEuNTQtLjg0Mi0xLjY2Ny44NDNoLjQ5N2MxLjEyNCAwIDIuMTEzLjc1IDIuNDI2IDEuODRsLjY5NyAyLjQzMnoiLz48cGF0aCB0cmFuc2Zvcm09InRyYW5zbGF0ZSgwIDEpIiBmaWxsPSJ1cmwoI2xvYmUtaWNvbnMtY29waWxvdC1maWxsLTIpIiBkPSJNMTUgMEg2LjI1MmMtMi41IDAtNCAzLjMzMS01IDYuNjYyLTEuMTg0IDMuOTQ3LTIuNzM0IDkuMjI1IDEuNzUgOS4yMjVINi43OGMxLjEzIDAgMi4xMi0uNzUzIDIuNDMtMS44NDcuNjU3LTIuMzE3IDEuODA5LTYuMzU5IDIuNzEzLTkuNDM2LjQ2LTEuNTYzLjg0Mi0yLjkwNiAxLjQzLTMuNzQyQTEuOTcgMS45NyAwIDAxMTUgMCIvPjxwYXRoIHRyYW5zZm9ybT0idHJhbnNsYXRlKDAgMSkiIGZpbGw9InVybCgjbG9iZS1pY29ucy1jb3BpbG90LWZpbGwtMykiIGQ9Ik0xNSAwSDYuMjUyYy0yLjUgMC00IDMuMzMxLTUgNi42NjItMS4xODQgMy45NDctMi43MzQgOS4yMjUgMS43NSA5LjIyNUg2Ljc4YzEuMTMgMCAyLjEyLS43NTMgMi40My0xLjg0Ny42NTctMi4zMTcgMS44MDktNi4zNTkgMi43MTMtOS40MzYuNDYtMS41NjMuODQyLTIuOTA2IDEuNDMtMy43NDJBMS45NyAxLjk3IDAgMDExNSAwIi8+PHBhdGggdHJhbnNmb3JtPSJ0cmFuc2xhdGUoMCAxKSIgZmlsbD0idXJsKCNsb2JlLWljb25zLWNvcGlsb3QtZmlsbC00KSIgZD0iTTkgMjJoOC43NDljMi41IDAgNC0zLjMzMiA1LTYuNjYzIDEuMTg0LTMuOTQ4IDIuNzM0LTkuMjI3LTEuNzUtOS4yMjdIMTcuMjJjLTEuMTI5IDAtMi4xMi43NTQtMi40MyAxLjg0OGExMTQ5LjIgMTE0OS4yIDAgMDEtMi43MTMgOS40MzdjLS40NiAxLjU2NC0uODQyIDIuOTA3LTEuNDMgMy43NDNBMS45NyAxLjk3IDAgMDE5IDIyIi8+PHBhdGggdHJhbnNmb3JtPSJ0cmFuc2xhdGUoMCAxKSIgZmlsbD0idXJsKCNsb2JlLWljb25zLWNvcGlsb3QtZmlsbC01KSIgZD0iTTkgMjJoOC43NDljMi41IDAgNC0zLjMzMiA1LTYuNjYzIDEuMTg0LTMuOTQ4IDIuNzM0LTkuMjI3LTEuNzUtOS4yMjdIMTcuMjJjLTEuMTI5IDAtMi4xMi43NTQtMi40MyAxLjg0OGExMTQ5LjIgMTE0OS4yIDAgMDEtMi43MTMgOS40MzdjLS40NiAxLjU2NC0uODQyIDIuOTA3LTEuNDMgMy43NDNBMS45NyAxLjk3IDAgMDE5IDIyIi8+PC9nPjwvc3ZnPg==;" parent="1" vertex="1">
          <mxGeometry x="590" y="1477" width="20" height="20" as="geometry" />
        </mxCell>
        <mxCell id="lBSA8WIBel6qRi3vPHOn-244" value="" style="shape=image;imageAspect=0;aspect=fixed;verticalLabelPosition=bottom;verticalAlign=top;image=data:image/svg+xml,PHN2ZyB4bWxucz0iaHR0cDovL3d3dy53My5vcmcvMjAwMC9zdmciIHdpZHRoPSIwLjk5OTk3MjE4NDQ5OTEwNDkiIHZpZXdCb3g9IjAuMDAwODMzODY4OTgwNDA3NzE0OCAwLjk5OTkxNzE0OTU0Mzc2MjIgMjMuOTk5MzMyNDI3OTc4NTE2IDIyLjAwMDE2NDAzMTk4MjQyMiIgc3R5bGU9ImZsZXg6bm9uZTtsaW5lLWhlaWdodDoxIiBoZWlnaHQ9IjAuOTE2NjczNTAxMzMyNjAxIj48dGl0bGU+Q29waWxvdDwvdGl0bGU+PGRlZnM+PHJhZGlhbEdyYWRpZW50IHI9IjEwNS4xMTYlIiBpZD0ibG9iZS1pY29ucy1jb3BpbG90LWZpbGwtMCIgZ3JhZGllbnRUcmFuc2Zvcm09InNjYWxlKC0uODU1MyAtMSkgcm90YXRlKDUwLjkyNyAyLjA0MSAtMS45NDYpIiBmeT0iMTAwLjY1MyUiIGZ4PSI4NS40NCUiIGN5PSIxMDAuNjUzJSIgY3g9Ijg1LjQ0JSI+PHN0b3Agc3RvcC1jb2xvcj0iIzAwQUVGRiIgb2Zmc2V0PSI5LjYlIi8+PHN0b3Agc3RvcC1jb2xvcj0iIzIyNTNDRSIgb2Zmc2V0PSI3Ny4zJSIvPjxzdG9wIHN0b3AtY29sb3I9IiMwNzM2QzQiIG9mZnNldD0iMTAwJSIvPjwvcmFkaWFsR3JhZGllbnQ+PHJhZGlhbEdyYWRpZW50IHI9Ijk1LjYxMiUiIGlkPSJsb2JlLWljb25zLWNvcGlsb3QtZmlsbC0xIiBncmFkaWVudFRyYW5zZm9ybT0ic2NhbGUoLjg4OTcgMSkgcm90YXRlKDUyLjA2OSAuMTkzIC4zNTIpIiBmeT0iMzIuOTI4JSIgZng9IjE4LjE0MyUiIGN5PSIzMi45MjglIiBjeD0iMTguMTQzJSI+PHN0b3Agc3RvcC1jb2xvcj0iI0ZGQjY1NyIgb2Zmc2V0PSIwJSIvPjxzdG9wIHN0b3AtY29sb3I9IiNGRjVGM0QiIG9mZnNldD0iNjMuNCUiLz48c3RvcCBzdG9wLWNvbG9yPSIjQzAyQjNDIiBvZmZzZXQ9IjkyLjMlIi8+PC9yYWRpYWxHcmFkaWVudD48cmFkaWFsR3JhZGllbnQgcj0iMTQwLjYyMiUiIGlkPSJsb2JlLWljb25zLWNvcGlsb3QtZmlsbC00IiBncmFkaWVudFRyYW5zZm9ybT0ic2NhbGUoLTEgLS45NDQxKSByb3RhdGUoLTcwLjg3MiAuMTQyIDEuMTcpIiBmeT0iLTkuNzkyJSIgZng9IjgyLjk4NyUiIGN5PSItOS43OTIlIiBjeD0iODIuOTg3JSI+PHN0b3Agc3RvcC1jb2xvcj0iIzhDNDhGRiIgb2Zmc2V0PSI2LjYlIi8+PHN0b3Agc3RvcC1jb2xvcj0iI0YyNTk4QSIgb2Zmc2V0PSI1MCUiLz48c3RvcCBzdG9wLWNvbG9yPSIjRkZCMTUyIiBvZmZzZXQ9Ijg5LjYlIi8+PC9yYWRpYWxHcmFkaWVudD48bGluZWFyR3JhZGllbnQgeTI9IjEwMy43NzQlIiB5MT0iMTIuMTE3JSIgeDI9IjQ2Ljg4NCUiIHgxPSIzOS40NjUlIiBpZD0ibG9iZS1pY29ucy1jb3BpbG90LWZpbGwtMiI+PHN0b3Agc3RvcC1jb2xvcj0iIzBEOTFFMSIgb2Zmc2V0PSIxNS42JSIvPjxzdG9wIHN0b3AtY29sb3I9IiM1MkI0NzEiIG9mZnNldD0iNDguNyUiLz48c3RvcCBzdG9wLWNvbG9yPSIjOThCRDQyIiBvZmZzZXQ9IjY1LjIlIi8+PHN0b3Agc3RvcC1jb2xvcj0iI0ZGQzgwMCIgb2Zmc2V0PSI5My43JSIvPjwvbGluZWFyR3JhZGllbnQ+PGxpbmVhckdyYWRpZW50IHkyPSIxMDAlIiB5MT0iMCUiIHgyPSI1MCUiIHgxPSI0NS45NDklIiBpZD0ibG9iZS1pY29ucy1jb3BpbG90LWZpbGwtMyI+PHN0b3Agc3RvcC1jb2xvcj0iIzNEQ0JGRiIgb2Zmc2V0PSIwJSIvPjxzdG9wIHN0b3Atb3BhY2l0eT0iMCIgc3RvcC1jb2xvcj0iIzA1ODhGNyIgb2Zmc2V0PSIyNC43JSIvPjwvbGluZWFyR3JhZGllbnQ+PGxpbmVhckdyYWRpZW50IHkyPSIyMS4xMzElIiB5MT0iLTYuMTA2JSIgeDI9IjgzLjQ1MyUiIHgxPSI4My41MDclIiBpZD0ibG9iZS1pY29ucy1jb3BpbG90LWZpbGwtNSI+PHN0b3Agc3RvcC1jb2xvcj0iI0Y4QURGQSIgb2Zmc2V0PSI1LjglIi8+PHN0b3Agc3RvcC1vcGFjaXR5PSIwIiBzdG9wLWNvbG9yPSIjQTg2RUREIiBvZmZzZXQ9IjcwLjglIi8+PC9saW5lYXJHcmFkaWVudD48L2RlZnM+PGcgZmlsbC1ydWxlPSJub256ZXJvIiBmaWxsPSJub25lIj48cGF0aCB0cmFuc2Zvcm09InRyYW5zbGF0ZSgwIDEpIiBmaWxsPSJ1cmwoI2xvYmUtaWNvbnMtY29waWxvdC1maWxsLTApIiBkPSJNMTcuNTMzIDEuODI5QTIuNTI4IDIuNTI4IDAgMDAxNS4xMSAwaC0uNzM3YTIuNTMxIDIuNTMxIDAgMDAtMi40ODQgMi4wODdsLTEuMjYzIDYuOTM3LjMxNC0xLjA4YTIuNTI4IDIuNTI4IDAgMDEyLjQyNC0xLjgzM2g0LjI4NGwxLjc5Ny43MDYgMS43MzEtLjcwNmgtLjUwNWEyLjUyOCAyLjUyOCAwIDAxLTIuNDIzLTEuODI5bC0uNzE1LTIuNDUzeiIvPjxwYXRoIHRyYW5zZm9ybT0idHJhbnNsYXRlKDAgMSkiIGZpbGw9InVybCgjbG9iZS1pY29ucy1jb3BpbG90LWZpbGwtMSkiIGQ9Ik02LjcyNiAyMC4xNkEyLjUyOCAyLjUyOCAwIDAwOS4xNTIgMjJoMS41NjZjMS4zNyAwIDIuNDktMS4xIDIuNTI1LTIuNDhsLjE3LTYuNjktLjM1NyAxLjIyOGEyLjUyOCAyLjUyOCAwIDAxLTIuNDIzIDEuODNoLTQuMzJsLTEuNTQtLjg0Mi0xLjY2Ny44NDNoLjQ5N2MxLjEyNCAwIDIuMTEzLjc1IDIuNDI2IDEuODRsLjY5NyAyLjQzMnoiLz48cGF0aCB0cmFuc2Zvcm09InRyYW5zbGF0ZSgwIDEpIiBmaWxsPSJ1cmwoI2xvYmUtaWNvbnMtY29waWxvdC1maWxsLTIpIiBkPSJNMTUgMEg2LjI1MmMtMi41IDAtNCAzLjMzMS01IDYuNjYyLTEuMTg0IDMuOTQ3LTIuNzM0IDkuMjI1IDEuNzUgOS4yMjVINi43OGMxLjEzIDAgMi4xMi0uNzUzIDIuNDMtMS44NDcuNjU3LTIuMzE3IDEuODA5LTYuMzU5IDIuNzEzLTkuNDM2LjQ2LTEuNTYzLjg0Mi0yLjkwNiAxLjQzLTMuNzQyQTEuOTcgMS45NyAwIDAxMTUgMCIvPjxwYXRoIHRyYW5zZm9ybT0idHJhbnNsYXRlKDAgMSkiIGZpbGw9InVybCgjbG9iZS1pY29ucy1jb3BpbG90LWZpbGwtMykiIGQ9Ik0xNSAwSDYuMjUyYy0yLjUgMC00IDMuMzMxLTUgNi42NjItMS4xODQgMy45NDctMi43MzQgOS4yMjUgMS43NSA5LjIyNUg2Ljc4YzEuMTMgMCAyLjEyLS43NTMgMi40My0xLjg0Ny42NTctMi4zMTcgMS44MDktNi4zNTkgMi43MTMtOS40MzYuNDYtMS41NjMuODQyLTIuOTA2IDEuNDMtMy43NDJBMS45NyAxLjk3IDAgMDExNSAwIi8+PHBhdGggdHJhbnNmb3JtPSJ0cmFuc2xhdGUoMCAxKSIgZmlsbD0idXJsKCNsb2JlLWljb25zLWNvcGlsb3QtZmlsbC00KSIgZD0iTTkgMjJoOC43NDljMi41IDAgNC0zLjMzMiA1LTYuNjYzIDEuMTg0LTMuOTQ4IDIuNzM0LTkuMjI3LTEuNzUtOS4yMjdIMTcuMjJjLTEuMTI5IDAtMi4xMi43NTQtMi40MyAxLjg0OGExMTQ5LjIgMTE0OS4yIDAgMDEtMi43MTMgOS40MzdjLS40NiAxLjU2NC0uODQyIDIuOTA3LTEuNDMgMy43NDNBMS45NyAxLjk3IDAgMDE5IDIyIi8+PHBhdGggdHJhbnNmb3JtPSJ0cmFuc2xhdGUoMCAxKSIgZmlsbD0idXJsKCNsb2JlLWljb25zLWNvcGlsb3QtZmlsbC01KSIgZD0iTTkgMjJoOC43NDljMi41IDAgNC0zLjMzMiA1LTYuNjYzIDEuMTg0LTMuOTQ4IDIuNzM0LTkuMjI3LTEuNzUtOS4yMjdIMTcuMjJjLTEuMTI5IDAtMi4xMi43NTQtMi40MyAxLjg0OGExMTQ5LjIgMTE0OS4yIDAgMDEtMi43MTMgOS40MzdjLS40NiAxLjU2NC0uODQyIDIuOTA3LTEuNDMgMy43NDNBMS45NyAxLjk3IDAgMDE5IDIyIi8+PC9nPjwvc3ZnPg==;" parent="1" vertex="1">
          <mxGeometry x="2017" y="1478" width="20" height="20" as="geometry" />
        </mxCell>
        <mxCell id="lBSA8WIBel6qRi3vPHOn-245" value="" style="shape=image;imageAspect=0;aspect=fixed;verticalLabelPosition=bottom;verticalAlign=top;image=data:image/svg+xml,PHN2ZyB4bWxucz0iaHR0cDovL3d3dy53My5vcmcvMjAwMC9zdmciIHdpZHRoPSIwLjk5OTk3MjE4NDQ5OTEwNDkiIHZpZXdCb3g9IjAuMDAwODMzODY4OTgwNDA3NzE0OCAwLjk5OTkxNzE0OTU0Mzc2MjIgMjMuOTk5MzMyNDI3OTc4NTE2IDIyLjAwMDE2NDAzMTk4MjQyMiIgc3R5bGU9ImZsZXg6bm9uZTtsaW5lLWhlaWdodDoxIiBoZWlnaHQ9IjAuOTE2NjczNTAxMzMyNjAxIj48dGl0bGU+Q29waWxvdDwvdGl0bGU+PGRlZnM+PHJhZGlhbEdyYWRpZW50IHI9IjEwNS4xMTYlIiBpZD0ibG9iZS1pY29ucy1jb3BpbG90LWZpbGwtMCIgZ3JhZGllbnRUcmFuc2Zvcm09InNjYWxlKC0uODU1MyAtMSkgcm90YXRlKDUwLjkyNyAyLjA0MSAtMS45NDYpIiBmeT0iMTAwLjY1MyUiIGZ4PSI4NS40NCUiIGN5PSIxMDAuNjUzJSIgY3g9Ijg1LjQ0JSI+PHN0b3Agc3RvcC1jb2xvcj0iIzAwQUVGRiIgb2Zmc2V0PSI5LjYlIi8+PHN0b3Agc3RvcC1jb2xvcj0iIzIyNTNDRSIgb2Zmc2V0PSI3Ny4zJSIvPjxzdG9wIHN0b3AtY29sb3I9IiMwNzM2QzQiIG9mZnNldD0iMTAwJSIvPjwvcmFkaWFsR3JhZGllbnQ+PHJhZGlhbEdyYWRpZW50IHI9Ijk1LjYxMiUiIGlkPSJsb2JlLWljb25zLWNvcGlsb3QtZmlsbC0xIiBncmFkaWVudFRyYW5zZm9ybT0ic2NhbGUoLjg4OTcgMSkgcm90YXRlKDUyLjA2OSAuMTkzIC4zNTIpIiBmeT0iMzIuOTI4JSIgZng9IjE4LjE0MyUiIGN5PSIzMi45MjglIiBjeD0iMTguMTQzJSI+PHN0b3Agc3RvcC1jb2xvcj0iI0ZGQjY1NyIgb2Zmc2V0PSIwJSIvPjxzdG9wIHN0b3AtY29sb3I9IiNGRjVGM0QiIG9mZnNldD0iNjMuNCUiLz48c3RvcCBzdG9wLWNvbG9yPSIjQzAyQjNDIiBvZmZzZXQ9IjkyLjMlIi8+PC9yYWRpYWxHcmFkaWVudD48cmFkaWFsR3JhZGllbnQgcj0iMTQwLjYyMiUiIGlkPSJsb2JlLWljb25zLWNvcGlsb3QtZmlsbC00IiBncmFkaWVudFRyYW5zZm9ybT0ic2NhbGUoLTEgLS45NDQxKSByb3RhdGUoLTcwLjg3MiAuMTQyIDEuMTcpIiBmeT0iLTkuNzkyJSIgZng9IjgyLjk4NyUiIGN5PSItOS43OTIlIiBjeD0iODIuOTg3JSI+PHN0b3Agc3RvcC1jb2xvcj0iIzhDNDhGRiIgb2Zmc2V0PSI2LjYlIi8+PHN0b3Agc3RvcC1jb2xvcj0iI0YyNTk4QSIgb2Zmc2V0PSI1MCUiLz48c3RvcCBzdG9wLWNvbG9yPSIjRkZCMTUyIiBvZmZzZXQ9Ijg5LjYlIi8+PC9yYWRpYWxHcmFkaWVudD48bGluZWFyR3JhZGllbnQgeTI9IjEwMy43NzQlIiB5MT0iMTIuMTE3JSIgeDI9IjQ2Ljg4NCUiIHgxPSIzOS40NjUlIiBpZD0ibG9iZS1pY29ucy1jb3BpbG90LWZpbGwtMiI+PHN0b3Agc3RvcC1jb2xvcj0iIzBEOTFFMSIgb2Zmc2V0PSIxNS42JSIvPjxzdG9wIHN0b3AtY29sb3I9IiM1MkI0NzEiIG9mZnNldD0iNDguNyUiLz48c3RvcCBzdG9wLWNvbG9yPSIjOThCRDQyIiBvZmZzZXQ9IjY1LjIlIi8+PHN0b3Agc3RvcC1jb2xvcj0iI0ZGQzgwMCIgb2Zmc2V0PSI5My43JSIvPjwvbGluZWFyR3JhZGllbnQ+PGxpbmVhckdyYWRpZW50IHkyPSIxMDAlIiB5MT0iMCUiIHgyPSI1MCUiIHgxPSI0NS45NDklIiBpZD0ibG9iZS1pY29ucy1jb3BpbG90LWZpbGwtMyI+PHN0b3Agc3RvcC1jb2xvcj0iIzNEQ0JGRiIgb2Zmc2V0PSIwJSIvPjxzdG9wIHN0b3Atb3BhY2l0eT0iMCIgc3RvcC1jb2xvcj0iIzA1ODhGNyIgb2Zmc2V0PSIyNC43JSIvPjwvbGluZWFyR3JhZGllbnQ+PGxpbmVhckdyYWRpZW50IHkyPSIyMS4xMzElIiB5MT0iLTYuMTA2JSIgeDI9IjgzLjQ1MyUiIHgxPSI4My41MDclIiBpZD0ibG9iZS1pY29ucy1jb3BpbG90LWZpbGwtNSI+PHN0b3Agc3RvcC1jb2xvcj0iI0Y4QURGQSIgb2Zmc2V0PSI1LjglIi8+PHN0b3Agc3RvcC1vcGFjaXR5PSIwIiBzdG9wLWNvbG9yPSIjQTg2RUREIiBvZmZzZXQ9IjcwLjglIi8+PC9saW5lYXJHcmFkaWVudD48L2RlZnM+PGcgZmlsbC1ydWxlPSJub256ZXJvIiBmaWxsPSJub25lIj48cGF0aCB0cmFuc2Zvcm09InRyYW5zbGF0ZSgwIDEpIiBmaWxsPSJ1cmwoI2xvYmUtaWNvbnMtY29waWxvdC1maWxsLTApIiBkPSJNMTcuNTMzIDEuODI5QTIuNTI4IDIuNTI4IDAgMDAxNS4xMSAwaC0uNzM3YTIuNTMxIDIuNTMxIDAgMDAtMi40ODQgMi4wODdsLTEuMjYzIDYuOTM3LjMxNC0xLjA4YTIuNTI4IDIuNTI4IDAgMDEyLjQyNC0xLjgzM2g0LjI4NGwxLjc5Ny43MDYgMS43MzEtLjcwNmgtLjUwNWEyLjUyOCAyLjUyOCAwIDAxLTIuNDIzLTEuODI5bC0uNzE1LTIuNDUzeiIvPjxwYXRoIHRyYW5zZm9ybT0idHJhbnNsYXRlKDAgMSkiIGZpbGw9InVybCgjbG9iZS1pY29ucy1jb3BpbG90LWZpbGwtMSkiIGQ9Ik02LjcyNiAyMC4xNkEyLjUyOCAyLjUyOCAwIDAwOS4xNTIgMjJoMS41NjZjMS4zNyAwIDIuNDktMS4xIDIuNTI1LTIuNDhsLjE3LTYuNjktLjM1NyAxLjIyOGEyLjUyOCAyLjUyOCAwIDAxLTIuNDIzIDEuODNoLTQuMzJsLTEuNTQtLjg0Mi0xLjY2Ny44NDNoLjQ5N2MxLjEyNCAwIDIuMTEzLjc1IDIuNDI2IDEuODRsLjY5NyAyLjQzMnoiLz48cGF0aCB0cmFuc2Zvcm09InRyYW5zbGF0ZSgwIDEpIiBmaWxsPSJ1cmwoI2xvYmUtaWNvbnMtY29waWxvdC1maWxsLTIpIiBkPSJNMTUgMEg2LjI1MmMtMi41IDAtNCAzLjMzMS01IDYuNjYyLTEuMTg0IDMuOTQ3LTIuNzM0IDkuMjI1IDEuNzUgOS4yMjVINi43OGMxLjEzIDAgMi4xMi0uNzUzIDIuNDMtMS44NDcuNjU3LTIuMzE3IDEuODA5LTYuMzU5IDIuNzEzLTkuNDM2LjQ2LTEuNTYzLjg0Mi0yLjkwNiAxLjQzLTMuNzQyQTEuOTcgMS45NyAwIDAxMTUgMCIvPjxwYXRoIHRyYW5zZm9ybT0idHJhbnNsYXRlKDAgMSkiIGZpbGw9InVybCgjbG9iZS1pY29ucy1jb3BpbG90LWZpbGwtMykiIGQ9Ik0xNSAwSDYuMjUyYy0yLjUgMC00IDMuMzMxLTUgNi42NjItMS4xODQgMy45NDctMi43MzQgOS4yMjUgMS43NSA5LjIyNUg2Ljc4YzEuMTMgMCAyLjEyLS43NTMgMi40My0xLjg0Ny42NTctMi4zMTcgMS44MDktNi4zNTkgMi43MTMtOS40MzYuNDYtMS41NjMuODQyLTIuOTA2IDEuNDMtMy43NDJBMS45NyAxLjk3IDAgMDExNSAwIi8+PHBhdGggdHJhbnNmb3JtPSJ0cmFuc2xhdGUoMCAxKSIgZmlsbD0idXJsKCNsb2JlLWljb25zLWNvcGlsb3QtZmlsbC00KSIgZD0iTTkgMjJoOC43NDljMi41IDAgNC0zLjMzMiA1LTYuNjYzIDEuMTg0LTMuOTQ4IDIuNzM0LTkuMjI3LTEuNzUtOS4yMjdIMTcuMjJjLTEuMTI5IDAtMi4xMi43NTQtMi40MyAxLjg0OGExMTQ5LjIgMTE0OS4yIDAgMDEtMi43MTMgOS40MzdjLS40NiAxLjU2NC0uODQyIDIuOTA3LTEuNDMgMy43NDNBMS45NyAxLjk3IDAgMDE5IDIyIi8+PHBhdGggdHJhbnNmb3JtPSJ0cmFuc2xhdGUoMCAxKSIgZmlsbD0idXJsKCNsb2JlLWljb25zLWNvcGlsb3QtZmlsbC01KSIgZD0iTTkgMjJoOC43NDljMi41IDAgNC0zLjMzMiA1LTYuNjYzIDEuMTg0LTMuOTQ4IDIuNzM0LTkuMjI3LTEuNzUtOS4yMjdIMTcuMjJjLTEuMTI5IDAtMi4xMi43NTQtMi40MyAxLjg0OGExMTQ5LjIgMTE0OS4yIDAgMDEtMi43MTMgOS40MzdjLS40NiAxLjU2NC0uODQyIDIuOTA3LTEuNDMgMy43NDNBMS45NyAxLjk3IDAgMDE5IDIyIi8+PC9nPjwvc3ZnPg==;" parent="1" vertex="1">
          <mxGeometry x="2316" y="1477" width="20" height="20" as="geometry" />
        </mxCell>
        <mxCell id="lBSA8WIBel6qRi3vPHOn-246" value="" style="shape=image;imageAspect=0;aspect=fixed;verticalLabelPosition=bottom;verticalAlign=top;image=data:image/svg+xml,PHN2ZyB4bWxucz0iaHR0cDovL3d3dy53My5vcmcvMjAwMC9zdmciIHdpZHRoPSIwLjk5OTk3MjE4NDQ5OTEwNDkiIHZpZXdCb3g9IjAuMDAwODMzODY4OTgwNDA3NzE0OCAwLjk5OTkxNzE0OTU0Mzc2MjIgMjMuOTk5MzMyNDI3OTc4NTE2IDIyLjAwMDE2NDAzMTk4MjQyMiIgc3R5bGU9ImZsZXg6bm9uZTtsaW5lLWhlaWdodDoxIiBoZWlnaHQ9IjAuOTE2NjczNTAxMzMyNjAxIj48dGl0bGU+Q29waWxvdDwvdGl0bGU+PGRlZnM+PHJhZGlhbEdyYWRpZW50IHI9IjEwNS4xMTYlIiBpZD0ibG9iZS1pY29ucy1jb3BpbG90LWZpbGwtMCIgZ3JhZGllbnRUcmFuc2Zvcm09InNjYWxlKC0uODU1MyAtMSkgcm90YXRlKDUwLjkyNyAyLjA0MSAtMS45NDYpIiBmeT0iMTAwLjY1MyUiIGZ4PSI4NS40NCUiIGN5PSIxMDAuNjUzJSIgY3g9Ijg1LjQ0JSI+PHN0b3Agc3RvcC1jb2xvcj0iIzAwQUVGRiIgb2Zmc2V0PSI5LjYlIi8+PHN0b3Agc3RvcC1jb2xvcj0iIzIyNTNDRSIgb2Zmc2V0PSI3Ny4zJSIvPjxzdG9wIHN0b3AtY29sb3I9IiMwNzM2QzQiIG9mZnNldD0iMTAwJSIvPjwvcmFkaWFsR3JhZGllbnQ+PHJhZGlhbEdyYWRpZW50IHI9Ijk1LjYxMiUiIGlkPSJsb2JlLWljb25zLWNvcGlsb3QtZmlsbC0xIiBncmFkaWVudFRyYW5zZm9ybT0ic2NhbGUoLjg4OTcgMSkgcm90YXRlKDUyLjA2OSAuMTkzIC4zNTIpIiBmeT0iMzIuOTI4JSIgZng9IjE4LjE0MyUiIGN5PSIzMi45MjglIiBjeD0iMTguMTQzJSI+PHN0b3Agc3RvcC1jb2xvcj0iI0ZGQjY1NyIgb2Zmc2V0PSIwJSIvPjxzdG9wIHN0b3AtY29sb3I9IiNGRjVGM0QiIG9mZnNldD0iNjMuNCUiLz48c3RvcCBzdG9wLWNvbG9yPSIjQzAyQjNDIiBvZmZzZXQ9IjkyLjMlIi8+PC9yYWRpYWxHcmFkaWVudD48cmFkaWFsR3JhZGllbnQgcj0iMTQwLjYyMiUiIGlkPSJsb2JlLWljb25zLWNvcGlsb3QtZmlsbC00IiBncmFkaWVudFRyYW5zZm9ybT0ic2NhbGUoLTEgLS45NDQxKSByb3RhdGUoLTcwLjg3MiAuMTQyIDEuMTcpIiBmeT0iLTkuNzkyJSIgZng9IjgyLjk4NyUiIGN5PSItOS43OTIlIiBjeD0iODIuOTg3JSI+PHN0b3Agc3RvcC1jb2xvcj0iIzhDNDhGRiIgb2Zmc2V0PSI2LjYlIi8+PHN0b3Agc3RvcC1jb2xvcj0iI0YyNTk4QSIgb2Zmc2V0PSI1MCUiLz48c3RvcCBzdG9wLWNvbG9yPSIjRkZCMTUyIiBvZmZzZXQ9Ijg5LjYlIi8+PC9yYWRpYWxHcmFkaWVudD48bGluZWFyR3JhZGllbnQgeTI9IjEwMy43NzQlIiB5MT0iMTIuMTE3JSIgeDI9IjQ2Ljg4NCUiIHgxPSIzOS40NjUlIiBpZD0ibG9iZS1pY29ucy1jb3BpbG90LWZpbGwtMiI+PHN0b3Agc3RvcC1jb2xvcj0iIzBEOTFFMSIgb2Zmc2V0PSIxNS42JSIvPjxzdG9wIHN0b3AtY29sb3I9IiM1MkI0NzEiIG9mZnNldD0iNDguNyUiLz48c3RvcCBzdG9wLWNvbG9yPSIjOThCRDQyIiBvZmZzZXQ9IjY1LjIlIi8+PHN0b3Agc3RvcC1jb2xvcj0iI0ZGQzgwMCIgb2Zmc2V0PSI5My43JSIvPjwvbGluZWFyR3JhZGllbnQ+PGxpbmVhckdyYWRpZW50IHkyPSIxMDAlIiB5MT0iMCUiIHgyPSI1MCUiIHgxPSI0NS45NDklIiBpZD0ibG9iZS1pY29ucy1jb3BpbG90LWZpbGwtMyI+PHN0b3Agc3RvcC1jb2xvcj0iIzNEQ0JGRiIgb2Zmc2V0PSIwJSIvPjxzdG9wIHN0b3Atb3BhY2l0eT0iMCIgc3RvcC1jb2xvcj0iIzA1ODhGNyIgb2Zmc2V0PSIyNC43JSIvPjwvbGluZWFyR3JhZGllbnQ+PGxpbmVhckdyYWRpZW50IHkyPSIyMS4xMzElIiB5MT0iLTYuMTA2JSIgeDI9IjgzLjQ1MyUiIHgxPSI4My41MDclIiBpZD0ibG9iZS1pY29ucy1jb3BpbG90LWZpbGwtNSI+PHN0b3Agc3RvcC1jb2xvcj0iI0Y4QURGQSIgb2Zmc2V0PSI1LjglIi8+PHN0b3Agc3RvcC1vcGFjaXR5PSIwIiBzdG9wLWNvbG9yPSIjQTg2RUREIiBvZmZzZXQ9IjcwLjglIi8+PC9saW5lYXJHcmFkaWVudD48L2RlZnM+PGcgZmlsbC1ydWxlPSJub256ZXJvIiBmaWxsPSJub25lIj48cGF0aCB0cmFuc2Zvcm09InRyYW5zbGF0ZSgwIDEpIiBmaWxsPSJ1cmwoI2xvYmUtaWNvbnMtY29waWxvdC1maWxsLTApIiBkPSJNMTcuNTMzIDEuODI5QTIuNTI4IDIuNTI4IDAgMDAxNS4xMSAwaC0uNzM3YTIuNTMxIDIuNTMxIDAgMDAtMi40ODQgMi4wODdsLTEuMjYzIDYuOTM3LjMxNC0xLjA4YTIuNTI4IDIuNTI4IDAgMDEyLjQyNC0xLjgzM2g0LjI4NGwxLjc5Ny43MDYgMS43MzEtLjcwNmgtLjUwNWEyLjUyOCAyLjUyOCAwIDAxLTIuNDIzLTEuODI5bC0uNzE1LTIuNDUzeiIvPjxwYXRoIHRyYW5zZm9ybT0idHJhbnNsYXRlKDAgMSkiIGZpbGw9InVybCgjbG9iZS1pY29ucy1jb3BpbG90LWZpbGwtMSkiIGQ9Ik02LjcyNiAyMC4xNkEyLjUyOCAyLjUyOCAwIDAwOS4xNTIgMjJoMS41NjZjMS4zNyAwIDIuNDktMS4xIDIuNTI1LTIuNDhsLjE3LTYuNjktLjM1NyAxLjIyOGEyLjUyOCAyLjUyOCAwIDAxLTIuNDIzIDEuODNoLTQuMzJsLTEuNTQtLjg0Mi0xLjY2Ny44NDNoLjQ5N2MxLjEyNCAwIDIuMTEzLjc1IDIuNDI2IDEuODRsLjY5NyAyLjQzMnoiLz48cGF0aCB0cmFuc2Zvcm09InRyYW5zbGF0ZSgwIDEpIiBmaWxsPSJ1cmwoI2xvYmUtaWNvbnMtY29waWxvdC1maWxsLTIpIiBkPSJNMTUgMEg2LjI1MmMtMi41IDAtNCAzLjMzMS01IDYuNjYyLTEuMTg0IDMuOTQ3LTIuNzM0IDkuMjI1IDEuNzUgOS4yMjVINi43OGMxLjEzIDAgMi4xMi0uNzUzIDIuNDMtMS44NDcuNjU3LTIuMzE3IDEuODA5LTYuMzU5IDIuNzEzLTkuNDM2LjQ2LTEuNTYzLjg0Mi0yLjkwNiAxLjQzLTMuNzQyQTEuOTcgMS45NyAwIDAxMTUgMCIvPjxwYXRoIHRyYW5zZm9ybT0idHJhbnNsYXRlKDAgMSkiIGZpbGw9InVybCgjbG9iZS1pY29ucy1jb3BpbG90LWZpbGwtMykiIGQ9Ik0xNSAwSDYuMjUyYy0yLjUgMC00IDMuMzMxLTUgNi42NjItMS4xODQgMy45NDctMi43MzQgOS4yMjUgMS43NSA5LjIyNUg2Ljc4YzEuMTMgMCAyLjEyLS43NTMgMi40My0xLjg0Ny42NTctMi4zMTcgMS44MDktNi4zNTkgMi43MTMtOS40MzYuNDYtMS41NjMuODQyLTIuOTA2IDEuNDMtMy43NDJBMS45NyAxLjk3IDAgMDExNSAwIi8+PHBhdGggdHJhbnNmb3JtPSJ0cmFuc2xhdGUoMCAxKSIgZmlsbD0idXJsKCNsb2JlLWljb25zLWNvcGlsb3QtZmlsbC00KSIgZD0iTTkgMjJoOC43NDljMi41IDAgNC0zLjMzMiA1LTYuNjYzIDEuMTg0LTMuOTQ4IDIuNzM0LTkuMjI3LTEuNzUtOS4yMjdIMTcuMjJjLTEuMTI5IDAtMi4xMi43NTQtMi40MyAxLjg0OGExMTQ5LjIgMTE0OS4yIDAgMDEtMi43MTMgOS40MzdjLS40NiAxLjU2NC0uODQyIDIuOTA3LTEuNDMgMy43NDNBMS45NyAxLjk3IDAgMDE5IDIyIi8+PHBhdGggdHJhbnNmb3JtPSJ0cmFuc2xhdGUoMCAxKSIgZmlsbD0idXJsKCNsb2JlLWljb25zLWNvcGlsb3QtZmlsbC01KSIgZD0iTTkgMjJoOC43NDljMi41IDAgNC0zLjMzMiA1LTYuNjYzIDEuMTg0LTMuOTQ4IDIuNzM0LTkuMjI3LTEuNzUtOS4yMjdIMTcuMjJjLTEuMTI5IDAtMi4xMi43NTQtMi40MyAxLjg0OGExMTQ5LjIgMTE0OS4yIDAgMDEtMi43MTMgOS40MzdjLS40NiAxLjU2NC0uODQyIDIuOTA3LTEuNDMgMy43NDNBMS45NyAxLjk3IDAgMDE5IDIyIi8+PC9nPjwvc3ZnPg==;" parent="1" vertex="1">
          <mxGeometry x="2594" y="1478" width="20" height="20" as="geometry" />
        </mxCell>
        <mxCell id="lBSA8WIBel6qRi3vPHOn-247" value="" style="shape=image;imageAspect=0;aspect=fixed;verticalLabelPosition=bottom;verticalAlign=top;image=data:image/svg+xml,PHN2ZyB4bWxucz0iaHR0cDovL3d3dy53My5vcmcvMjAwMC9zdmciIHdpZHRoPSIwLjk5OTk3MjE4NDQ5OTEwNDkiIHZpZXdCb3g9IjAuMDAwODMzODY4OTgwNDA3NzE0OCAwLjk5OTkxNzE0OTU0Mzc2MjIgMjMuOTk5MzMyNDI3OTc4NTE2IDIyLjAwMDE2NDAzMTk4MjQyMiIgc3R5bGU9ImZsZXg6bm9uZTtsaW5lLWhlaWdodDoxIiBoZWlnaHQ9IjAuOTE2NjczNTAxMzMyNjAxIj48dGl0bGU+Q29waWxvdDwvdGl0bGU+PGRlZnM+PHJhZGlhbEdyYWRpZW50IHI9IjEwNS4xMTYlIiBpZD0ibG9iZS1pY29ucy1jb3BpbG90LWZpbGwtMCIgZ3JhZGllbnRUcmFuc2Zvcm09InNjYWxlKC0uODU1MyAtMSkgcm90YXRlKDUwLjkyNyAyLjA0MSAtMS45NDYpIiBmeT0iMTAwLjY1MyUiIGZ4PSI4NS40NCUiIGN5PSIxMDAuNjUzJSIgY3g9Ijg1LjQ0JSI+PHN0b3Agc3RvcC1jb2xvcj0iIzAwQUVGRiIgb2Zmc2V0PSI5LjYlIi8+PHN0b3Agc3RvcC1jb2xvcj0iIzIyNTNDRSIgb2Zmc2V0PSI3Ny4zJSIvPjxzdG9wIHN0b3AtY29sb3I9IiMwNzM2QzQiIG9mZnNldD0iMTAwJSIvPjwvcmFkaWFsR3JhZGllbnQ+PHJhZGlhbEdyYWRpZW50IHI9Ijk1LjYxMiUiIGlkPSJsb2JlLWljb25zLWNvcGlsb3QtZmlsbC0xIiBncmFkaWVudFRyYW5zZm9ybT0ic2NhbGUoLjg4OTcgMSkgcm90YXRlKDUyLjA2OSAuMTkzIC4zNTIpIiBmeT0iMzIuOTI4JSIgZng9IjE4LjE0MyUiIGN5PSIzMi45MjglIiBjeD0iMTguMTQzJSI+PHN0b3Agc3RvcC1jb2xvcj0iI0ZGQjY1NyIgb2Zmc2V0PSIwJSIvPjxzdG9wIHN0b3AtY29sb3I9IiNGRjVGM0QiIG9mZnNldD0iNjMuNCUiLz48c3RvcCBzdG9wLWNvbG9yPSIjQzAyQjNDIiBvZmZzZXQ9IjkyLjMlIi8+PC9yYWRpYWxHcmFkaWVudD48cmFkaWFsR3JhZGllbnQgcj0iMTQwLjYyMiUiIGlkPSJsb2JlLWljb25zLWNvcGlsb3QtZmlsbC00IiBncmFkaWVudFRyYW5zZm9ybT0ic2NhbGUoLTEgLS45NDQxKSByb3RhdGUoLTcwLjg3MiAuMTQyIDEuMTcpIiBmeT0iLTkuNzkyJSIgZng9IjgyLjk4NyUiIGN5PSItOS43OTIlIiBjeD0iODIuOTg3JSI+PHN0b3Agc3RvcC1jb2xvcj0iIzhDNDhGRiIgb2Zmc2V0PSI2LjYlIi8+PHN0b3Agc3RvcC1jb2xvcj0iI0YyNTk4QSIgb2Zmc2V0PSI1MCUiLz48c3RvcCBzdG9wLWNvbG9yPSIjRkZCMTUyIiBvZmZzZXQ9Ijg5LjYlIi8+PC9yYWRpYWxHcmFkaWVudD48bGluZWFyR3JhZGllbnQgeTI9IjEwMy43NzQlIiB5MT0iMTIuMTE3JSIgeDI9IjQ2Ljg4NCUiIHgxPSIzOS40NjUlIiBpZD0ibG9iZS1pY29ucy1jb3BpbG90LWZpbGwtMiI+PHN0b3Agc3RvcC1jb2xvcj0iIzBEOTFFMSIgb2Zmc2V0PSIxNS42JSIvPjxzdG9wIHN0b3AtY29sb3I9IiM1MkI0NzEiIG9mZnNldD0iNDguNyUiLz48c3RvcCBzdG9wLWNvbG9yPSIjOThCRDQyIiBvZmZzZXQ9IjY1LjIlIi8+PHN0b3Agc3RvcC1jb2xvcj0iI0ZGQzgwMCIgb2Zmc2V0PSI5My43JSIvPjwvbGluZWFyR3JhZGllbnQ+PGxpbmVhckdyYWRpZW50IHkyPSIxMDAlIiB5MT0iMCUiIHgyPSI1MCUiIHgxPSI0NS45NDklIiBpZD0ibG9iZS1pY29ucy1jb3BpbG90LWZpbGwtMyI+PHN0b3Agc3RvcC1jb2xvcj0iIzNEQ0JGRiIgb2Zmc2V0PSIwJSIvPjxzdG9wIHN0b3Atb3BhY2l0eT0iMCIgc3RvcC1jb2xvcj0iIzA1ODhGNyIgb2Zmc2V0PSIyNC43JSIvPjwvbGluZWFyR3JhZGllbnQ+PGxpbmVhckdyYWRpZW50IHkyPSIyMS4xMzElIiB5MT0iLTYuMTA2JSIgeDI9IjgzLjQ1MyUiIHgxPSI4My41MDclIiBpZD0ibG9iZS1pY29ucy1jb3BpbG90LWZpbGwtNSI+PHN0b3Agc3RvcC1jb2xvcj0iI0Y4QURGQSIgb2Zmc2V0PSI1LjglIi8+PHN0b3Agc3RvcC1vcGFjaXR5PSIwIiBzdG9wLWNvbG9yPSIjQTg2RUREIiBvZmZzZXQ9IjcwLjglIi8+PC9saW5lYXJHcmFkaWVudD48L2RlZnM+PGcgZmlsbC1ydWxlPSJub256ZXJvIiBmaWxsPSJub25lIj48cGF0aCB0cmFuc2Zvcm09InRyYW5zbGF0ZSgwIDEpIiBmaWxsPSJ1cmwoI2xvYmUtaWNvbnMtY29waWxvdC1maWxsLTApIiBkPSJNMTcuNTMzIDEuODI5QTIuNTI4IDIuNTI4IDAgMDAxNS4xMSAwaC0uNzM3YTIuNTMxIDIuNTMxIDAgMDAtMi40ODQgMi4wODdsLTEuMjYzIDYuOTM3LjMxNC0xLjA4YTIuNTI4IDIuNTI4IDAgMDEyLjQyNC0xLjgzM2g0LjI4NGwxLjc5Ny43MDYgMS43MzEtLjcwNmgtLjUwNWEyLjUyOCAyLjUyOCAwIDAxLTIuNDIzLTEuODI5bC0uNzE1LTIuNDUzeiIvPjxwYXRoIHRyYW5zZm9ybT0idHJhbnNsYXRlKDAgMSkiIGZpbGw9InVybCgjbG9iZS1pY29ucy1jb3BpbG90LWZpbGwtMSkiIGQ9Ik02LjcyNiAyMC4xNkEyLjUyOCAyLjUyOCAwIDAwOS4xNTIgMjJoMS41NjZjMS4zNyAwIDIuNDktMS4xIDIuNTI1LTIuNDhsLjE3LTYuNjktLjM1NyAxLjIyOGEyLjUyOCAyLjUyOCAwIDAxLTIuNDIzIDEuODNoLTQuMzJsLTEuNTQtLjg0Mi0xLjY2Ny44NDNoLjQ5N2MxLjEyNCAwIDIuMTEzLjc1IDIuNDI2IDEuODRsLjY5NyAyLjQzMnoiLz48cGF0aCB0cmFuc2Zvcm09InRyYW5zbGF0ZSgwIDEpIiBmaWxsPSJ1cmwoI2xvYmUtaWNvbnMtY29waWxvdC1maWxsLTIpIiBkPSJNMTUgMEg2LjI1MmMtMi41IDAtNCAzLjMzMS01IDYuNjYyLTEuMTg0IDMuOTQ3LTIuNzM0IDkuMjI1IDEuNzUgOS4yMjVINi43OGMxLjEzIDAgMi4xMi0uNzUzIDIuNDMtMS44NDcuNjU3LTIuMzE3IDEuODA5LTYuMzU5IDIuNzEzLTkuNDM2LjQ2LTEuNTYzLjg0Mi0yLjkwNiAxLjQzLTMuNzQyQTEuOTcgMS45NyAwIDAxMTUgMCIvPjxwYXRoIHRyYW5zZm9ybT0idHJhbnNsYXRlKDAgMSkiIGZpbGw9InVybCgjbG9iZS1pY29ucy1jb3BpbG90LWZpbGwtMykiIGQ9Ik0xNSAwSDYuMjUyYy0yLjUgMC00IDMuMzMxLTUgNi42NjItMS4xODQgMy45NDctMi43MzQgOS4yMjUgMS43NSA5LjIyNUg2Ljc4YzEuMTMgMCAyLjEyLS43NTMgMi40My0xLjg0Ny42NTctMi4zMTcgMS44MDktNi4zNTkgMi43MTMtOS40MzYuNDYtMS41NjMuODQyLTIuOTA2IDEuNDMtMy43NDJBMS45NyAxLjk3IDAgMDExNSAwIi8+PHBhdGggdHJhbnNmb3JtPSJ0cmFuc2xhdGUoMCAxKSIgZmlsbD0idXJsKCNsb2JlLWljb25zLWNvcGlsb3QtZmlsbC00KSIgZD0iTTkgMjJoOC43NDljMi41IDAgNC0zLjMzMiA1LTYuNjYzIDEuMTg0LTMuOTQ4IDIuNzM0LTkuMjI3LTEuNzUtOS4yMjdIMTcuMjJjLTEuMTI5IDAtMi4xMi43NTQtMi40MyAxLjg0OGExMTQ5LjIgMTE0OS4yIDAgMDEtMi43MTMgOS40MzdjLS40NiAxLjU2NC0uODQyIDIuOTA3LTEuNDMgMy43NDNBMS45NyAxLjk3IDAgMDE5IDIyIi8+PHBhdGggdHJhbnNmb3JtPSJ0cmFuc2xhdGUoMCAxKSIgZmlsbD0idXJsKCNsb2JlLWljb25zLWNvcGlsb3QtZmlsbC01KSIgZD0iTTkgMjJoOC43NDljMi41IDAgNC0zLjMzMiA1LTYuNjYzIDEuMTg0LTMuOTQ4IDIuNzM0LTkuMjI3LTEuNzUtOS4yMjdIMTcuMjJjLTEuMTI5IDAtMi4xMi43NTQtMi40MyAxLjg0OGExMTQ5LjIgMTE0OS4yIDAgMDEtMi43MTMgOS40MzdjLS40NiAxLjU2NC0uODQyIDIuOTA3LTEuNDMgMy43NDNBMS45NyAxLjk3IDAgMDE5IDIyIi8+PC9nPjwvc3ZnPg==;" parent="1" vertex="1">
          <mxGeometry x="2897" y="1478" width="20" height="20" as="geometry" />
        </mxCell>
        <mxCell id="lBSA8WIBel6qRi3vPHOn-248" value="Major Policy Decision Required?" style="strokeWidth=2;html=1;shape=mxgraph.flowchart.decision;whiteSpace=wrap;" parent="1" vertex="1">
          <mxGeometry x="2375.5" y="1720" width="100" height="100" as="geometry" />
        </mxCell>
        <mxCell id="lBSA8WIBel6qRi3vPHOn-249" value="" style="endArrow=classic;html=1;rounded=0;exitX=0.5;exitY=1;exitDx=0;exitDy=0;exitPerimeter=0;entryX=0.5;entryY=0;entryDx=0;entryDy=0;" parent="1" source="lBSA8WIBel6qRi3vPHOn-248" target="lBSA8WIBel6qRi3vPHOn-139" edge="1">
          <mxGeometry relative="1" as="geometry">
            <mxPoint x="2070" y="1830" as="sourcePoint" />
            <mxPoint x="2230" y="1830" as="targetPoint" />
            <Array as="points" />
          </mxGeometry>
        </mxCell>
        <mxCell id="lBSA8WIBel6qRi3vPHOn-251" value="Yes" style="edgeLabel;resizable=0;html=1;;align=left;verticalAlign=bottom;" parent="lBSA8WIBel6qRi3vPHOn-249" connectable="0" vertex="1">
          <mxGeometry x="-1" relative="1" as="geometry">
            <mxPoint x="-25" y="10" as="offset" />
          </mxGeometry>
        </mxCell>
        <mxCell id="lBSA8WIBel6qRi3vPHOn-254" value="" style="endArrow=classic;html=1;rounded=0;exitX=0;exitY=0.5;exitDx=0;exitDy=0;exitPerimeter=0;entryX=0.5;entryY=0;entryDx=0;entryDy=0;" parent="1" source="lBSA8WIBel6qRi3vPHOn-248" target="lBSA8WIBel6qRi3vPHOn-140" edge="1">
          <mxGeometry relative="1" as="geometry">
            <mxPoint x="2020" y="2270" as="sourcePoint" />
            <mxPoint x="2180" y="2270" as="targetPoint" />
            <Array as="points">
              <mxPoint x="2210" y="1770" />
            </Array>
          </mxGeometry>
        </mxCell>
        <mxCell id="lBSA8WIBel6qRi3vPHOn-256" value="No" style="edgeLabel;resizable=0;html=1;;align=left;verticalAlign=bottom;" parent="lBSA8WIBel6qRi3vPHOn-254" connectable="0" vertex="1">
          <mxGeometry x="-1" relative="1" as="geometry">
            <mxPoint x="-15" y="-4" as="offset" />
          </mxGeometry>
        </mxCell>
        <mxCell id="lBSA8WIBel6qRi3vPHOn-257" value="" style="endArrow=classic;html=1;rounded=0;entryX=0.548;entryY=0.07;entryDx=0;entryDy=0;exitX=0.5;exitY=1;exitDx=0;exitDy=0;entryPerimeter=0;" parent="1" source="lBSA8WIBel6qRi3vPHOn-139" target="lBSA8WIBel6qRi3vPHOn-141" edge="1">
          <mxGeometry relative="1" as="geometry">
            <mxPoint x="2190" y="1978" as="sourcePoint" />
            <mxPoint x="2296" y="2260" as="targetPoint" />
            <Array as="points" />
          </mxGeometry>
        </mxCell>
        <mxCell id="KilW35cTOYBIGDiVR_Ry-1" value="" style="shape=image;imageAspect=0;aspect=fixed;verticalLabelPosition=bottom;verticalAlign=top;image=data:image/svg+xml,PHN2ZyB4bWxucz0iaHR0cDovL3d3dy53My5vcmcvMjAwMC9zdmciIGZpbGw9Im5vbmUiIHZpZXdCb3g9Ii01IDEwIDEwMiA3OCIgaGVpZ2h0PSI3OCIgd2lkdGg9IjEwMiI+JiN4YTs8ZGVmcz4mI3hhOzxmaWx0ZXIgaWQ9ImZpbHRlcjBfZiI+JiN4YTs8ZmVGbG9vZCByZXN1bHQ9IkJhY2tncm91bmRJbWFnZUZpeCIgZmxvb2Qtb3BhY2l0eT0iMCIvPiYjeGE7PGZlQmxlbmQgcmVzdWx0PSJzaGFwZSIgaW4yPSJCYWNrZ3JvdW5kSW1hZ2VGaXgiIGluPSJTb3VyY2VHcmFwaGljIiBtb2RlPSJub3JtYWwiLz4mI3hhOzxmZUdhdXNzaWFuQmx1ciByZXN1bHQ9ImVmZmVjdDFfZm9yZWdyb3VuZEJsdXIiIHN0ZERldmlhdGlvbj0iMC40Ii8+JiN4YTs8L2ZpbHRlcj4mI3hhOzxmaWx0ZXIgaWQ9ImZpbHRlcjFfZiI+JiN4YTs8ZmVGbG9vZCByZXN1bHQ9IkJhY2tncm91bmRJbWFnZUZpeCIgZmxvb2Qtb3BhY2l0eT0iMCIvPiYjeGE7PGZlQmxlbmQgcmVzdWx0PSJzaGFwZSIgaW4yPSJCYWNrZ3JvdW5kSW1hZ2VGaXgiIGluPSJTb3VyY2VHcmFwaGljIiBtb2RlPSJub3JtYWwiLz4mI3hhOzxmZUdhdXNzaWFuQmx1ciByZXN1bHQ9ImVmZmVjdDFfZm9yZWdyb3VuZEJsdXIiIHN0ZERldmlhdGlvbj0iNCIvPiYjeGE7PC9maWx0ZXI+JiN4YTs8bGluZWFyR3JhZGllbnQgZ3JhZGllbnRVbml0cz0idXNlclNwYWNlT25Vc2UiIHkyPSIxMCIgeDI9IjI5IiB5MT0iNTUiIHgxPSI0MyIgaWQ9InBhaW50MF9saW5lYXIiPiYjeGE7PHN0b3Agc3RvcC1jb2xvcj0iIzBEMzZBNSIvPiYjeGE7PHN0b3Agc3RvcC1jb2xvcj0iIzExNTJENCIgb2Zmc2V0PSIxIi8+JiN4YTs8L2xpbmVhckdyYWRpZW50PiYjeGE7PGxpbmVhckdyYWRpZW50IGdyYWRpZW50VW5pdHM9InVzZXJTcGFjZU9uVXNlIiB5Mj0iODYiIHgyPSI0NiIgeTE9IjEwIiB4MT0iNDYiIGlkPSJwYWludDFfbGluZWFyIj4mI3hhOzxzdG9wIHN0b3AtY29sb3I9IiM4NENBRkYiLz4mI3hhOzxzdG9wIHN0b3AtY29sb3I9IiM2MUIxRkIiIG9mZnNldD0iMSIvPiYjeGE7PC9saW5lYXJHcmFkaWVudD4mI3hhOzxsaW5lYXJHcmFkaWVudCBncmFkaWVudFVuaXRzPSJ1c2VyU3BhY2VPblVzZSIgeTI9Ijg2IiB4Mj0iMzcuNSIgeTE9IjEwIiB4MT0iMzcuNSIgaWQ9InBhaW50Ml9saW5lYXIiPiYjeGE7PHN0b3Agc3RvcC1jb2xvcj0iIzNCOTBGNSIvPiYjeGE7PHN0b3Agc3RvcC1jb2xvcj0iIzJBNzhFRSIgb2Zmc2V0PSIxIi8+JiN4YTs8L2xpbmVhckdyYWRpZW50PiYjeGE7PGNsaXBQYXRoIGlkPSJjbGlwMCI+JiN4YTs8cmVjdCBmaWxsPSJ3aGl0ZSIgaGVpZ2h0PSI5NiIgd2lkdGg9Ijk2Ii8+JiN4YTs8L2NsaXBQYXRoPiYjeGE7PGNsaXBQYXRoIGlkPSJjbGlwMSI+JiN4YTs8cmVjdCBmaWxsPSJ3aGl0ZSIgaGVpZ2h0PSI5NiIgd2lkdGg9Ijk2Ii8+JiN4YTs8L2NsaXBQYXRoPiYjeGE7PC9kZWZzPiYjeGE7PGcgY2xpcC1wYXRoPSJ1cmwoI2NsaXAwKSI+JiN4YTs8ZyBjbGlwLXBhdGg9InVybCgjY2xpcDEpIj4mI3hhOzxtYXNrIGhlaWdodD0iNzYiIHdpZHRoPSI5NyIgeT0iMTAiIHg9Ii0xIiBtYXNrVW5pdHM9InVzZXJTcGFjZU9uVXNlIiBpZD0ibWFzazAiPiYjeGE7PHBhdGggZmlsbD0id2hpdGUiIGQ9Ik02MS4yMTE2IDEwQzYyLjM0OTYgMTAgNjMuNDMzNyAxMC40ODQ3IDY0LjE5MjUgMTEuMzMyOEw5NC42MTM2IDQ1LjMzMjhDOTUuOTcyMyA0Ni44NTE0IDk1Ljk3MjMgNDkuMTQ4NiA5NC42MTM2IDUwLjY2NzJMNjQuMTkyNSA4NC42NjcyQzYzLjQzMzcgODUuNTE1MyA2Mi4zNDk2IDg2IDYxLjIxMTYgODZIMy45NDYzNEMwLjQ4ODc3NyA4NiAtMS4zNDAxMiA4MS45MDk1IDAuOTY1MzY2IDc5LjMzMjhMMjkgNDhMMC45NjUzNjYgMTYuNjY3MkMtMS4zNDAxMiAxNC4wOTA1IDAuNDg4Nzc3IDEwIDMuOTQ2MzQgMTBINjEuMjExNloiLz4mI3hhOzwvbWFzaz4mI3hhOzxnIG1hc2s9InVybCgjbWFzazApIj4mI3hhOzxwYXRoIGZpbGw9InVybCgjcGFpbnQwX2xpbmVhcikiIGQ9Ik02MyAxMEwyOSA0OEwtNSAxMEg2M1oiLz4mI3hhOzxnIGZpbHRlcj0idXJsKCNmaWx0ZXIwX2YpIj4mI3hhOzxwYXRoIGZpbGwtb3BhY2l0eT0iMC4yNCIgZmlsbD0iYmxhY2siIGQ9Ik02MyAxMC40TC01IDg2LjRINjNMOTcgNDguNEw2MyAxMC40WiIvPiYjeGE7PC9nPiYjeGE7PGcgZmlsdGVyPSJ1cmwoI2ZpbHRlcjFfZikiPiYjeGE7PHBhdGggZmlsbC1vcGFjaXR5PSIwLjMyIiBmaWxsPSJibGFjayIgZD0iTTYzIDEyTC01IDg4SDYzTDk3IDUwTDYzIDEyWiIvPiYjeGE7PC9nPiYjeGE7PHBhdGggZmlsbD0idXJsKCNwYWludDFfbGluZWFyKSIgZD0iTS01IDg2TDYzIDEwTDk3IDQ4TDYzIDg2SC01WiIvPiYjeGE7PHBhdGggZmlsbD0idXJsKCNwYWludDJfbGluZWFyKSIgZD0iTS01IDg2TDYzIDEwTDgwIDI5TDI5IDg2SC01WiIvPiYjeGE7PC9nPiYjeGE7PC9nPiYjeGE7PC9nPiYjeGE7PC9zdmc+;" vertex="1" parent="1">
          <mxGeometry x="270" y="1636" width="102" height="78" as="geometry" />
        </mxCell>
        <mxCell id="KilW35cTOYBIGDiVR_Ry-2" value="" style="shape=image;imageAspect=0;aspect=fixed;verticalLabelPosition=bottom;verticalAlign=top;image=data:image/svg+xml,PHN2ZyB4bWxucz0iaHR0cDovL3d3dy53My5vcmcvMjAwMC9zdmciIGZpbGw9Im5vbmUiIHZpZXdCb3g9Ii01IDEwIDEwMiA3OCIgaGVpZ2h0PSI3OCIgd2lkdGg9IjEwMiI+JiN4YTs8ZGVmcz4mI3hhOzxmaWx0ZXIgaWQ9ImZpbHRlcjBfZiI+JiN4YTs8ZmVGbG9vZCByZXN1bHQ9IkJhY2tncm91bmRJbWFnZUZpeCIgZmxvb2Qtb3BhY2l0eT0iMCIvPiYjeGE7PGZlQmxlbmQgcmVzdWx0PSJzaGFwZSIgaW4yPSJCYWNrZ3JvdW5kSW1hZ2VGaXgiIGluPSJTb3VyY2VHcmFwaGljIiBtb2RlPSJub3JtYWwiLz4mI3hhOzxmZUdhdXNzaWFuQmx1ciByZXN1bHQ9ImVmZmVjdDFfZm9yZWdyb3VuZEJsdXIiIHN0ZERldmlhdGlvbj0iMC40Ii8+JiN4YTs8L2ZpbHRlcj4mI3hhOzxmaWx0ZXIgaWQ9ImZpbHRlcjFfZiI+JiN4YTs8ZmVGbG9vZCByZXN1bHQ9IkJhY2tncm91bmRJbWFnZUZpeCIgZmxvb2Qtb3BhY2l0eT0iMCIvPiYjeGE7PGZlQmxlbmQgcmVzdWx0PSJzaGFwZSIgaW4yPSJCYWNrZ3JvdW5kSW1hZ2VGaXgiIGluPSJTb3VyY2VHcmFwaGljIiBtb2RlPSJub3JtYWwiLz4mI3hhOzxmZUdhdXNzaWFuQmx1ciByZXN1bHQ9ImVmZmVjdDFfZm9yZWdyb3VuZEJsdXIiIHN0ZERldmlhdGlvbj0iNCIvPiYjeGE7PC9maWx0ZXI+JiN4YTs8bGluZWFyR3JhZGllbnQgZ3JhZGllbnRVbml0cz0idXNlclNwYWNlT25Vc2UiIHkyPSIxMCIgeDI9IjI5IiB5MT0iNTUiIHgxPSI0MyIgaWQ9InBhaW50MF9saW5lYXIiPiYjeGE7PHN0b3Agc3RvcC1jb2xvcj0iIzBEMzZBNSIvPiYjeGE7PHN0b3Agc3RvcC1jb2xvcj0iIzExNTJENCIgb2Zmc2V0PSIxIi8+JiN4YTs8L2xpbmVhckdyYWRpZW50PiYjeGE7PGxpbmVhckdyYWRpZW50IGdyYWRpZW50VW5pdHM9InVzZXJTcGFjZU9uVXNlIiB5Mj0iODYiIHgyPSI0NiIgeTE9IjEwIiB4MT0iNDYiIGlkPSJwYWludDFfbGluZWFyIj4mI3hhOzxzdG9wIHN0b3AtY29sb3I9IiM4NENBRkYiLz4mI3hhOzxzdG9wIHN0b3AtY29sb3I9IiM2MUIxRkIiIG9mZnNldD0iMSIvPiYjeGE7PC9saW5lYXJHcmFkaWVudD4mI3hhOzxsaW5lYXJHcmFkaWVudCBncmFkaWVudFVuaXRzPSJ1c2VyU3BhY2VPblVzZSIgeTI9Ijg2IiB4Mj0iMzcuNSIgeTE9IjEwIiB4MT0iMzcuNSIgaWQ9InBhaW50Ml9saW5lYXIiPiYjeGE7PHN0b3Agc3RvcC1jb2xvcj0iIzNCOTBGNSIvPiYjeGE7PHN0b3Agc3RvcC1jb2xvcj0iIzJBNzhFRSIgb2Zmc2V0PSIxIi8+JiN4YTs8L2xpbmVhckdyYWRpZW50PiYjeGE7PGNsaXBQYXRoIGlkPSJjbGlwMCI+JiN4YTs8cmVjdCBmaWxsPSJ3aGl0ZSIgaGVpZ2h0PSI5NiIgd2lkdGg9Ijk2Ii8+JiN4YTs8L2NsaXBQYXRoPiYjeGE7PGNsaXBQYXRoIGlkPSJjbGlwMSI+JiN4YTs8cmVjdCBmaWxsPSJ3aGl0ZSIgaGVpZ2h0PSI5NiIgd2lkdGg9Ijk2Ii8+JiN4YTs8L2NsaXBQYXRoPiYjeGE7PC9kZWZzPiYjeGE7PGcgY2xpcC1wYXRoPSJ1cmwoI2NsaXAwKSI+JiN4YTs8ZyBjbGlwLXBhdGg9InVybCgjY2xpcDEpIj4mI3hhOzxtYXNrIGhlaWdodD0iNzYiIHdpZHRoPSI5NyIgeT0iMTAiIHg9Ii0xIiBtYXNrVW5pdHM9InVzZXJTcGFjZU9uVXNlIiBpZD0ibWFzazAiPiYjeGE7PHBhdGggZmlsbD0id2hpdGUiIGQ9Ik02MS4yMTE2IDEwQzYyLjM0OTYgMTAgNjMuNDMzNyAxMC40ODQ3IDY0LjE5MjUgMTEuMzMyOEw5NC42MTM2IDQ1LjMzMjhDOTUuOTcyMyA0Ni44NTE0IDk1Ljk3MjMgNDkuMTQ4NiA5NC42MTM2IDUwLjY2NzJMNjQuMTkyNSA4NC42NjcyQzYzLjQzMzcgODUuNTE1MyA2Mi4zNDk2IDg2IDYxLjIxMTYgODZIMy45NDYzNEMwLjQ4ODc3NyA4NiAtMS4zNDAxMiA4MS45MDk1IDAuOTY1MzY2IDc5LjMzMjhMMjkgNDhMMC45NjUzNjYgMTYuNjY3MkMtMS4zNDAxMiAxNC4wOTA1IDAuNDg4Nzc3IDEwIDMuOTQ2MzQgMTBINjEuMjExNloiLz4mI3hhOzwvbWFzaz4mI3hhOzxnIG1hc2s9InVybCgjbWFzazApIj4mI3hhOzxwYXRoIGZpbGw9InVybCgjcGFpbnQwX2xpbmVhcikiIGQ9Ik02MyAxMEwyOSA0OEwtNSAxMEg2M1oiLz4mI3hhOzxnIGZpbHRlcj0idXJsKCNmaWx0ZXIwX2YpIj4mI3hhOzxwYXRoIGZpbGwtb3BhY2l0eT0iMC4yNCIgZmlsbD0iYmxhY2siIGQ9Ik02MyAxMC40TC01IDg2LjRINjNMOTcgNDguNEw2MyAxMC40WiIvPiYjeGE7PC9nPiYjeGE7PGcgZmlsdGVyPSJ1cmwoI2ZpbHRlcjFfZikiPiYjeGE7PHBhdGggZmlsbC1vcGFjaXR5PSIwLjMyIiBmaWxsPSJibGFjayIgZD0iTTYzIDEyTC01IDg4SDYzTDk3IDUwTDYzIDEyWiIvPiYjeGE7PC9nPiYjeGE7PHBhdGggZmlsbD0idXJsKCNwYWludDFfbGluZWFyKSIgZD0iTS01IDg2TDYzIDEwTDk3IDQ4TDYzIDg2SC01WiIvPiYjeGE7PHBhdGggZmlsbD0idXJsKCNwYWludDJfbGluZWFyKSIgZD0iTS01IDg2TDYzIDEwTDgwIDI5TDI5IDg2SC01WiIvPiYjeGE7PC9nPiYjeGE7PC9nPiYjeGE7PC9nPiYjeGE7PC9zdmc+;" vertex="1" parent="1">
          <mxGeometry x="1129" y="1636" width="102" height="78" as="geometry" />
        </mxCell>
        <mxCell id="KilW35cTOYBIGDiVR_Ry-3" value="" style="shape=image;imageAspect=0;aspect=fixed;verticalLabelPosition=bottom;verticalAlign=top;image=data:image/svg+xml,PHN2ZyB4bWxucz0iaHR0cDovL3d3dy53My5vcmcvMjAwMC9zdmciIGZpbGw9Im5vbmUiIHZpZXdCb3g9Ii01IDEwIDEwMiA3OCIgaGVpZ2h0PSI3OCIgd2lkdGg9IjEwMiI+JiN4YTs8ZGVmcz4mI3hhOzxmaWx0ZXIgaWQ9ImZpbHRlcjBfZiI+JiN4YTs8ZmVGbG9vZCByZXN1bHQ9IkJhY2tncm91bmRJbWFnZUZpeCIgZmxvb2Qtb3BhY2l0eT0iMCIvPiYjeGE7PGZlQmxlbmQgcmVzdWx0PSJzaGFwZSIgaW4yPSJCYWNrZ3JvdW5kSW1hZ2VGaXgiIGluPSJTb3VyY2VHcmFwaGljIiBtb2RlPSJub3JtYWwiLz4mI3hhOzxmZUdhdXNzaWFuQmx1ciByZXN1bHQ9ImVmZmVjdDFfZm9yZWdyb3VuZEJsdXIiIHN0ZERldmlhdGlvbj0iMC40Ii8+JiN4YTs8L2ZpbHRlcj4mI3hhOzxmaWx0ZXIgaWQ9ImZpbHRlcjFfZiI+JiN4YTs8ZmVGbG9vZCByZXN1bHQ9IkJhY2tncm91bmRJbWFnZUZpeCIgZmxvb2Qtb3BhY2l0eT0iMCIvPiYjeGE7PGZlQmxlbmQgcmVzdWx0PSJzaGFwZSIgaW4yPSJCYWNrZ3JvdW5kSW1hZ2VGaXgiIGluPSJTb3VyY2VHcmFwaGljIiBtb2RlPSJub3JtYWwiLz4mI3hhOzxmZUdhdXNzaWFuQmx1ciByZXN1bHQ9ImVmZmVjdDFfZm9yZWdyb3VuZEJsdXIiIHN0ZERldmlhdGlvbj0iNCIvPiYjeGE7PC9maWx0ZXI+JiN4YTs8bGluZWFyR3JhZGllbnQgZ3JhZGllbnRVbml0cz0idXNlclNwYWNlT25Vc2UiIHkyPSIxMCIgeDI9IjI5IiB5MT0iNTUiIHgxPSI0MyIgaWQ9InBhaW50MF9saW5lYXIiPiYjeGE7PHN0b3Agc3RvcC1jb2xvcj0iIzBEMzZBNSIvPiYjeGE7PHN0b3Agc3RvcC1jb2xvcj0iIzExNTJENCIgb2Zmc2V0PSIxIi8+JiN4YTs8L2xpbmVhckdyYWRpZW50PiYjeGE7PGxpbmVhckdyYWRpZW50IGdyYWRpZW50VW5pdHM9InVzZXJTcGFjZU9uVXNlIiB5Mj0iODYiIHgyPSI0NiIgeTE9IjEwIiB4MT0iNDYiIGlkPSJwYWludDFfbGluZWFyIj4mI3hhOzxzdG9wIHN0b3AtY29sb3I9IiM4NENBRkYiLz4mI3hhOzxzdG9wIHN0b3AtY29sb3I9IiM2MUIxRkIiIG9mZnNldD0iMSIvPiYjeGE7PC9saW5lYXJHcmFkaWVudD4mI3hhOzxsaW5lYXJHcmFkaWVudCBncmFkaWVudFVuaXRzPSJ1c2VyU3BhY2VPblVzZSIgeTI9Ijg2IiB4Mj0iMzcuNSIgeTE9IjEwIiB4MT0iMzcuNSIgaWQ9InBhaW50Ml9saW5lYXIiPiYjeGE7PHN0b3Agc3RvcC1jb2xvcj0iIzNCOTBGNSIvPiYjeGE7PHN0b3Agc3RvcC1jb2xvcj0iIzJBNzhFRSIgb2Zmc2V0PSIxIi8+JiN4YTs8L2xpbmVhckdyYWRpZW50PiYjeGE7PGNsaXBQYXRoIGlkPSJjbGlwMCI+JiN4YTs8cmVjdCBmaWxsPSJ3aGl0ZSIgaGVpZ2h0PSI5NiIgd2lkdGg9Ijk2Ii8+JiN4YTs8L2NsaXBQYXRoPiYjeGE7PGNsaXBQYXRoIGlkPSJjbGlwMSI+JiN4YTs8cmVjdCBmaWxsPSJ3aGl0ZSIgaGVpZ2h0PSI5NiIgd2lkdGg9Ijk2Ii8+JiN4YTs8L2NsaXBQYXRoPiYjeGE7PC9kZWZzPiYjeGE7PGcgY2xpcC1wYXRoPSJ1cmwoI2NsaXAwKSI+JiN4YTs8ZyBjbGlwLXBhdGg9InVybCgjY2xpcDEpIj4mI3hhOzxtYXNrIGhlaWdodD0iNzYiIHdpZHRoPSI5NyIgeT0iMTAiIHg9Ii0xIiBtYXNrVW5pdHM9InVzZXJTcGFjZU9uVXNlIiBpZD0ibWFzazAiPiYjeGE7PHBhdGggZmlsbD0id2hpdGUiIGQ9Ik02MS4yMTE2IDEwQzYyLjM0OTYgMTAgNjMuNDMzNyAxMC40ODQ3IDY0LjE5MjUgMTEuMzMyOEw5NC42MTM2IDQ1LjMzMjhDOTUuOTcyMyA0Ni44NTE0IDk1Ljk3MjMgNDkuMTQ4NiA5NC42MTM2IDUwLjY2NzJMNjQuMTkyNSA4NC42NjcyQzYzLjQzMzcgODUuNTE1MyA2Mi4zNDk2IDg2IDYxLjIxMTYgODZIMy45NDYzNEMwLjQ4ODc3NyA4NiAtMS4zNDAxMiA4MS45MDk1IDAuOTY1MzY2IDc5LjMzMjhMMjkgNDhMMC45NjUzNjYgMTYuNjY3MkMtMS4zNDAxMiAxNC4wOTA1IDAuNDg4Nzc3IDEwIDMuOTQ2MzQgMTBINjEuMjExNloiLz4mI3hhOzwvbWFzaz4mI3hhOzxnIG1hc2s9InVybCgjbWFzazApIj4mI3hhOzxwYXRoIGZpbGw9InVybCgjcGFpbnQwX2xpbmVhcikiIGQ9Ik02MyAxMEwyOSA0OEwtNSAxMEg2M1oiLz4mI3hhOzxnIGZpbHRlcj0idXJsKCNmaWx0ZXIwX2YpIj4mI3hhOzxwYXRoIGZpbGwtb3BhY2l0eT0iMC4yNCIgZmlsbD0iYmxhY2siIGQ9Ik02MyAxMC40TC01IDg2LjRINjNMOTcgNDguNEw2MyAxMC40WiIvPiYjeGE7PC9nPiYjeGE7PGcgZmlsdGVyPSJ1cmwoI2ZpbHRlcjFfZikiPiYjeGE7PHBhdGggZmlsbC1vcGFjaXR5PSIwLjMyIiBmaWxsPSJibGFjayIgZD0iTTYzIDEyTC01IDg4SDYzTDk3IDUwTDYzIDEyWiIvPiYjeGE7PC9nPiYjeGE7PHBhdGggZmlsbD0idXJsKCNwYWludDFfbGluZWFyKSIgZD0iTS01IDg2TDYzIDEwTDk3IDQ4TDYzIDg2SC01WiIvPiYjeGE7PHBhdGggZmlsbD0idXJsKCNwYWludDJfbGluZWFyKSIgZD0iTS01IDg2TDYzIDEwTDgwIDI5TDI5IDg2SC01WiIvPiYjeGE7PC9nPiYjeGE7PC9nPiYjeGE7PC9nPiYjeGE7PC9zdmc+;" vertex="1" parent="1">
          <mxGeometry x="2037" y="1636" width="102" height="78" as="geometry" />
        </mxCell>
        <mxCell id="KilW35cTOYBIGDiVR_Ry-4" value="" style="shape=image;imageAspect=0;aspect=fixed;verticalLabelPosition=bottom;verticalAlign=top;image=data:image/svg+xml,PHN2ZyB4bWxucz0iaHR0cDovL3d3dy53My5vcmcvMjAwMC9zdmciIGZpbGw9Im5vbmUiIHZpZXdCb3g9Ii01IDEwIDEwMiA3OCIgaGVpZ2h0PSI3OCIgd2lkdGg9IjEwMiI+JiN4YTs8ZGVmcz4mI3hhOzxmaWx0ZXIgaWQ9ImZpbHRlcjBfZiI+JiN4YTs8ZmVGbG9vZCByZXN1bHQ9IkJhY2tncm91bmRJbWFnZUZpeCIgZmxvb2Qtb3BhY2l0eT0iMCIvPiYjeGE7PGZlQmxlbmQgcmVzdWx0PSJzaGFwZSIgaW4yPSJCYWNrZ3JvdW5kSW1hZ2VGaXgiIGluPSJTb3VyY2VHcmFwaGljIiBtb2RlPSJub3JtYWwiLz4mI3hhOzxmZUdhdXNzaWFuQmx1ciByZXN1bHQ9ImVmZmVjdDFfZm9yZWdyb3VuZEJsdXIiIHN0ZERldmlhdGlvbj0iMC40Ii8+JiN4YTs8L2ZpbHRlcj4mI3hhOzxmaWx0ZXIgaWQ9ImZpbHRlcjFfZiI+JiN4YTs8ZmVGbG9vZCByZXN1bHQ9IkJhY2tncm91bmRJbWFnZUZpeCIgZmxvb2Qtb3BhY2l0eT0iMCIvPiYjeGE7PGZlQmxlbmQgcmVzdWx0PSJzaGFwZSIgaW4yPSJCYWNrZ3JvdW5kSW1hZ2VGaXgiIGluPSJTb3VyY2VHcmFwaGljIiBtb2RlPSJub3JtYWwiLz4mI3hhOzxmZUdhdXNzaWFuQmx1ciByZXN1bHQ9ImVmZmVjdDFfZm9yZWdyb3VuZEJsdXIiIHN0ZERldmlhdGlvbj0iNCIvPiYjeGE7PC9maWx0ZXI+JiN4YTs8bGluZWFyR3JhZGllbnQgZ3JhZGllbnRVbml0cz0idXNlclNwYWNlT25Vc2UiIHkyPSIxMCIgeDI9IjI5IiB5MT0iNTUiIHgxPSI0MyIgaWQ9InBhaW50MF9saW5lYXIiPiYjeGE7PHN0b3Agc3RvcC1jb2xvcj0iIzBEMzZBNSIvPiYjeGE7PHN0b3Agc3RvcC1jb2xvcj0iIzExNTJENCIgb2Zmc2V0PSIxIi8+JiN4YTs8L2xpbmVhckdyYWRpZW50PiYjeGE7PGxpbmVhckdyYWRpZW50IGdyYWRpZW50VW5pdHM9InVzZXJTcGFjZU9uVXNlIiB5Mj0iODYiIHgyPSI0NiIgeTE9IjEwIiB4MT0iNDYiIGlkPSJwYWludDFfbGluZWFyIj4mI3hhOzxzdG9wIHN0b3AtY29sb3I9IiM4NENBRkYiLz4mI3hhOzxzdG9wIHN0b3AtY29sb3I9IiM2MUIxRkIiIG9mZnNldD0iMSIvPiYjeGE7PC9saW5lYXJHcmFkaWVudD4mI3hhOzxsaW5lYXJHcmFkaWVudCBncmFkaWVudFVuaXRzPSJ1c2VyU3BhY2VPblVzZSIgeTI9Ijg2IiB4Mj0iMzcuNSIgeTE9IjEwIiB4MT0iMzcuNSIgaWQ9InBhaW50Ml9saW5lYXIiPiYjeGE7PHN0b3Agc3RvcC1jb2xvcj0iIzNCOTBGNSIvPiYjeGE7PHN0b3Agc3RvcC1jb2xvcj0iIzJBNzhFRSIgb2Zmc2V0PSIxIi8+JiN4YTs8L2xpbmVhckdyYWRpZW50PiYjeGE7PGNsaXBQYXRoIGlkPSJjbGlwMCI+JiN4YTs8cmVjdCBmaWxsPSJ3aGl0ZSIgaGVpZ2h0PSI5NiIgd2lkdGg9Ijk2Ii8+JiN4YTs8L2NsaXBQYXRoPiYjeGE7PGNsaXBQYXRoIGlkPSJjbGlwMSI+JiN4YTs8cmVjdCBmaWxsPSJ3aGl0ZSIgaGVpZ2h0PSI5NiIgd2lkdGg9Ijk2Ii8+JiN4YTs8L2NsaXBQYXRoPiYjeGE7PC9kZWZzPiYjeGE7PGcgY2xpcC1wYXRoPSJ1cmwoI2NsaXAwKSI+JiN4YTs8ZyBjbGlwLXBhdGg9InVybCgjY2xpcDEpIj4mI3hhOzxtYXNrIGhlaWdodD0iNzYiIHdpZHRoPSI5NyIgeT0iMTAiIHg9Ii0xIiBtYXNrVW5pdHM9InVzZXJTcGFjZU9uVXNlIiBpZD0ibWFzazAiPiYjeGE7PHBhdGggZmlsbD0id2hpdGUiIGQ9Ik02MS4yMTE2IDEwQzYyLjM0OTYgMTAgNjMuNDMzNyAxMC40ODQ3IDY0LjE5MjUgMTEuMzMyOEw5NC42MTM2IDQ1LjMzMjhDOTUuOTcyMyA0Ni44NTE0IDk1Ljk3MjMgNDkuMTQ4NiA5NC42MTM2IDUwLjY2NzJMNjQuMTkyNSA4NC42NjcyQzYzLjQzMzcgODUuNTE1MyA2Mi4zNDk2IDg2IDYxLjIxMTYgODZIMy45NDYzNEMwLjQ4ODc3NyA4NiAtMS4zNDAxMiA4MS45MDk1IDAuOTY1MzY2IDc5LjMzMjhMMjkgNDhMMC45NjUzNjYgMTYuNjY3MkMtMS4zNDAxMiAxNC4wOTA1IDAuNDg4Nzc3IDEwIDMuOTQ2MzQgMTBINjEuMjExNloiLz4mI3hhOzwvbWFzaz4mI3hhOzxnIG1hc2s9InVybCgjbWFzazApIj4mI3hhOzxwYXRoIGZpbGw9InVybCgjcGFpbnQwX2xpbmVhcikiIGQ9Ik02MyAxMEwyOSA0OEwtNSAxMEg2M1oiLz4mI3hhOzxnIGZpbHRlcj0idXJsKCNmaWx0ZXIwX2YpIj4mI3hhOzxwYXRoIGZpbGwtb3BhY2l0eT0iMC4yNCIgZmlsbD0iYmxhY2siIGQ9Ik02MyAxMC40TC01IDg2LjRINjNMOTcgNDguNEw2MyAxMC40WiIvPiYjeGE7PC9nPiYjeGE7PGcgZmlsdGVyPSJ1cmwoI2ZpbHRlcjFfZikiPiYjeGE7PHBhdGggZmlsbC1vcGFjaXR5PSIwLjMyIiBmaWxsPSJibGFjayIgZD0iTTYzIDEyTC01IDg4SDYzTDk3IDUwTDYzIDEyWiIvPiYjeGE7PC9nPiYjeGE7PHBhdGggZmlsbD0idXJsKCNwYWludDFfbGluZWFyKSIgZD0iTS01IDg2TDYzIDEwTDk3IDQ4TDYzIDg2SC01WiIvPiYjeGE7PHBhdGggZmlsbD0idXJsKCNwYWludDJfbGluZWFyKSIgZD0iTS01IDg2TDYzIDEwTDgwIDI5TDI5IDg2SC01WiIvPiYjeGE7PC9nPiYjeGE7PC9nPiYjeGE7PC9nPiYjeGE7PC9zdmc+;" vertex="1" parent="1">
          <mxGeometry x="2660" y="1626" width="102" height="78" as="geometry" />
        </mxCell>
        <mxCell id="KilW35cTOYBIGDiVR_Ry-5" value="" style="shape=image;imageAspect=0;aspect=fixed;verticalLabelPosition=bottom;verticalAlign=top;image=data:image/svg+xml,PHN2ZyB4bWxucz0iaHR0cDovL3d3dy53My5vcmcvMjAwMC9zdmciIGZpbGw9Im5vbmUiIHZpZXdCb3g9Ii01IDEwIDEwMiA3OCIgaGVpZ2h0PSI3OCIgd2lkdGg9IjEwMiI+JiN4YTs8ZGVmcz4mI3hhOzxmaWx0ZXIgaWQ9ImZpbHRlcjBfZiI+JiN4YTs8ZmVGbG9vZCByZXN1bHQ9IkJhY2tncm91bmRJbWFnZUZpeCIgZmxvb2Qtb3BhY2l0eT0iMCIvPiYjeGE7PGZlQmxlbmQgcmVzdWx0PSJzaGFwZSIgaW4yPSJCYWNrZ3JvdW5kSW1hZ2VGaXgiIGluPSJTb3VyY2VHcmFwaGljIiBtb2RlPSJub3JtYWwiLz4mI3hhOzxmZUdhdXNzaWFuQmx1ciByZXN1bHQ9ImVmZmVjdDFfZm9yZWdyb3VuZEJsdXIiIHN0ZERldmlhdGlvbj0iMC40Ii8+JiN4YTs8L2ZpbHRlcj4mI3hhOzxmaWx0ZXIgaWQ9ImZpbHRlcjFfZiI+JiN4YTs8ZmVGbG9vZCByZXN1bHQ9IkJhY2tncm91bmRJbWFnZUZpeCIgZmxvb2Qtb3BhY2l0eT0iMCIvPiYjeGE7PGZlQmxlbmQgcmVzdWx0PSJzaGFwZSIgaW4yPSJCYWNrZ3JvdW5kSW1hZ2VGaXgiIGluPSJTb3VyY2VHcmFwaGljIiBtb2RlPSJub3JtYWwiLz4mI3hhOzxmZUdhdXNzaWFuQmx1ciByZXN1bHQ9ImVmZmVjdDFfZm9yZWdyb3VuZEJsdXIiIHN0ZERldmlhdGlvbj0iNCIvPiYjeGE7PC9maWx0ZXI+JiN4YTs8bGluZWFyR3JhZGllbnQgZ3JhZGllbnRVbml0cz0idXNlclNwYWNlT25Vc2UiIHkyPSIxMCIgeDI9IjI5IiB5MT0iNTUiIHgxPSI0MyIgaWQ9InBhaW50MF9saW5lYXIiPiYjeGE7PHN0b3Agc3RvcC1jb2xvcj0iIzBEMzZBNSIvPiYjeGE7PHN0b3Agc3RvcC1jb2xvcj0iIzExNTJENCIgb2Zmc2V0PSIxIi8+JiN4YTs8L2xpbmVhckdyYWRpZW50PiYjeGE7PGxpbmVhckdyYWRpZW50IGdyYWRpZW50VW5pdHM9InVzZXJTcGFjZU9uVXNlIiB5Mj0iODYiIHgyPSI0NiIgeTE9IjEwIiB4MT0iNDYiIGlkPSJwYWludDFfbGluZWFyIj4mI3hhOzxzdG9wIHN0b3AtY29sb3I9IiM4NENBRkYiLz4mI3hhOzxzdG9wIHN0b3AtY29sb3I9IiM2MUIxRkIiIG9mZnNldD0iMSIvPiYjeGE7PC9saW5lYXJHcmFkaWVudD4mI3hhOzxsaW5lYXJHcmFkaWVudCBncmFkaWVudFVuaXRzPSJ1c2VyU3BhY2VPblVzZSIgeTI9Ijg2IiB4Mj0iMzcuNSIgeTE9IjEwIiB4MT0iMzcuNSIgaWQ9InBhaW50Ml9saW5lYXIiPiYjeGE7PHN0b3Agc3RvcC1jb2xvcj0iIzNCOTBGNSIvPiYjeGE7PHN0b3Agc3RvcC1jb2xvcj0iIzJBNzhFRSIgb2Zmc2V0PSIxIi8+JiN4YTs8L2xpbmVhckdyYWRpZW50PiYjeGE7PGNsaXBQYXRoIGlkPSJjbGlwMCI+JiN4YTs8cmVjdCBmaWxsPSJ3aGl0ZSIgaGVpZ2h0PSI5NiIgd2lkdGg9Ijk2Ii8+JiN4YTs8L2NsaXBQYXRoPiYjeGE7PGNsaXBQYXRoIGlkPSJjbGlwMSI+JiN4YTs8cmVjdCBmaWxsPSJ3aGl0ZSIgaGVpZ2h0PSI5NiIgd2lkdGg9Ijk2Ii8+JiN4YTs8L2NsaXBQYXRoPiYjeGE7PC9kZWZzPiYjeGE7PGcgY2xpcC1wYXRoPSJ1cmwoI2NsaXAwKSI+JiN4YTs8ZyBjbGlwLXBhdGg9InVybCgjY2xpcDEpIj4mI3hhOzxtYXNrIGhlaWdodD0iNzYiIHdpZHRoPSI5NyIgeT0iMTAiIHg9Ii0xIiBtYXNrVW5pdHM9InVzZXJTcGFjZU9uVXNlIiBpZD0ibWFzazAiPiYjeGE7PHBhdGggZmlsbD0id2hpdGUiIGQ9Ik02MS4yMTE2IDEwQzYyLjM0OTYgMTAgNjMuNDMzNyAxMC40ODQ3IDY0LjE5MjUgMTEuMzMyOEw5NC42MTM2IDQ1LjMzMjhDOTUuOTcyMyA0Ni44NTE0IDk1Ljk3MjMgNDkuMTQ4NiA5NC42MTM2IDUwLjY2NzJMNjQuMTkyNSA4NC42NjcyQzYzLjQzMzcgODUuNTE1MyA2Mi4zNDk2IDg2IDYxLjIxMTYgODZIMy45NDYzNEMwLjQ4ODc3NyA4NiAtMS4zNDAxMiA4MS45MDk1IDAuOTY1MzY2IDc5LjMzMjhMMjkgNDhMMC45NjUzNjYgMTYuNjY3MkMtMS4zNDAxMiAxNC4wOTA1IDAuNDg4Nzc3IDEwIDMuOTQ2MzQgMTBINjEuMjExNloiLz4mI3hhOzwvbWFzaz4mI3hhOzxnIG1hc2s9InVybCgjbWFzazApIj4mI3hhOzxwYXRoIGZpbGw9InVybCgjcGFpbnQwX2xpbmVhcikiIGQ9Ik02MyAxMEwyOSA0OEwtNSAxMEg2M1oiLz4mI3hhOzxnIGZpbHRlcj0idXJsKCNmaWx0ZXIwX2YpIj4mI3hhOzxwYXRoIGZpbGwtb3BhY2l0eT0iMC4yNCIgZmlsbD0iYmxhY2siIGQ9Ik02MyAxMC40TC01IDg2LjRINjNMOTcgNDguNEw2MyAxMC40WiIvPiYjeGE7PC9nPiYjeGE7PGcgZmlsdGVyPSJ1cmwoI2ZpbHRlcjFfZikiPiYjeGE7PHBhdGggZmlsbC1vcGFjaXR5PSIwLjMyIiBmaWxsPSJibGFjayIgZD0iTTYzIDEyTC01IDg4SDYzTDk3IDUwTDYzIDEyWiIvPiYjeGE7PC9nPiYjeGE7PHBhdGggZmlsbD0idXJsKCNwYWludDFfbGluZWFyKSIgZD0iTS01IDg2TDYzIDEwTDk3IDQ4TDYzIDg2SC01WiIvPiYjeGE7PHBhdGggZmlsbD0idXJsKCNwYWludDJfbGluZWFyKSIgZD0iTS01IDg2TDYzIDEwTDgwIDI5TDI5IDg2SC01WiIvPiYjeGE7PC9nPiYjeGE7PC9nPiYjeGE7PC9nPiYjeGE7PC9zdmc+;" vertex="1" parent="1">
          <mxGeometry x="1463" y="2593" width="102" height="78" as="geometry" />
        </mxCell>
        <mxCell id="KilW35cTOYBIGDiVR_Ry-6" value="" style="shape=image;imageAspect=0;aspect=fixed;verticalLabelPosition=bottom;verticalAlign=top;image=data:image/svg+xml,PHN2ZyB4bWxucz0iaHR0cDovL3d3dy53My5vcmcvMjAwMC9zdmciIGZpbGw9Im5vbmUiIHZpZXdCb3g9Ii01IDEwIDEwMiA3OCIgaGVpZ2h0PSI3OCIgd2lkdGg9IjEwMiI+JiN4YTs8ZGVmcz4mI3hhOzxmaWx0ZXIgaWQ9ImZpbHRlcjBfZiI+JiN4YTs8ZmVGbG9vZCByZXN1bHQ9IkJhY2tncm91bmRJbWFnZUZpeCIgZmxvb2Qtb3BhY2l0eT0iMCIvPiYjeGE7PGZlQmxlbmQgcmVzdWx0PSJzaGFwZSIgaW4yPSJCYWNrZ3JvdW5kSW1hZ2VGaXgiIGluPSJTb3VyY2VHcmFwaGljIiBtb2RlPSJub3JtYWwiLz4mI3hhOzxmZUdhdXNzaWFuQmx1ciByZXN1bHQ9ImVmZmVjdDFfZm9yZWdyb3VuZEJsdXIiIHN0ZERldmlhdGlvbj0iMC40Ii8+JiN4YTs8L2ZpbHRlcj4mI3hhOzxmaWx0ZXIgaWQ9ImZpbHRlcjFfZiI+JiN4YTs8ZmVGbG9vZCByZXN1bHQ9IkJhY2tncm91bmRJbWFnZUZpeCIgZmxvb2Qtb3BhY2l0eT0iMCIvPiYjeGE7PGZlQmxlbmQgcmVzdWx0PSJzaGFwZSIgaW4yPSJCYWNrZ3JvdW5kSW1hZ2VGaXgiIGluPSJTb3VyY2VHcmFwaGljIiBtb2RlPSJub3JtYWwiLz4mI3hhOzxmZUdhdXNzaWFuQmx1ciByZXN1bHQ9ImVmZmVjdDFfZm9yZWdyb3VuZEJsdXIiIHN0ZERldmlhdGlvbj0iNCIvPiYjeGE7PC9maWx0ZXI+JiN4YTs8bGluZWFyR3JhZGllbnQgZ3JhZGllbnRVbml0cz0idXNlclNwYWNlT25Vc2UiIHkyPSIxMCIgeDI9IjI5IiB5MT0iNTUiIHgxPSI0MyIgaWQ9InBhaW50MF9saW5lYXIiPiYjeGE7PHN0b3Agc3RvcC1jb2xvcj0iIzBEMzZBNSIvPiYjeGE7PHN0b3Agc3RvcC1jb2xvcj0iIzExNTJENCIgb2Zmc2V0PSIxIi8+JiN4YTs8L2xpbmVhckdyYWRpZW50PiYjeGE7PGxpbmVhckdyYWRpZW50IGdyYWRpZW50VW5pdHM9InVzZXJTcGFjZU9uVXNlIiB5Mj0iODYiIHgyPSI0NiIgeTE9IjEwIiB4MT0iNDYiIGlkPSJwYWludDFfbGluZWFyIj4mI3hhOzxzdG9wIHN0b3AtY29sb3I9IiM4NENBRkYiLz4mI3hhOzxzdG9wIHN0b3AtY29sb3I9IiM2MUIxRkIiIG9mZnNldD0iMSIvPiYjeGE7PC9saW5lYXJHcmFkaWVudD4mI3hhOzxsaW5lYXJHcmFkaWVudCBncmFkaWVudFVuaXRzPSJ1c2VyU3BhY2VPblVzZSIgeTI9Ijg2IiB4Mj0iMzcuNSIgeTE9IjEwIiB4MT0iMzcuNSIgaWQ9InBhaW50Ml9saW5lYXIiPiYjeGE7PHN0b3Agc3RvcC1jb2xvcj0iIzNCOTBGNSIvPiYjeGE7PHN0b3Agc3RvcC1jb2xvcj0iIzJBNzhFRSIgb2Zmc2V0PSIxIi8+JiN4YTs8L2xpbmVhckdyYWRpZW50PiYjeGE7PGNsaXBQYXRoIGlkPSJjbGlwMCI+JiN4YTs8cmVjdCBmaWxsPSJ3aGl0ZSIgaGVpZ2h0PSI5NiIgd2lkdGg9Ijk2Ii8+JiN4YTs8L2NsaXBQYXRoPiYjeGE7PGNsaXBQYXRoIGlkPSJjbGlwMSI+JiN4YTs8cmVjdCBmaWxsPSJ3aGl0ZSIgaGVpZ2h0PSI5NiIgd2lkdGg9Ijk2Ii8+JiN4YTs8L2NsaXBQYXRoPiYjeGE7PC9kZWZzPiYjeGE7PGcgY2xpcC1wYXRoPSJ1cmwoI2NsaXAwKSI+JiN4YTs8ZyBjbGlwLXBhdGg9InVybCgjY2xpcDEpIj4mI3hhOzxtYXNrIGhlaWdodD0iNzYiIHdpZHRoPSI5NyIgeT0iMTAiIHg9Ii0xIiBtYXNrVW5pdHM9InVzZXJTcGFjZU9uVXNlIiBpZD0ibWFzazAiPiYjeGE7PHBhdGggZmlsbD0id2hpdGUiIGQ9Ik02MS4yMTE2IDEwQzYyLjM0OTYgMTAgNjMuNDMzNyAxMC40ODQ3IDY0LjE5MjUgMTEuMzMyOEw5NC42MTM2IDQ1LjMzMjhDOTUuOTcyMyA0Ni44NTE0IDk1Ljk3MjMgNDkuMTQ4NiA5NC42MTM2IDUwLjY2NzJMNjQuMTkyNSA4NC42NjcyQzYzLjQzMzcgODUuNTE1MyA2Mi4zNDk2IDg2IDYxLjIxMTYgODZIMy45NDYzNEMwLjQ4ODc3NyA4NiAtMS4zNDAxMiA4MS45MDk1IDAuOTY1MzY2IDc5LjMzMjhMMjkgNDhMMC45NjUzNjYgMTYuNjY3MkMtMS4zNDAxMiAxNC4wOTA1IDAuNDg4Nzc3IDEwIDMuOTQ2MzQgMTBINjEuMjExNloiLz4mI3hhOzwvbWFzaz4mI3hhOzxnIG1hc2s9InVybCgjbWFzazApIj4mI3hhOzxwYXRoIGZpbGw9InVybCgjcGFpbnQwX2xpbmVhcikiIGQ9Ik02MyAxMEwyOSA0OEwtNSAxMEg2M1oiLz4mI3hhOzxnIGZpbHRlcj0idXJsKCNmaWx0ZXIwX2YpIj4mI3hhOzxwYXRoIGZpbGwtb3BhY2l0eT0iMC4yNCIgZmlsbD0iYmxhY2siIGQ9Ik02MyAxMC40TC01IDg2LjRINjNMOTcgNDguNEw2MyAxMC40WiIvPiYjeGE7PC9nPiYjeGE7PGcgZmlsdGVyPSJ1cmwoI2ZpbHRlcjFfZikiPiYjeGE7PHBhdGggZmlsbC1vcGFjaXR5PSIwLjMyIiBmaWxsPSJibGFjayIgZD0iTTYzIDEyTC01IDg4SDYzTDk3IDUwTDYzIDEyWiIvPiYjeGE7PC9nPiYjeGE7PHBhdGggZmlsbD0idXJsKCNwYWludDFfbGluZWFyKSIgZD0iTS01IDg2TDYzIDEwTDk3IDQ4TDYzIDg2SC01WiIvPiYjeGE7PHBhdGggZmlsbD0idXJsKCNwYWludDJfbGluZWFyKSIgZD0iTS01IDg2TDYzIDEwTDgwIDI5TDI5IDg2SC01WiIvPiYjeGE7PC9nPiYjeGE7PC9nPiYjeGE7PC9nPiYjeGE7PC9zdmc+;" vertex="1" parent="1">
          <mxGeometry x="1566" y="3470" width="102" height="78" as="geometry" />
        </mxCell>
        <mxCell id="KilW35cTOYBIGDiVR_Ry-7" value="" style="shape=image;imageAspect=0;aspect=fixed;verticalLabelPosition=bottom;verticalAlign=top;image=data:image/svg+xml,PHN2ZyB4bWxucz0iaHR0cDovL3d3dy53My5vcmcvMjAwMC9zdmciIHZpZXdCb3g9IjAgMCAxOCAxOCIgaGVpZ2h0PSIxOCIgd2lkdGg9IjE4IiBpZD0idXVpZC1hZGJkYWU4ZS01YTQxLTQ2ZDEtOGMxOC1hYTczY2RiZmVlMzIiPjxkZWZzPjxyYWRpYWxHcmFkaWVudCBncmFkaWVudFVuaXRzPSJ1c2VyU3BhY2VPblVzZSIgZ3JhZGllbnRUcmFuc2Zvcm09InRyYW5zbGF0ZSgtMTc5MzkuMDMgMjAzNjguMDI5KSByb3RhdGUoNDUpIHNjYWxlKDI1LjA5MSAtMzQuMTQ5KSIgcj0iLjQ1IiBjeT0iNzkzLjE5OSIgY3g9Ii02Ny45ODEiIGlkPSJ1dWlkLTJhNzQwN2FhLWI3ODctNDhkZC1hOTZhLTBkODFhYjZlOTNiYiI+PHN0b3Agc3RvcC1jb2xvcj0iIzgzYjlmOSIgb2Zmc2V0PSIwIi8+PHN0b3Agc3RvcC1jb2xvcj0iIzAwNzhkNCIgb2Zmc2V0PSIxIi8+PC9yYWRpYWxHcmFkaWVudD48L2RlZnM+PHBhdGggc3Ryb2tlLXdpZHRoPSIwIiBmaWxsPSJ1cmwoI3V1aWQtMmE3NDA3YWEtYjc4Ny00OGRkLWE5NmEtMGQ4MWFiNmU5M2JiKSIgZD0ibTAsMi43djEyLjZjMCwxLjQ5MSwxLjIwOSwyLjcsMi43LDIuN2gxMi42YzEuNDkxLDAsMi43LTEuMjA5LDIuNy0yLjdWMi43YzAtMS40OTEtMS4yMDktMi43LTIuNy0yLjdIMi43QzEuMjA5LDAsMCwxLjIwOSwwLDIuN1pNMTAuOCwwdjMuNmMwLDMuOTc2LDMuMjI0LDcuMiw3LjIsNy4yaC0zLjZjLTMuOTc2LDAtNy4xOTksMy4yMjItNy4yLDcuMTk4di0zLjU5OGMwLTMuOTc2LTMuMjI0LTcuMi03LjItNy4yaDMuNmMzLjk3NiwwLDcuMi0zLjIyNCw3LjItNy4yWiIvPjwvc3ZnPg==;base64,PHN2ZyB4bWxucz0iaHR0cDovL3d3dy53My5vcmcvMjAwMC9zdmciIHZpZXdCb3g9IjAgMi42MTc2NTQ4MDA0MTUwMzkgMTggMTIuNzcwMTM5Njk0MjEzODY3IiBoZWlnaHQ9IjEyLjc3MDEzOTY5NDIxMzg2NyIgd2lkdGg9IjE4IiBpZD0iZjc4ZjUxMTUtYmU4OC00ZDQ0LWIzNGUtM2Y2ZWE3NDMxMjVjIj48ZGVmcz48bGluZWFyR3JhZGllbnQgZ3JhZGllbnRVbml0cz0idXNlclNwYWNlT25Vc2UiIHkyPSItMC4yOSIgeDI9IjkiIHkxPSIxOS4xMyIgeDE9IjkiIGlkPSJiNmM0M2JkOS1lMzdmLTQxOTEtOTNjMi1kM2E3YTg0YzUwNWUiPjxzdG9wIHN0b3AtY29sb3I9IiMwMDc4ZDQiIG9mZnNldD0iMCIvPjxzdG9wIHN0b3AtY29sb3I9IiMxMzgwZGEiIG9mZnNldD0iMC4xNiIvPjxzdG9wIHN0b3AtY29sb3I9IiMzYzkxZTUiIG9mZnNldD0iMC41MyIvPjxzdG9wIHN0b3AtY29sb3I9IiM1NTljZWMiIG9mZnNldD0iMC44MiIvPjxzdG9wIHN0b3AtY29sb3I9IiM1ZWEwZWYiIG9mZnNldD0iMSIvPjwvbGluZWFyR3JhZGllbnQ+PC9kZWZzPjx0aXRsZT5JY29uLW1hY2hpbmVsZWFybmluZy0xNjI8L3RpdGxlPjxwYXRoIGZpbGw9InVybCgjYjZjNDNiZDktZTM3Zi00MTkxLTkzYzItZDNhN2E4NGM1MDVlKSIgZD0iTTE4LDExLjM4QTQsNCwwLDAsMCwxNC40OSw3LjUsNS4xLDUuMSwwLDAsMCw5LjI0LDIuNjIsNS4yNSw1LjI1LDAsMCwwLDQuMjIsNiw0LjgsNC44LDAsMCwwLDAsMTAuNjdhNC45LDQuOSwwLDAsMCw1LjA3LDQuNzFsLjQ0LDBoOC4yMWEuNzguNzgsMCwwLDAsLjIyLDBBNC4xLDQuMSwwLDAsMCwxOCwxMS4zOFoiLz48cGF0aCBmaWxsPSIjOWNlYmZmIiBkPSJNNS40MiwxMC4zOUg0LjU0YTEuMDksMS4wOSwwLDEsMCwwLC40OWguODhhLjIuMiwwLDAsMSwuMi4ydjQuM2guNDl2LTQuM0EuNjkuNjksMCwwLDAsNS40MiwxMC4zOVptLTEuOTUuODhhLjY0LjY0LDAsMSwxLC42NC0uNjRBLjY0LjY0LDAsMCwxLDMuNDcsMTEuMjdaIi8+PHBhdGggZmlsbD0iI2YyZjJmMiIgZD0iTTguOTQsMTAuNjF2LTFhLjcuNywwLDAsMC0uNy0uN0g2LjY5YS4yLjIsMCwwLDEtLjItLjJWMy40bC0uMjMuMTJMNiwzLjY2djVhLjY5LjY5LDAsMCwwLC42OS42OUg4LjI0YS4yMS4yMSwwLDAsMSwuMjEuMjF2MWExLjA4LDEuMDgsMCwwLDAtLjg1LDEuMDYsMS4wOSwxLjA5LDAsMSwwLDEuMzQtMS4wNlptLS4yNSwxLjdoMGEuNjQuNjQsMCwxLDEsLjY0LS42NEEuNjQuNjQsMCwwLDEsOC42OSwxMi4zMVoiLz48cGF0aCBmaWxsPSIjOWNlYmZmIiBkPSJNMTQuNTMsOC41YTEuMDksMS4wOSwwLDAsMC0uMjUsMi4xNXYuMmEuMjEuMjEsMCwwLDEtLjIxLjIxaC0yVjcuNTRhLjY5LjY5LDAsMCwwLS42OS0uNjlIMTAuMzVBMS4wOCwxLjA4LDAsMCwwLDkuMjksNmExLjA5LDEuMDksMCwxLDAsMS4wNiwxLjM0aDEuMDdhLjIuMiwwLDAsMSwuMi4ydjcuODRoLjQ5VjExLjU1aDJhLjcuNywwLDAsMCwuNy0uN3YtLjJhMS4wOSwxLjA5LDAsMCwwLC44NS0xLjA2aDBBMS4wOSwxLjA5LDAsMCwwLDE0LjUzLDguNVpNOS4yOSw3LjczaDBhLjY0LjY0LDAsMSwxLC42NC0uNjRBLjY0LjY0LDAsMCwxLDkuMjksNy43M1ptNS4yNCwyLjVoMGEuNjQuNjQsMCwxLDEsLjYzLS42NEEuNjQuNjQsMCwwLDEsMTQuNTMsMTAuMjNaIi8+PC9zdmc+;base64,PHN2ZyB4bWxucz0iaHR0cDovL3d3dy53My5vcmcvMjAwMC9zdmciIHZpZXdCb3g9IjAgMi4zMTg5ODYxNzc0NDQ0NTggMTggMTMuMDk4ODA4Mjg4NTc0MjE5IiBoZWlnaHQ9IjEzLjA5ODgwODI4ODU3NDIxOSIgd2lkdGg9IjE4IiBpZD0iZjQ3MGUxMTItZjFkOC00YzE4LWEzODEtOWI1NGUxMWE5Y2EzIj48ZGVmcz48bGluZWFyR3JhZGllbnQgZ3JhZGllbnRVbml0cz0idXNlclNwYWNlT25Vc2UiIHkyPSIxOC4zMSIgeDI9IjkiIHkxPSIwLjM2IiB4MT0iOSIgaWQ9ImIxOThmOWFkLTIyNGUtNGYzNy05OWJiLWYxYzVhMjBkMzkxNiI+PHN0b3Agc3RvcC1jb2xvcj0iIzVlYTBlZiIgb2Zmc2V0PSIwLjE4Ii8+PHN0b3Agc3RvcC1jb2xvcj0iIzAwNzhkNCIgb2Zmc2V0PSIxIi8+PC9saW5lYXJHcmFkaWVudD48L2RlZnM+PHRpdGxlPkljb24td2ViLTQ0PC90aXRsZT48cGF0aCBmaWxsPSJ1cmwoI2IxOThmOWFkLTIyNGUtNGYzNy05OWJiLWYxYzVhMjBkMzkxNikiIGQ9Ik0xOCwxMS4zMmE0LjEyLDQuMTIsMCwwLDAtMy41MS00LDUuMTUsNS4xNSwwLDAsMC01LjI1LTUsNS4yNSw1LjI1LDAsMCwwLTUsMy40OUE0Ljg2LDQuODYsMCwwLDAsMCwxMC41OWE1LDUsMCwwLDAsNS4wNyw0LjgybC40NCwwaDguMjFhLjc4Ljc4LDAsMCwwLC4yMiwwQTQuMTMsNC4xMywwLDAsMCwxOCwxMS4zMloiLz48cGF0aCBmaWxsPSIjZjJmMmYyIiBkPSJNMTIuMzMsNi41OWEzLjA3LDMuMDcsMCwwLDAtNS42MS44NSwzLjE2LDMuMTYsMCwwLDAsLjMzLDIuMjdMNC43MSwxMi4wOGEuNzkuNzksMCwwLDAsMCwxLjEyLjc4Ljc4LDAsMCwwLC41Ni4yMy43Ni43NiwwLDAsMCwuNTYtLjIzbDIuMzMtMi4zNmEzLjE0LDMuMTQsMCwwLDAsLjgxLjMzLDMuMDgsMy4wOCwwLDAsMCwzLjM2LTQuNThabS0uNTQsMi4xQTIuMTYsMi4xNiwwLDAsMSw5LjcsMTAuMzRhMS43OSwxLjc5LDAsMCwxLS41MS0uMDcsMS44NywxLjg3LDAsMCwxLS43LS4zMiwyLjEzLDIuMTMsMCwwLDEtLjU2LS41NiwyLjE3LDIuMTcsMCwwLDEtLjMxLTEuNzNBMi4xNCwyLjE0LDAsMCwxLDkuNyw2YTIuMzEsMi4zMSwwLDAsMSwuNTIuMDYsMi4xOCwyLjE4LDAsMCwxLDEuMzIsMUEyLjEzLDIuMTMsMCwwLDEsMTEuNzksOC42OVoiLz48ZWxsaXBzZSBmaWxsPSIjODNiOWY5IiByeT0iMi4xNiIgcng9IjIuMTUiIGN5PSI4LjE4IiBjeD0iOS42OSIvPjwvc3ZnPg==;base64,PHN2ZyB4bWxucz0iaHR0cDovL3d3dy53My5vcmcvMjAwMC9zdmciIHZpZXdCb3g9IjAuNjQzODUxMzk5NDIxNjkxOSAtOS41MzY3NDMxNjQwNjI1ZS03IDE2LjcxMjE1MDU3MzczMDQ3IDE4IiBoZWlnaHQ9IjE4IiB3aWR0aD0iMTYuNzEyMTUwNTczNzMwNDciIGlkPSJ1dWlkLTZiODM4MGMzLTBlZTUtNGM0NC05MmEyLWYxODVjODJkYjZiYSI+PGRlZnM+PGxpbmVhckdyYWRpZW50IGdyYWRpZW50VW5pdHM9InVzZXJTcGFjZU9uVXNlIiBncmFkaWVudFRyYW5zZm9ybT0idHJhbnNsYXRlKDYxNy4xMjYgLTIwNS43NTgpIHNjYWxlKDEgLTEpIiB5Mj0iLTIwNi4yMiIgeDI9Ii02MDYuNiIgeTE9Ii0yMTguMzc4IiB4MT0iLTYwMy41NjMiIGlkPSJ1dWlkLTA1ODc2YzcyLThmMjYtNDBkYS05OTZlLWE0ODgxNzJlYzA3MiI+PHN0b3Agc3RvcC1jb2xvcj0iIzcxMjU3NSIgb2Zmc2V0PSIwIi8+PHN0b3Agc3RvcC1jb2xvcj0iIzlhMjg4NCIgb2Zmc2V0PSIuMDkiLz48c3RvcCBzdG9wLWNvbG9yPSIjYmYyYzkyIiBvZmZzZXQ9Ii4xOCIvPjxzdG9wIHN0b3AtY29sb3I9IiNkYTJlOWMiIG9mZnNldD0iLjI3Ii8+PHN0b3Agc3RvcC1jb2xvcj0iI2ViMzBhMiIgb2Zmc2V0PSIuMzQiLz48c3RvcCBzdG9wLWNvbG9yPSIjZjEzMWE1IiBvZmZzZXQ9Ii40Ii8+PHN0b3Agc3RvcC1jb2xvcj0iI2VjMzBhMyIgb2Zmc2V0PSIuNSIvPjxzdG9wIHN0b3AtY29sb3I9IiNkZjJmOWUiIG9mZnNldD0iLjYxIi8+PHN0b3Agc3RvcC1jb2xvcj0iI2M5MmQ5NiIgb2Zmc2V0PSIuNzIiLz48c3RvcCBzdG9wLWNvbG9yPSIjYWEyYThhIiBvZmZzZXQ9Ii44MyIvPjxzdG9wIHN0b3AtY29sb3I9IiM4MzI2N2MiIG9mZnNldD0iLjk1Ii8+PHN0b3Agc3RvcC1jb2xvcj0iIzcxMjU3NSIgb2Zmc2V0PSIxIi8+PC9saW5lYXJHcmFkaWVudD48bGluZWFyR3JhZGllbnQgZ3JhZGllbnRVbml0cz0idXNlclNwYWNlT25Vc2UiIGdyYWRpZW50VHJhbnNmb3JtPSJ0cmFuc2xhdGUoNjE3LjEyNiAtMjA1Ljc1OCkgc2NhbGUoMSAtMSkiIHkyPSItMjIzLjE3NSIgeDI9Ii02MDIuNDEyIiB5MT0iLTIwNi4wMjUiIHgxPSItNjAyLjQxMiIgaWQ9InV1aWQtYzRhMmY2MjctZDczMC00NDdlLTkxNTItNjIwMDljNjRjMzYxIj48c3RvcCBzdG9wLWNvbG9yPSIjZGE3ZWQwIiBvZmZzZXQ9IjAiLz48c3RvcCBzdG9wLWNvbG9yPSIjYjE3YmQ1IiBvZmZzZXQ9Ii4wOCIvPjxzdG9wIHN0b3AtY29sb3I9IiM4Nzc4ZGIiIG9mZnNldD0iLjE5Ii8+PHN0b3Agc3RvcC1jb2xvcj0iIzYyNzZlMSIgb2Zmc2V0PSIuMyIvPjxzdG9wIHN0b3AtY29sb3I9IiM0NTc0ZTUiIG9mZnNldD0iLjQxIi8+PHN0b3Agc3RvcC1jb2xvcj0iIzJlNzJlOCIgb2Zmc2V0PSIuNTQiLz48c3RvcCBzdG9wLWNvbG9yPSIjMWQ3MWViIiBvZmZzZXQ9Ii42NyIvPjxzdG9wIHN0b3AtY29sb3I9IiMxNDcxZWMiIG9mZnNldD0iLjgxIi8+PHN0b3Agc3RvcC1jb2xvcj0iIzExNzFlZCIgb2Zmc2V0PSIxIi8+PC9saW5lYXJHcmFkaWVudD48bGluZWFyR3JhZGllbnQgZ3JhZGllbnRVbml0cz0idXNlclNwYWNlT25Vc2UiIGdyYWRpZW50VHJhbnNmb3JtPSJ0cmFuc2xhdGUoNjE3LjEyNiAtMjA1Ljc1OCkgc2NhbGUoMSAtMSkiIHkyPSItMjI0LjY0NCIgeDI9Ii02MTQuODA3IiB5MT0iLTIwNi40MTQiIHgxPSItNjAzLjQzOCIgaWQ9InV1aWQtNWE0Y2YyMTUtNDkzMi00ZjEyLThhZjEtMWI2ODMzZGYyNTljIj48c3RvcCBzdG9wLWNvbG9yPSIjZGE3ZWQwIiBvZmZzZXQ9IjAiLz48c3RvcCBzdG9wLWNvbG9yPSIjYjc3YmQ0IiBvZmZzZXQ9Ii4wNSIvPjxzdG9wIHN0b3AtY29sb3I9IiM5MDc5ZGEiIG9mZnNldD0iLjExIi8+PHN0b3Agc3RvcC1jb2xvcj0iIzZlNzdkZiIgb2Zmc2V0PSIuMTgiLz48c3RvcCBzdG9wLWNvbG9yPSIjNTE3NWUzIiBvZmZzZXQ9Ii4yNSIvPjxzdG9wIHN0b3AtY29sb3I9IiMzOTczZTciIG9mZnNldD0iLjMzIi8+PHN0b3Agc3RvcC1jb2xvcj0iIzI3NzJlOSIgb2Zmc2V0PSIuNDIiLz48c3RvcCBzdG9wLWNvbG9yPSIjMWE3MWViIiBvZmZzZXQ9Ii41NCIvPjxzdG9wIHN0b3AtY29sb3I9IiMxMzcxZWMiIG9mZnNldD0iLjY4Ii8+PHN0b3Agc3RvcC1jb2xvcj0iIzExNzFlZCIgb2Zmc2V0PSIxIi8+PC9saW5lYXJHcmFkaWVudD48L2RlZnM+PHBhdGggc3Ryb2tlLXdpZHRoPSIwIiBmaWxsLXJ1bGU9ImV2ZW5vZGQiIGZpbGw9InVybCgjdXVpZC0wNTg3NmM3Mi04ZjI2LTQwZGEtOTk2ZS1hNDg4MTcyZWMwNzIpIiBkPSJtMTIuMDYxLjAxMmMuNTM0LDAsMS4wMDguNDAxLDEuMTc4Ljk4NHMxLjE2Niw0LjE5LDEuMTY2LDQuMTl2Ny4xNjZoLTMuNjA3bC4wNzMtMTIuMzUyaDEuMTl2LjAxMloiLz48cGF0aCBzdHJva2Utd2lkdGg9IjAiIGZpbGw9InVybCgjdXVpZC1jNGEyZjYyNy1kNzMwLTQ0N2UtOTE1Mi02MjAwOWM2NGMzNjEpIiBkPSJtMTcuMzU2LDUuNjExYzAtLjI1NS0uMjA2LS40NDktLjQ0OS0uNDQ5aC0yLjEyNmMtMS40OTQsMC0yLjcwOSwxLjIxNS0yLjcwOSwyLjcwOXY0LjQ5NGgyLjU3NWMxLjQ5NCwwLDIuNzA5LTEuMjE1LDIuNzA5LTIuNzA5di00LjA0NVoiLz48cGF0aCBzdHJva2Utd2lkdGg9IjAiIGZpbGwtcnVsZT0iZXZlbm9kZCIgZmlsbD0idXJsKCN1dWlkLTVhNGNmMjE1LTQ5MzItNGYxMi04YWYxLTFiNjgzM2RmMjU5YykiIGQ9Im0xMi4wNjEuMDEyYy0uNDEzLDAtLjc0MS4zMjgtLjc0MS43NDFsLS4wNzMsMTMuNjRjMCwxLjk5Mi0xLjYxNSwzLjYwNy0zLjYwNywzLjYwN0gxLjA5M2MtLjMxNiwwLS41MjItLjMwNC0uNDI1LS41OTVMNS45MTUsMi40MjlDNi40MjUuOTg0LDcuNzg1LjAxMiw5LjMxNi4wMTJoMi43NTctLjAxMloiLz48L3N2Zz4=;" vertex="1" parent="1">
          <mxGeometry x="880" y="2590" width="120" height="120" as="geometry" />
        </mxCell>
        <mxCell id="KilW35cTOYBIGDiVR_Ry-8" value="" style="shape=image;imageAspect=0;aspect=fixed;verticalLabelPosition=bottom;verticalAlign=top;image=data:image/svg+xml,PHN2ZyB4bWxucz0iaHR0cDovL3d3dy53My5vcmcvMjAwMC9zdmciIHZpZXdCb3g9IjAuNjQzODUxMzk5NDIxNjkxOSAtOS41MzY3NDMxNjQwNjI1ZS03IDE2LjcxMjE1MDU3MzczMDQ3IDE4IiBoZWlnaHQ9IjE4IiB3aWR0aD0iMTYuNzEyMTUwNTczNzMwNDciIGlkPSJ1dWlkLTZiODM4MGMzLTBlZTUtNGM0NC05MmEyLWYxODVjODJkYjZiYSI+PGRlZnM+PGxpbmVhckdyYWRpZW50IGdyYWRpZW50VW5pdHM9InVzZXJTcGFjZU9uVXNlIiBncmFkaWVudFRyYW5zZm9ybT0idHJhbnNsYXRlKDYxNy4xMjYgLTIwNS43NTgpIHNjYWxlKDEgLTEpIiB5Mj0iLTIwNi4yMiIgeDI9Ii02MDYuNiIgeTE9Ii0yMTguMzc4IiB4MT0iLTYwMy41NjMiIGlkPSJ1dWlkLTA1ODc2YzcyLThmMjYtNDBkYS05OTZlLWE0ODgxNzJlYzA3MiI+PHN0b3Agc3RvcC1jb2xvcj0iIzcxMjU3NSIgb2Zmc2V0PSIwIi8+PHN0b3Agc3RvcC1jb2xvcj0iIzlhMjg4NCIgb2Zmc2V0PSIuMDkiLz48c3RvcCBzdG9wLWNvbG9yPSIjYmYyYzkyIiBvZmZzZXQ9Ii4xOCIvPjxzdG9wIHN0b3AtY29sb3I9IiNkYTJlOWMiIG9mZnNldD0iLjI3Ii8+PHN0b3Agc3RvcC1jb2xvcj0iI2ViMzBhMiIgb2Zmc2V0PSIuMzQiLz48c3RvcCBzdG9wLWNvbG9yPSIjZjEzMWE1IiBvZmZzZXQ9Ii40Ii8+PHN0b3Agc3RvcC1jb2xvcj0iI2VjMzBhMyIgb2Zmc2V0PSIuNSIvPjxzdG9wIHN0b3AtY29sb3I9IiNkZjJmOWUiIG9mZnNldD0iLjYxIi8+PHN0b3Agc3RvcC1jb2xvcj0iI2M5MmQ5NiIgb2Zmc2V0PSIuNzIiLz48c3RvcCBzdG9wLWNvbG9yPSIjYWEyYThhIiBvZmZzZXQ9Ii44MyIvPjxzdG9wIHN0b3AtY29sb3I9IiM4MzI2N2MiIG9mZnNldD0iLjk1Ii8+PHN0b3Agc3RvcC1jb2xvcj0iIzcxMjU3NSIgb2Zmc2V0PSIxIi8+PC9saW5lYXJHcmFkaWVudD48bGluZWFyR3JhZGllbnQgZ3JhZGllbnRVbml0cz0idXNlclNwYWNlT25Vc2UiIGdyYWRpZW50VHJhbnNmb3JtPSJ0cmFuc2xhdGUoNjE3LjEyNiAtMjA1Ljc1OCkgc2NhbGUoMSAtMSkiIHkyPSItMjIzLjE3NSIgeDI9Ii02MDIuNDEyIiB5MT0iLTIwNi4wMjUiIHgxPSItNjAyLjQxMiIgaWQ9InV1aWQtYzRhMmY2MjctZDczMC00NDdlLTkxNTItNjIwMDljNjRjMzYxIj48c3RvcCBzdG9wLWNvbG9yPSIjZGE3ZWQwIiBvZmZzZXQ9IjAiLz48c3RvcCBzdG9wLWNvbG9yPSIjYjE3YmQ1IiBvZmZzZXQ9Ii4wOCIvPjxzdG9wIHN0b3AtY29sb3I9IiM4Nzc4ZGIiIG9mZnNldD0iLjE5Ii8+PHN0b3Agc3RvcC1jb2xvcj0iIzYyNzZlMSIgb2Zmc2V0PSIuMyIvPjxzdG9wIHN0b3AtY29sb3I9IiM0NTc0ZTUiIG9mZnNldD0iLjQxIi8+PHN0b3Agc3RvcC1jb2xvcj0iIzJlNzJlOCIgb2Zmc2V0PSIuNTQiLz48c3RvcCBzdG9wLWNvbG9yPSIjMWQ3MWViIiBvZmZzZXQ9Ii42NyIvPjxzdG9wIHN0b3AtY29sb3I9IiMxNDcxZWMiIG9mZnNldD0iLjgxIi8+PHN0b3Agc3RvcC1jb2xvcj0iIzExNzFlZCIgb2Zmc2V0PSIxIi8+PC9saW5lYXJHcmFkaWVudD48bGluZWFyR3JhZGllbnQgZ3JhZGllbnRVbml0cz0idXNlclNwYWNlT25Vc2UiIGdyYWRpZW50VHJhbnNmb3JtPSJ0cmFuc2xhdGUoNjE3LjEyNiAtMjA1Ljc1OCkgc2NhbGUoMSAtMSkiIHkyPSItMjI0LjY0NCIgeDI9Ii02MTQuODA3IiB5MT0iLTIwNi40MTQiIHgxPSItNjAzLjQzOCIgaWQ9InV1aWQtNWE0Y2YyMTUtNDkzMi00ZjEyLThhZjEtMWI2ODMzZGYyNTljIj48c3RvcCBzdG9wLWNvbG9yPSIjZGE3ZWQwIiBvZmZzZXQ9IjAiLz48c3RvcCBzdG9wLWNvbG9yPSIjYjc3YmQ0IiBvZmZzZXQ9Ii4wNSIvPjxzdG9wIHN0b3AtY29sb3I9IiM5MDc5ZGEiIG9mZnNldD0iLjExIi8+PHN0b3Agc3RvcC1jb2xvcj0iIzZlNzdkZiIgb2Zmc2V0PSIuMTgiLz48c3RvcCBzdG9wLWNvbG9yPSIjNTE3NWUzIiBvZmZzZXQ9Ii4yNSIvPjxzdG9wIHN0b3AtY29sb3I9IiMzOTczZTciIG9mZnNldD0iLjMzIi8+PHN0b3Agc3RvcC1jb2xvcj0iIzI3NzJlOSIgb2Zmc2V0PSIuNDIiLz48c3RvcCBzdG9wLWNvbG9yPSIjMWE3MWViIiBvZmZzZXQ9Ii41NCIvPjxzdG9wIHN0b3AtY29sb3I9IiMxMzcxZWMiIG9mZnNldD0iLjY4Ii8+PHN0b3Agc3RvcC1jb2xvcj0iIzExNzFlZCIgb2Zmc2V0PSIxIi8+PC9saW5lYXJHcmFkaWVudD48L2RlZnM+PHBhdGggc3Ryb2tlLXdpZHRoPSIwIiBmaWxsLXJ1bGU9ImV2ZW5vZGQiIGZpbGw9InVybCgjdXVpZC0wNTg3NmM3Mi04ZjI2LTQwZGEtOTk2ZS1hNDg4MTcyZWMwNzIpIiBkPSJtMTIuMDYxLjAxMmMuNTM0LDAsMS4wMDguNDAxLDEuMTc4Ljk4NHMxLjE2Niw0LjE5LDEuMTY2LDQuMTl2Ny4xNjZoLTMuNjA3bC4wNzMtMTIuMzUyaDEuMTl2LjAxMloiLz48cGF0aCBzdHJva2Utd2lkdGg9IjAiIGZpbGw9InVybCgjdXVpZC1jNGEyZjYyNy1kNzMwLTQ0N2UtOTE1Mi02MjAwOWM2NGMzNjEpIiBkPSJtMTcuMzU2LDUuNjExYzAtLjI1NS0uMjA2LS40NDktLjQ0OS0uNDQ5aC0yLjEyNmMtMS40OTQsMC0yLjcwOSwxLjIxNS0yLjcwOSwyLjcwOXY0LjQ5NGgyLjU3NWMxLjQ5NCwwLDIuNzA5LTEuMjE1LDIuNzA5LTIuNzA5di00LjA0NVoiLz48cGF0aCBzdHJva2Utd2lkdGg9IjAiIGZpbGwtcnVsZT0iZXZlbm9kZCIgZmlsbD0idXJsKCN1dWlkLTVhNGNmMjE1LTQ5MzItNGYxMi04YWYxLTFiNjgzM2RmMjU5YykiIGQ9Im0xMi4wNjEuMDEyYy0uNDEzLDAtLjc0MS4zMjgtLjc0MS43NDFsLS4wNzMsMTMuNjRjMCwxLjk5Mi0xLjYxNSwzLjYwNy0zLjYwNywzLjYwN0gxLjA5M2MtLjMxNiwwLS41MjItLjMwNC0uNDI1LS41OTVMNS45MTUsMi40MjlDNi40MjUuOTg0LDcuNzg1LjAxMiw5LjMxNi4wMTJoMi43NTctLjAxMloiLz48L3N2Zz4=;" vertex="1" parent="1">
          <mxGeometry x="880" y="2750" width="116.16" height="123" as="geometry" />
        </mxCell>
        <mxCell id="KilW35cTOYBIGDiVR_Ry-9" value="" style="shape=image;imageAspect=0;aspect=fixed;verticalLabelPosition=bottom;verticalAlign=top;image=data:image/svg+xml,PHN2ZyB4bWxucz0iaHR0cDovL3d3dy53My5vcmcvMjAwMC9zdmciIHZpZXdCb3g9IjAgMi4zMTg5ODYxNzc0NDQ0NTggMTggMTMuMDk4ODA4Mjg4NTc0MjE5IiBoZWlnaHQ9IjEzLjA5ODgwODI4ODU3NDIxOSIgd2lkdGg9IjE4IiBpZD0iZjQ3MGUxMTItZjFkOC00YzE4LWEzODEtOWI1NGUxMWE5Y2EzIj48ZGVmcz48bGluZWFyR3JhZGllbnQgZ3JhZGllbnRVbml0cz0idXNlclNwYWNlT25Vc2UiIHkyPSIxOC4zMSIgeDI9IjkiIHkxPSIwLjM2IiB4MT0iOSIgaWQ9ImIxOThmOWFkLTIyNGUtNGYzNy05OWJiLWYxYzVhMjBkMzkxNiI+PHN0b3Agc3RvcC1jb2xvcj0iIzVlYTBlZiIgb2Zmc2V0PSIwLjE4Ii8+PHN0b3Agc3RvcC1jb2xvcj0iIzAwNzhkNCIgb2Zmc2V0PSIxIi8+PC9saW5lYXJHcmFkaWVudD48L2RlZnM+PHRpdGxlPkljb24td2ViLTQ0PC90aXRsZT48cGF0aCBmaWxsPSJ1cmwoI2IxOThmOWFkLTIyNGUtNGYzNy05OWJiLWYxYzVhMjBkMzkxNikiIGQ9Ik0xOCwxMS4zMmE0LjEyLDQuMTIsMCwwLDAtMy41MS00LDUuMTUsNS4xNSwwLDAsMC01LjI1LTUsNS4yNSw1LjI1LDAsMCwwLTUsMy40OUE0Ljg2LDQuODYsMCwwLDAsMCwxMC41OWE1LDUsMCwwLDAsNS4wNyw0LjgybC40NCwwaDguMjFhLjc4Ljc4LDAsMCwwLC4yMiwwQTQuMTMsNC4xMywwLDAsMCwxOCwxMS4zMloiLz48cGF0aCBmaWxsPSIjZjJmMmYyIiBkPSJNMTIuMzMsNi41OWEzLjA3LDMuMDcsMCwwLDAtNS42MS44NSwzLjE2LDMuMTYsMCwwLDAsLjMzLDIuMjdMNC43MSwxMi4wOGEuNzkuNzksMCwwLDAsMCwxLjEyLjc4Ljc4LDAsMCwwLC41Ni4yMy43Ni43NiwwLDAsMCwuNTYtLjIzbDIuMzMtMi4zNmEzLjE0LDMuMTQsMCwwLDAsLjgxLjMzLDMuMDgsMy4wOCwwLDAsMCwzLjM2LTQuNThabS0uNTQsMi4xQTIuMTYsMi4xNiwwLDAsMSw5LjcsMTAuMzRhMS43OSwxLjc5LDAsMCwxLS41MS0uMDcsMS44NywxLjg3LDAsMCwxLS43LS4zMiwyLjEzLDIuMTMsMCwwLDEtLjU2LS41NiwyLjE3LDIuMTcsMCwwLDEtLjMxLTEuNzNBMi4xNCwyLjE0LDAsMCwxLDkuNyw2YTIuMzEsMi4zMSwwLDAsMSwuNTIuMDYsMi4xOCwyLjE4LDAsMCwxLDEuMzIsMUEyLjEzLDIuMTMsMCwwLDEsMTEuNzksOC42OVoiLz48ZWxsaXBzZSBmaWxsPSIjODNiOWY5IiByeT0iMi4xNiIgcng9IjIuMTUiIGN5PSI4LjE4IiBjeD0iOS42OSIvPjwvc3ZnPg==;" vertex="1" parent="1">
          <mxGeometry x="880" y="2932.5" width="121.14" height="87.5" as="geometry" />
        </mxCell>
        <mxCell id="KilW35cTOYBIGDiVR_Ry-10" value="" style="shape=image;imageAspect=0;aspect=fixed;verticalLabelPosition=bottom;verticalAlign=top;image=data:image/svg+xml,PHN2ZyB4bWxucz0iaHR0cDovL3d3dy53My5vcmcvMjAwMC9zdmciIHZpZXdCb3g9IjAgMi42MTc2NTQ4MDA0MTUwMzkgMTggMTIuNzcwMTM5Njk0MjEzODY3IiBoZWlnaHQ9IjEyLjc3MDEzOTY5NDIxMzg2NyIgd2lkdGg9IjE4IiBpZD0iZjc4ZjUxMTUtYmU4OC00ZDQ0LWIzNGUtM2Y2ZWE3NDMxMjVjIj48ZGVmcz48bGluZWFyR3JhZGllbnQgZ3JhZGllbnRVbml0cz0idXNlclNwYWNlT25Vc2UiIHkyPSItMC4yOSIgeDI9IjkiIHkxPSIxOS4xMyIgeDE9IjkiIGlkPSJiNmM0M2JkOS1lMzdmLTQxOTEtOTNjMi1kM2E3YTg0YzUwNWUiPjxzdG9wIHN0b3AtY29sb3I9IiMwMDc4ZDQiIG9mZnNldD0iMCIvPjxzdG9wIHN0b3AtY29sb3I9IiMxMzgwZGEiIG9mZnNldD0iMC4xNiIvPjxzdG9wIHN0b3AtY29sb3I9IiMzYzkxZTUiIG9mZnNldD0iMC41MyIvPjxzdG9wIHN0b3AtY29sb3I9IiM1NTljZWMiIG9mZnNldD0iMC44MiIvPjxzdG9wIHN0b3AtY29sb3I9IiM1ZWEwZWYiIG9mZnNldD0iMSIvPjwvbGluZWFyR3JhZGllbnQ+PC9kZWZzPjx0aXRsZT5JY29uLW1hY2hpbmVsZWFybmluZy0xNjI8L3RpdGxlPjxwYXRoIGZpbGw9InVybCgjYjZjNDNiZDktZTM3Zi00MTkxLTkzYzItZDNhN2E4NGM1MDVlKSIgZD0iTTE4LDExLjM4QTQsNCwwLDAsMCwxNC40OSw3LjUsNS4xLDUuMSwwLDAsMCw5LjI0LDIuNjIsNS4yNSw1LjI1LDAsMCwwLDQuMjIsNiw0LjgsNC44LDAsMCwwLDAsMTAuNjdhNC45LDQuOSwwLDAsMCw1LjA3LDQuNzFsLjQ0LDBoOC4yMWEuNzguNzgsMCwwLDAsLjIyLDBBNC4xLDQuMSwwLDAsMCwxOCwxMS4zOFoiLz48cGF0aCBmaWxsPSIjOWNlYmZmIiBkPSJNNS40MiwxMC4zOUg0LjU0YTEuMDksMS4wOSwwLDEsMCwwLC40OWguODhhLjIuMiwwLDAsMSwuMi4ydjQuM2guNDl2LTQuM0EuNjkuNjksMCwwLDAsNS40MiwxMC4zOVptLTEuOTUuODhhLjY0LjY0LDAsMSwxLC42NC0uNjRBLjY0LjY0LDAsMCwxLDMuNDcsMTEuMjdaIi8+PHBhdGggZmlsbD0iI2YyZjJmMiIgZD0iTTguOTQsMTAuNjF2LTFhLjcuNywwLDAsMC0uNy0uN0g2LjY5YS4yLjIsMCwwLDEtLjItLjJWMy40bC0uMjMuMTJMNiwzLjY2djVhLjY5LjY5LDAsMCwwLC42OS42OUg4LjI0YS4yMS4yMSwwLDAsMSwuMjEuMjF2MWExLjA4LDEuMDgsMCwwLDAtLjg1LDEuMDYsMS4wOSwxLjA5LDAsMSwwLDEuMzQtMS4wNlptLS4yNSwxLjdoMGEuNjQuNjQsMCwxLDEsLjY0LS42NEEuNjQuNjQsMCwwLDEsOC42OSwxMi4zMVoiLz48cGF0aCBmaWxsPSIjOWNlYmZmIiBkPSJNMTQuNTMsOC41YTEuMDksMS4wOSwwLDAsMC0uMjUsMi4xNXYuMmEuMjEuMjEsMCwwLDEtLjIxLjIxaC0yVjcuNTRhLjY5LjY5LDAsMCwwLS42OS0uNjlIMTAuMzVBMS4wOCwxLjA4LDAsMCwwLDkuMjksNmExLjA5LDEuMDksMCwxLDAsMS4wNiwxLjM0aDEuMDdhLjIuMiwwLDAsMSwuMi4ydjcuODRoLjQ5VjExLjU1aDJhLjcuNywwLDAsMCwuNy0uN3YtLjJhMS4wOSwxLjA5LDAsMCwwLC44NS0xLjA2aDBBMS4wOSwxLjA5LDAsMCwwLDE0LjUzLDguNVpNOS4yOSw3LjczaDBhLjY0LjY0LDAsMSwxLC42NC0uNjRBLjY0LjY0LDAsMCwxLDkuMjksNy43M1ptNS4yNCwyLjVoMGEuNjQuNjQsMCwxLDEsLjYzLS42NEEuNjQuNjQsMCwwLDEsMTQuNTMsMTAuMjNaIi8+PC9zdmc+;" vertex="1" parent="1">
          <mxGeometry x="880" y="3069" width="126.01" height="91" as="geometry" />
        </mxCell>
        <mxCell id="KilW35cTOYBIGDiVR_Ry-12" value="Critical Safety Decision?" style="strokeWidth=2;html=1;shape=mxgraph.flowchart.decision;whiteSpace=wrap;" vertex="1" parent="1">
          <mxGeometry x="618.5" y="1730" width="160" height="110" as="geometry" />
        </mxCell>
        <mxCell id="KilW35cTOYBIGDiVR_Ry-13" value="" style="endArrow=classic;html=1;rounded=0;entryX=0.5;entryY=0;entryDx=0;entryDy=0;exitX=0.5;exitY=1;exitDx=0;exitDy=0;exitPerimeter=0;" edge="1" parent="1" source="KilW35cTOYBIGDiVR_Ry-12" target="lBSA8WIBel6qRi3vPHOn-127">
          <mxGeometry relative="1" as="geometry">
            <mxPoint x="310" y="1780" as="sourcePoint" />
            <mxPoint x="470" y="1780" as="targetPoint" />
          </mxGeometry>
        </mxCell>
        <mxCell id="KilW35cTOYBIGDiVR_Ry-15" value="Yes" style="edgeLabel;resizable=0;html=1;;align=left;verticalAlign=bottom;" connectable="0" vertex="1" parent="KilW35cTOYBIGDiVR_Ry-13">
          <mxGeometry x="-1" relative="1" as="geometry">
            <mxPoint x="-30" y="5" as="offset" />
          </mxGeometry>
        </mxCell>
        <mxCell id="KilW35cTOYBIGDiVR_Ry-16" value="" style="endArrow=classic;html=1;rounded=0;exitX=0;exitY=0.5;exitDx=0;exitDy=0;exitPerimeter=0;entryX=0.5;entryY=0;entryDx=0;entryDy=0;" edge="1" parent="1" source="KilW35cTOYBIGDiVR_Ry-12" target="lBSA8WIBel6qRi3vPHOn-128">
          <mxGeometry relative="1" as="geometry">
            <mxPoint x="650" y="1900" as="sourcePoint" />
            <mxPoint x="810" y="1900" as="targetPoint" />
            <Array as="points">
              <mxPoint x="420" y="1785" />
            </Array>
          </mxGeometry>
        </mxCell>
        <mxCell id="KilW35cTOYBIGDiVR_Ry-18" value="No" style="edgeLabel;resizable=0;html=1;;align=left;verticalAlign=bottom;" connectable="0" vertex="1" parent="KilW35cTOYBIGDiVR_Ry-16">
          <mxGeometry x="-1" relative="1" as="geometry">
            <mxPoint x="16" y="-7" as="offset" />
          </mxGeometry>
        </mxCell>
      </root>
    </mxGraphModel>
  </diagram>
</mxfile>
